<?xml version="1.0" encoding="UTF-8" standalone="no"?>
<svg
   xmlns:v="http://schemas.microsoft.com/visio/2003/SVGExtensions/"
   xmlns:dc="http://purl.org/dc/elements/1.1/"
   xmlns:cc="http://creativecommons.org/ns#"
   xmlns:rdf="http://www.w3.org/1999/02/22-rdf-syntax-ns#"
   xmlns:svg="http://www.w3.org/2000/svg"
   xmlns="http://www.w3.org/2000/svg"
   xmlns:sodipodi="http://sodipodi.sourceforge.net/DTD/sodipodi-0.dtd"
   xmlns:inkscape="http://www.inkscape.org/namespaces/inkscape"
   width="508mm"
   height="285.75mm"
   version="1.1"
   viewBox="0 0 508 285.75"
   id="svg571"
   sodipodi:docname="splash-iinkscape.svg"
   inkscape:version="0.92.2 (5c3e80d, 2017-08-06)">
  <metadata
     id="metadata577">
    <rdf:RDF>
      <cc:Work
         rdf:about="">
        <dc:format>image/svg+xml</dc:format>
        <dc:type
           rdf:resource="http://purl.org/dc/dcmitype/StillImage" />
        <dc:title></dc:title>
      </cc:Work>
    </rdf:RDF>
  </metadata>
  <defs
     id="defs575" />
  <sodipodi:namedview
     pagecolor="#ffffff"
     bordercolor="#666666"
     borderopacity="1"
     objecttolerance="10"
     gridtolerance="10"
     guidetolerance="10"
     inkscape:pageopacity="0"
     inkscape:pageshadow="2"
     inkscape:window-width="3840"
     inkscape:window-height="2055"
     id="namedview573"
     showgrid="false"
     inkscape:zoom="0.87407407"
     inkscape:cx="870.90235"
     inkscape:cy="762.1552"
     inkscape:window-x="753"
     inkscape:window-y="-13"
     inkscape:window-maximized="1"
     inkscape:current-layer="svg571" />
  <rect
     x="-.070501"
     y="-.857"
     width="517.73"
     height="291.78"
     ry="0"
     style="fill:#68217a;stroke-width:.23244"
     id="rect2" />
  <rect
     x="215.31"
     y="166.77"
     width="185.3"
     height="12.332"
     ry="6.166"
     style="fill:#803b9c;paint-order:normal"
     id="rect4" />
  <circle
     cx="394.45"
     cy="172.93"
     r="3.6364"
     style="fill:#fff;paint-order:normal"
     id="circle6" />
  <circle
     cx="221.74"
     cy="172.93"
     r="3.6364"
     style="fill:#fff;paint-order:normal"
     id="circle8" />
  <path
     d="m229.03 169.37h157.86"
     style="fill:#fff;stroke-dasharray:6.31507526,6.31507526;stroke-width:1.0525;stroke:#fff"
     id="path10" />
  <rect
     x="88.328"
     y="65.654"
     width="72.635"
     height="135.5"
     ry=".63241"
     style="fill:#803b9c;paint-order:normal"
     id="rect12" />
  <g
     transform="matrix(1.1548 0 0 1.1548 -104.38 -7.8121)"
     id="g40">
    <rect
       x="249.22"
       y="158.63"
       width="8.808"
       height="12.862"
       ry="2.5395"
       style="fill:#414141;stroke-linecap:round;stroke-linejoin:round;stroke-width:1.6855;stroke:#feffff"
       id="rect14" />
    <rect
       x="244.22"
       y="167.69"
       width="7.684"
       height="7.4836"
       ry="2.0316"
       style="fill:#414141;stroke-linecap:round;stroke-linejoin:round;stroke-width:2;stroke:#feffff"
       id="rect16" />
    <rect
       transform="rotate(45.285)"
       x="284.59"
       y="-57.767"
       width="4.8595"
       height="4.7327"
       ry="1.6698"
       style="fill:#414141;stroke-linecap:round;stroke-linejoin:round;stroke-width:1.2648;stroke:#feffff"
       id="rect18" />
    <path
       d="m243.04 163.26s1.7496-1.9216 5.6522-1.9216"
       style="fill:#414141;stroke-width:1.265;stroke:#feffff"
       id="path20" />
    <path
       d="m264.51 163.25s-2.6306-1.9869-5.9664-1.9869"
       style="fill:#414141;stroke-width:1.265;stroke:#feffff"
       id="path22" />
    <rect
       transform="rotate(45.285)"
       x="301.82"
       y="-75.165"
       width="4.8595"
       height="4.7327"
       ry="1.6698"
       style="fill:#414141;stroke-linecap:round;stroke-linejoin:round;stroke-width:1.2648;stroke:#feffff"
       id="rect24" />
    <rect
       x="255.46"
       y="167.69"
       width="7.684"
       height="7.4836"
       ry="2.0316"
       style="fill:#414141;stroke-linecap:round;stroke-linejoin:round;stroke-width:2;stroke:#feffff"
       id="rect26" />
    <g
       transform="matrix(.30133 0 0 .30133 235.34 128.1)"
       id="g38">
      <g
         transform="translate(-8.7921,17.566)"
         style="fill:#01c5ab"
         id="g30">
        <path
           d="m69.52-8.3299c-19.714 0.013506-37.184 12.631-43.298 31.271v-20.638h-0.0739c0.0039-0.062568 0.0063-0.12529 0.0072-0.18808-2.43e-4 -1.6033-0.95759-2.9029-2.1384-2.9027-1.1806 2.256e-4 -2.1376 1.2996-2.1378 2.9027 5.3e-5 0.062739 0.0016 0.12548 0.0047 0.18808h-0.07183v59.509h0.10284c-0.01903 0.18847-0.03488 0.37704-0.04754 0.5657 1.79e-4 15.634 21.374 28.308 47.739 28.308 26.365 1.4e-5 47.739-12.674 47.739-28.308-9e-3 -0.25578-0.0245-0.51147-0.0455-0.767h0.1323v-59.509h-0.0739c4e-3 -0.062568 6e-3 -0.12529 7e-3 -0.18808 5e-5 -1.6036-0.95738-2.9036-2.1384-2.9034-1.1808 2.295e-4 -2.1379 1.3001-2.1378 2.9034 5e-5 0.062739 2e-3 0.12546 5e-3 0.18808h-0.0718v21.533c-5.8896-18.986-23.525-31.944-43.502-31.965z"
           style="fill:#fff"
           id="path28" />
      </g>
      <path
         d="m34.613 50.687c-6.8628-1.17e-4 -12.426 7.9093-12.426 17.666-8.3e-5 9.7567 5.5633 17.666 12.426 17.666h52.434c6.8628 1.16e-4 12.426-7.9093 12.426-17.666 8.2e-5 -9.7567-5.5633-17.666-12.426-17.666z"
         style="fill:#414141;paint-order:normal"
         id="path32" />
      <ellipse
         cx="34.613"
         cy="68.353"
         rx="7.5642"
         ry="10.754"
         style="fill:#fff;paint-order:normal"
         id="ellipse34" />
      <ellipse
         cx="87.048"
         cy="68.353"
         rx="7.5642"
         ry="10.754"
         style="fill:#fff;paint-order:normal"
         id="ellipse36" />
    </g>
  </g>
  <g
     transform="matrix(.63565 0 0 .63565 93.933 85.361)"
     style="fill:#01dcc7"
     id="g78">
    <g
       style="fill:#01dcc7"
       aria-label="10011101"
       id="g58">
      <path
         d="m262.16 110.89h1.3332v-5.1211h-1.3126q-0.18087 0-0.31006-0.12403-0.12403-0.12919-0.12403-0.31005 0-0.18087 0.12403-0.30489 0.12919-0.1292 0.31006-0.1292h2.1807v5.9893h0.86817v-1.8087q0-0.1757 0.12402-0.30489 0.12919-0.12919 0.31006-0.12919t0.30489 0.12919q0.12919 0.12402 0.12919 0.30489v2.2428q0 0.18087-0.12919 0.31006-0.12402 0.12403-0.30489 0.12403h-3.5037q-0.18087 0-0.31006-0.12919-0.12403-0.13436-0.12403-0.31523 0-0.1757 0.12403-0.29972 0.12919-0.12403 0.31006-0.12403z"
         style="fill:#fff;stroke-width:.26458"
         id="path42" />
      <path
         d="m268.12 110.92v-5.1935q0-0.34107 0.24804-0.58911 0.24805-0.24805 0.58911-0.24805h2.7078q0.3359 0 0.57878 0.24805 0.24804 0.24804 0.24804 0.58911v5.1935q0 0.34623-0.24804 0.59428-0.24288 0.24288-0.58912 0.24288h-2.6975q-0.3514 0-0.59427-0.24288-0.24288-0.24805-0.24288-0.59428zm3.514-0.031v-5.1211h-2.6458v5.1211z"
         style="fill:#a974c2;stroke-width:.26458"
         id="path44" />
      <path
         d="m274.51 110.92v-5.1935q0-0.34107 0.24805-0.58911 0.24805-0.24805 0.58911-0.24805h2.7078q0.33589 0 0.57877 0.24805 0.24805 0.24804 0.24805 0.58911v5.1935q0 0.34623-0.24805 0.59428-0.24288 0.24288-0.58911 0.24288h-2.6975q-0.3514 0-0.59428-0.24288-0.24288-0.24805-0.24288-0.59428zm3.514-0.031v-5.1211h-2.6458v5.1211z"
         style="fill:#fff;stroke-width:.26458"
         id="path46" />
      <path
         d="m281.32 110.89h1.3332v-5.1211h-1.3126q-0.18087 0-0.31006-0.12403-0.12402-0.12919-0.12402-0.31005 0-0.18087 0.12402-0.30489 0.12919-0.1292 0.31006-0.1292h2.1807v5.9893h0.86817v-1.8087q0-0.1757 0.12402-0.30489 0.12919-0.12919 0.31006-0.12919t0.30489 0.12919q0.12919 0.12402 0.12919 0.30489v2.2428q0 0.18087-0.12919 0.31006-0.12402 0.12403-0.30489 0.12403h-3.5037q-0.18087 0-0.31006-0.12919-0.12402-0.13436-0.12402-0.31523 0-0.1757 0.12402-0.29972 0.12919-0.12403 0.31006-0.12403z"
         style="fill:#a974c2;stroke-width:.26458"
         id="path48" />
      <path
         d="m287.71 110.89h1.3333v-5.1211h-1.3126q-0.18086 0-0.31005-0.12403-0.12403-0.12919-0.12403-0.31005 0-0.18087 0.12403-0.30489 0.12919-0.1292 0.31005-0.1292h2.1808v5.9893h0.86816v-1.8087q0-0.1757 0.12403-0.30489 0.12919-0.12919 0.31006-0.12919 0.18086 0 0.30489 0.12919 0.12919 0.12402 0.12919 0.30489v2.2428q0 0.18087-0.12919 0.31006-0.12403 0.12403-0.30489 0.12403h-3.5037q-0.18086 0-0.31005-0.12919-0.12403-0.13436-0.12403-0.31523 0-0.1757 0.12403-0.29972 0.12919-0.12403 0.31005-0.12403z"
         style="fill:#a974c2;stroke-width:.26458"
         id="path50" />
      <path
         d="m294.09 110.89h1.3332v-5.1211h-1.3126q-0.18087 0-0.31006-0.12403-0.12402-0.12919-0.12402-0.31005 0-0.18087 0.12402-0.30489 0.12919-0.1292 0.31006-0.1292h2.1808v5.9893h0.86816v-1.8087q0-0.1757 0.12402-0.30489 0.1292-0.12919 0.31006-0.12919 0.18087 0 0.30489 0.12919 0.1292 0.12402 0.1292 0.30489v2.2428q0 0.18087-0.1292 0.31006-0.12402 0.12403-0.30489 0.12403h-3.5037q-0.18087 0-0.31006-0.12919-0.12402-0.13436-0.12402-0.31523 0-0.1757 0.12402-0.29972 0.12919-0.12403 0.31006-0.12403z"
         style="fill:#a974c2;stroke-width:.26458"
         id="path52" />
      <path
         d="m300.06 110.92v-5.1935q0-0.34107 0.24805-0.58911 0.24805-0.24805 0.58911-0.24805h2.7078q0.3359 0 0.57878 0.24805 0.24805 0.24804 0.24805 0.58911v5.1935q0 0.34623-0.24805 0.59428-0.24288 0.24288-0.58911 0.24288h-2.6975q-0.3514 0-0.59428-0.24288-0.24288-0.24805-0.24288-0.59428zm3.514-0.031v-5.1211h-2.6458v5.1211z"
         style="fill:#fff;stroke-width:.26458"
         id="path54" />
      <path
         d="m306.87 110.89h1.3332v-5.1211h-1.3126q-0.18087 0-0.31006-0.12403-0.12403-0.12919-0.12403-0.31005 0-0.18087 0.12403-0.30489 0.12919-0.1292 0.31006-0.1292h2.1807v5.9893h0.86817v-1.8087q0-0.1757 0.12402-0.30489 0.12919-0.12919 0.31006-0.12919 0.18086 0 0.30489 0.12919 0.12919 0.12402 0.12919 0.30489v2.2428q0 0.18087-0.12919 0.31006-0.12403 0.12403-0.30489 0.12403h-3.5037q-0.18087 0-0.31006-0.12919-0.12403-0.13436-0.12403-0.31523 0-0.1757 0.12403-0.29972 0.12919-0.12403 0.31006-0.12403z"
         style="fill:#fff;stroke-width:.26458"
         id="path56" />
    </g>
    <g
       transform="matrix(.26458 0 0 .26458 .069831 0)"
       style="fill:#01dcc7"
       aria-label="10101001"
       id="g76">
      <path
         d="m990.57 380.61h5.0391v-19.355h-4.9609q-0.68359 0-1.1719-0.46875-0.46875-0.48828-0.46875-1.1719 0-0.6836 0.46875-1.1524 0.48828-0.48828 1.1719-0.48828h8.2422v22.637h3.2813v-6.8359q0-0.66406 0.4687-1.1523 0.4883-0.48828 1.1719-0.48828t1.1523 0.48828q0.4883 0.46875 0.4883 1.1523v8.4766q0 0.68359-0.4883 1.1719-0.4687 0.46875-1.1523 0.46875h-13.242q-0.6836 0-1.1719-0.48828-0.46875-0.50781-0.46875-1.1914 0-0.66406 0.46875-1.1328 0.48828-0.46875 1.1719-0.46875z"
         style="fill:#a974c2"
         id="path60" />
      <path
         d="m1013.1 380.73v-19.629q0-1.2891 0.9375-2.2266t2.2265-0.9375h10.234q1.2695 0 2.1875 0.9375 0.9375 0.9375 0.9375 2.2266v19.629q0 1.3086-0.9375 2.2461-0.918 0.91797-2.2266 0.91797h-10.195q-1.3281 0-2.2461-0.91797-0.9179-0.9375-0.9179-2.2461zm13.281-0.11719v-19.355h-10v19.355z"
         style="fill:#fff"
         id="path62" />
      <path
         d="m1038.8 380.61h5.039v-19.355h-4.9609q-0.6836 0-1.1719-0.46875-0.4687-0.48828-0.4687-1.1719 0-0.6836 0.4687-1.1524 0.4883-0.48828 1.1719-0.48828h8.2422v22.637h3.2812v-6.8359q0-0.66406 0.4688-1.1523 0.4883-0.48828 1.1718-0.48828 0.6836 0 1.1524 0.48828 0.4883 0.46875 0.4883 1.1523v8.4766q0 0.68359-0.4883 1.1719-0.4688 0.46875-1.1524 0.46875h-13.242q-0.6836 0-1.1719-0.48828-0.4688-0.50781-0.4688-1.1914 0-0.66406 0.4688-1.1328 0.4883-0.46875 1.1719-0.46875z"
         style="fill:#a974c2"
         id="path64" />
      <path
         d="m1061.4 380.73v-19.629q0-1.2891 0.9375-2.2266t2.2266-0.9375h10.234q1.2695 0 2.1875 0.9375 0.9375 0.9375 0.9375 2.2266v19.629q0 1.3086-0.9375 2.2461-0.918 0.91797-2.2266 0.91797h-10.195q-1.3281 0-2.2461-0.91797-0.918-0.9375-0.918-2.2461zm13.281-0.11719v-19.355h-10v19.355z"
         style="fill:#a974c2"
         id="path66" />
      <path
         d="m1087.1 380.61h5.0391v-19.355h-4.961q-0.6836 0-1.1718-0.46875-0.4688-0.48828-0.4688-1.1719 0-0.6836 0.4688-1.1524 0.4882-0.48828 1.1718-0.48828h8.2422v22.637h3.2813v-6.8359q0-0.66406 0.4687-1.1523 0.4883-0.48828 1.1719-0.48828t1.1523 0.48828q0.4883 0.46875 0.4883 1.1523v8.4766q0 0.68359-0.4883 1.1719-0.4687 0.46875-1.1523 0.46875h-13.242q-0.6836 0-1.1719-0.48828-0.4687-0.50781-0.4687-1.1914 0-0.66406 0.4687-1.1328 0.4883-0.46875 1.1719-0.46875z"
         style="fill:#fff"
         id="path68" />
      <path
         d="m1109.7 380.73v-19.629q0-1.2891 0.9375-2.2266t2.2265-0.9375h10.234q1.2695 0 2.1875 0.9375 0.9375 0.9375 0.9375 2.2266v19.629q0 1.3086-0.9375 2.2461-0.918 0.91797-2.2266 0.91797h-10.195q-1.3281 0-2.2461-0.91797-0.9179-0.9375-0.9179-2.2461zm13.281-0.11719v-19.355h-10v19.355z"
         style="fill:#a974c2"
         id="path70" />
      <path
         d="m1133.8 380.73v-19.629q0-1.2891 0.9375-2.2266t2.2266-0.9375h10.234q1.2696 0 2.1875 0.9375 0.9375 0.9375 0.9375 2.2266v19.629q0 1.3086-0.9375 2.2461-0.9179 0.91797-2.2265 0.91797h-10.195q-1.3282 0-2.2461-0.91797-0.918-0.9375-0.918-2.2461zm13.281-0.11719v-19.355h-10v19.355z"
         style="fill:#a974c2"
         id="path72" />
      <path
         d="m1159.6 380.61h5.039v-19.355h-4.9609q-0.6836 0-1.1719-0.46875-0.4687-0.48828-0.4687-1.1719 0-0.6836 0.4687-1.1524 0.4883-0.48828 1.1719-0.48828h8.2422v22.637h3.2812v-6.8359q0-0.66406 0.4688-1.1523 0.4883-0.48828 1.1719-0.48828t1.1523 0.48828q0.4883 0.46875 0.4883 1.1523v8.4766q0 0.68359-0.4883 1.1719-0.4687 0.46875-1.1523 0.46875h-13.242q-0.6836 0-1.1719-0.48828-0.4687-0.50781-0.4687-1.1914 0-0.66406 0.4687-1.1328 0.4883-0.46875 1.1719-0.46875z"
         style="fill:#fff"
         id="path74" />
    </g>
  </g>
  <g
     transform="matrix(.14364 -.12165 .12165 .14364 295.11 150.71)"
     id="g90">
    <g
       transform="translate(-8.7921,17.566)"
       style="fill:#01c5ab"
       id="g82">
      <path
         d="m69.52-8.3299c-19.714 0.013506-37.184 12.631-43.298 31.271v-20.638h-0.0739c0.0039-0.062568 0.0063-0.12529 0.0072-0.18808-2.43e-4 -1.6033-0.95759-2.9029-2.1384-2.9027-1.1806 2.256e-4 -2.1376 1.2996-2.1378 2.9027 5.3e-5 0.062739 0.0016 0.12548 0.0047 0.18808h-0.07183v59.509h0.10284c-0.01903 0.18847-0.03488 0.37704-0.04754 0.5657 1.79e-4 15.634 21.374 28.308 47.739 28.308 26.365 1.4e-5 47.739-12.674 47.739-28.308-9e-3 -0.25578-0.0245-0.51147-0.0455-0.767h0.1323v-59.509h-0.0739c4e-3 -0.062568 6e-3 -0.12529 7e-3 -0.18808 5e-5 -1.6036-0.95738-2.9036-2.1384-2.9034-1.1808 2.295e-4 -2.1379 1.3001-2.1378 2.9034 5e-5 0.062739 2e-3 0.12546 5e-3 0.18808h-0.0718v21.533c-5.8896-18.986-23.525-31.944-43.502-31.965z"
         style="fill:#fff"
         id="path80" />
    </g>
    <path
       d="m34.613 50.687c-6.8628-1.17e-4 -12.426 7.9093-12.426 17.666-8.3e-5 9.7567 5.5633 17.666 12.426 17.666h52.434c6.8628 1.16e-4 12.426-7.9093 12.426-17.666 8.2e-5 -9.7567-5.5633-17.666-12.426-17.666z"
       style="fill:#414141;paint-order:normal"
       id="path84" />
    <ellipse
       cx="34.613"
       cy="68.353"
       rx="7.5642"
       ry="10.754"
       style="fill:#fff;paint-order:normal"
       id="ellipse86" />
    <ellipse
       cx="87.048"
       cy="68.353"
       rx="7.5642"
       ry="10.754"
       style="fill:#fff;paint-order:normal"
       id="ellipse88" />
  </g>
  <g
     transform="matrix(.3577 .47645 -.47645 .3577 313.75 -85.381)"
     id="g96">
    <rect
       x="372"
       y="146.41"
       width="8.8735"
       height="8.6421"
       ry="2.3461"
       style="fill:#414141;stroke-linecap:round;stroke-linejoin:round;stroke-width:2.3096;stroke:#feffff"
       id="rect92" />
    <rect
       x="384.98"
       y="146.41"
       width="8.8735"
       height="8.6421"
       ry="2.3461"
       style="fill:#414141;stroke-linecap:round;stroke-linejoin:round;stroke-width:2.3096;stroke:#feffff"
       id="rect94" />
  </g>
  <g
     transform="matrix(.60437 .28281 -.28281 .60437 84.723 -32.544)"
     id="g108">
    <rect
       x="324.46"
       y="142.16"
       width="10.171"
       height="14.853"
       ry="2.9326"
       style="fill:#414141;stroke-linecap:round;stroke-linejoin:round;stroke-width:1.9464;stroke:#feffff"
       id="rect98" />
    <rect
       transform="rotate(45.285)"
       x="325.28"
       y="-121.63"
       width="5.6118"
       height="5.4653"
       ry="1.9283"
       style="fill:#414141;stroke-linecap:round;stroke-linejoin:round;stroke-width:1.4606;stroke:#feffff"
       id="rect100" />
    <path
       d="m317.32 147.5s2.0204-2.2191 6.5272-2.2191"
       style="fill:#414141;stroke-width:1.4608;stroke:#feffff"
       id="path102" />
    <path
       d="m342.12 147.49s-3.0378-2.2945-6.89-2.2945"
       style="fill:#414141;stroke-width:1.4608;stroke:#feffff"
       id="path104" />
    <rect
       transform="rotate(45.285)"
       x="345.18"
       y="-141.72"
       width="5.6118"
       height="5.4653"
       ry="1.9283"
       style="fill:#414141;stroke-linecap:round;stroke-linejoin:round;stroke-width:1.4606;stroke:#feffff"
       id="rect106" />
  </g>
  <g
     transform="matrix(.63565 0 0 .63565 162.61 85.361)"
     style="fill:#01dcc7"
     id="g146">
    <g
       style="fill:#01dcc7"
       aria-label="10011101"
       id="g126">
      <path
         d="m262.16 110.89h1.3332v-5.1211h-1.3126q-0.18087 0-0.31006-0.12403-0.12403-0.12919-0.12403-0.31005 0-0.18087 0.12403-0.30489 0.12919-0.1292 0.31006-0.1292h2.1807v5.9893h0.86817v-1.8087q0-0.1757 0.12402-0.30489 0.12919-0.12919 0.31006-0.12919t0.30489 0.12919q0.12919 0.12402 0.12919 0.30489v2.2428q0 0.18087-0.12919 0.31006-0.12402 0.12403-0.30489 0.12403h-3.5037q-0.18087 0-0.31006-0.12919-0.12403-0.13436-0.12403-0.31523 0-0.1757 0.12403-0.29972 0.12919-0.12403 0.31006-0.12403z"
         style="fill:#fff;stroke-width:.26458"
         id="path110" />
      <path
         d="m268.12 110.92v-5.1935q0-0.34107 0.24804-0.58911 0.24805-0.24805 0.58911-0.24805h2.7078q0.3359 0 0.57878 0.24805 0.24804 0.24804 0.24804 0.58911v5.1935q0 0.34623-0.24804 0.59428-0.24288 0.24288-0.58912 0.24288h-2.6975q-0.3514 0-0.59427-0.24288-0.24288-0.24805-0.24288-0.59428zm3.514-0.031v-5.1211h-2.6458v5.1211z"
         style="fill:#a974c2;stroke-width:.26458"
         id="path112" />
      <path
         d="m274.51 110.92v-5.1935q0-0.34107 0.24805-0.58911 0.24805-0.24805 0.58911-0.24805h2.7078q0.33589 0 0.57877 0.24805 0.24805 0.24804 0.24805 0.58911v5.1935q0 0.34623-0.24805 0.59428-0.24288 0.24288-0.58911 0.24288h-2.6975q-0.3514 0-0.59428-0.24288-0.24288-0.24805-0.24288-0.59428zm3.514-0.031v-5.1211h-2.6458v5.1211z"
         style="fill:#fff;stroke-width:.26458"
         id="path114" />
      <path
         d="m281.32 110.89h1.3332v-5.1211h-1.3126q-0.18087 0-0.31006-0.12403-0.12402-0.12919-0.12402-0.31005 0-0.18087 0.12402-0.30489 0.12919-0.1292 0.31006-0.1292h2.1807v5.9893h0.86817v-1.8087q0-0.1757 0.12402-0.30489 0.12919-0.12919 0.31006-0.12919t0.30489 0.12919q0.12919 0.12402 0.12919 0.30489v2.2428q0 0.18087-0.12919 0.31006-0.12402 0.12403-0.30489 0.12403h-3.5037q-0.18087 0-0.31006-0.12919-0.12402-0.13436-0.12402-0.31523 0-0.1757 0.12402-0.29972 0.12919-0.12403 0.31006-0.12403z"
         style="fill:#a974c2;stroke-width:.26458"
         id="path116" />
      <path
         d="m287.71 110.89h1.3333v-5.1211h-1.3126q-0.18086 0-0.31005-0.12403-0.12403-0.12919-0.12403-0.31005 0-0.18087 0.12403-0.30489 0.12919-0.1292 0.31005-0.1292h2.1808v5.9893h0.86816v-1.8087q0-0.1757 0.12403-0.30489 0.12919-0.12919 0.31006-0.12919 0.18086 0 0.30489 0.12919 0.12919 0.12402 0.12919 0.30489v2.2428q0 0.18087-0.12919 0.31006-0.12403 0.12403-0.30489 0.12403h-3.5037q-0.18086 0-0.31005-0.12919-0.12403-0.13436-0.12403-0.31523 0-0.1757 0.12403-0.29972 0.12919-0.12403 0.31005-0.12403z"
         style="fill:#a974c2;stroke-width:.26458"
         id="path118" />
      <path
         d="m294.09 110.89h1.3332v-5.1211h-1.3126q-0.18087 0-0.31006-0.12403-0.12402-0.12919-0.12402-0.31005 0-0.18087 0.12402-0.30489 0.12919-0.1292 0.31006-0.1292h2.1808v5.9893h0.86816v-1.8087q0-0.1757 0.12402-0.30489 0.1292-0.12919 0.31006-0.12919 0.18087 0 0.30489 0.12919 0.1292 0.12402 0.1292 0.30489v2.2428q0 0.18087-0.1292 0.31006-0.12402 0.12403-0.30489 0.12403h-3.5037q-0.18087 0-0.31006-0.12919-0.12402-0.13436-0.12402-0.31523 0-0.1757 0.12402-0.29972 0.12919-0.12403 0.31006-0.12403z"
         style="fill:#a974c2;stroke-width:.26458"
         id="path120" />
      <path
         d="m300.06 110.92v-5.1935q0-0.34107 0.24805-0.58911 0.24805-0.24805 0.58911-0.24805h2.7078q0.3359 0 0.57878 0.24805 0.24805 0.24804 0.24805 0.58911v5.1935q0 0.34623-0.24805 0.59428-0.24288 0.24288-0.58911 0.24288h-2.6975q-0.3514 0-0.59428-0.24288-0.24288-0.24805-0.24288-0.59428zm3.514-0.031v-5.1211h-2.6458v5.1211z"
         style="fill:#fff;stroke-width:.26458"
         id="path122" />
      <path
         d="m306.87 110.89h1.3332v-5.1211h-1.3126q-0.18087 0-0.31006-0.12403-0.12403-0.12919-0.12403-0.31005 0-0.18087 0.12403-0.30489 0.12919-0.1292 0.31006-0.1292h2.1807v5.9893h0.86817v-1.8087q0-0.1757 0.12402-0.30489 0.12919-0.12919 0.31006-0.12919 0.18086 0 0.30489 0.12919 0.12919 0.12402 0.12919 0.30489v2.2428q0 0.18087-0.12919 0.31006-0.12403 0.12403-0.30489 0.12403h-3.5037q-0.18087 0-0.31006-0.12919-0.12403-0.13436-0.12403-0.31523 0-0.1757 0.12403-0.29972 0.12919-0.12403 0.31006-0.12403z"
         style="fill:#fff;stroke-width:.26458"
         id="path124" />
    </g>
    <g
       transform="matrix(.26458 0 0 .26458 .069831 0)"
       style="fill:#01dcc7"
       aria-label="10101001"
       id="g144">
      <path
         d="m990.57 380.61h5.0391v-19.355h-4.9609q-0.68359 0-1.1719-0.46875-0.46875-0.48828-0.46875-1.1719 0-0.6836 0.46875-1.1524 0.48828-0.48828 1.1719-0.48828h8.2422v22.637h3.2813v-6.8359q0-0.66406 0.4687-1.1523 0.4883-0.48828 1.1719-0.48828t1.1523 0.48828q0.4883 0.46875 0.4883 1.1523v8.4766q0 0.68359-0.4883 1.1719-0.4687 0.46875-1.1523 0.46875h-13.242q-0.6836 0-1.1719-0.48828-0.46875-0.50781-0.46875-1.1914 0-0.66406 0.46875-1.1328 0.48828-0.46875 1.1719-0.46875z"
         style="fill:#a974c2"
         id="path128" />
      <path
         d="m1013.1 380.73v-19.629q0-1.2891 0.9375-2.2266t2.2265-0.9375h10.234q1.2695 0 2.1875 0.9375 0.9375 0.9375 0.9375 2.2266v19.629q0 1.3086-0.9375 2.2461-0.918 0.91797-2.2266 0.91797h-10.195q-1.3281 0-2.2461-0.91797-0.9179-0.9375-0.9179-2.2461zm13.281-0.11719v-19.355h-10v19.355z"
         style="fill:#fff"
         id="path130" />
      <path
         d="m1038.8 380.61h5.039v-19.355h-4.9609q-0.6836 0-1.1719-0.46875-0.4687-0.48828-0.4687-1.1719 0-0.6836 0.4687-1.1524 0.4883-0.48828 1.1719-0.48828h8.2422v22.637h3.2812v-6.8359q0-0.66406 0.4688-1.1523 0.4883-0.48828 1.1718-0.48828 0.6836 0 1.1524 0.48828 0.4883 0.46875 0.4883 1.1523v8.4766q0 0.68359-0.4883 1.1719-0.4688 0.46875-1.1524 0.46875h-13.242q-0.6836 0-1.1719-0.48828-0.4688-0.50781-0.4688-1.1914 0-0.66406 0.4688-1.1328 0.4883-0.46875 1.1719-0.46875z"
         style="fill:#a974c2"
         id="path132" />
      <path
         d="m1061.4 380.73v-19.629q0-1.2891 0.9375-2.2266t2.2266-0.9375h10.234q1.2695 0 2.1875 0.9375 0.9375 0.9375 0.9375 2.2266v19.629q0 1.3086-0.9375 2.2461-0.918 0.91797-2.2266 0.91797h-10.195q-1.3281 0-2.2461-0.91797-0.918-0.9375-0.918-2.2461zm13.281-0.11719v-19.355h-10v19.355z"
         style="fill:#a974c2"
         id="path134" />
      <path
         d="m1087.1 380.61h5.0391v-19.355h-4.961q-0.6836 0-1.1718-0.46875-0.4688-0.48828-0.4688-1.1719 0-0.6836 0.4688-1.1524 0.4882-0.48828 1.1718-0.48828h8.2422v22.637h3.2813v-6.8359q0-0.66406 0.4687-1.1523 0.4883-0.48828 1.1719-0.48828t1.1523 0.48828q0.4883 0.46875 0.4883 1.1523v8.4766q0 0.68359-0.4883 1.1719-0.4687 0.46875-1.1523 0.46875h-13.242q-0.6836 0-1.1719-0.48828-0.4687-0.50781-0.4687-1.1914 0-0.66406 0.4687-1.1328 0.4883-0.46875 1.1719-0.46875z"
         style="fill:#fff"
         id="path136" />
      <path
         d="m1109.7 380.73v-19.629q0-1.2891 0.9375-2.2266t2.2265-0.9375h10.234q1.2695 0 2.1875 0.9375 0.9375 0.9375 0.9375 2.2266v19.629q0 1.3086-0.9375 2.2461-0.918 0.91797-2.2266 0.91797h-10.195q-1.3281 0-2.2461-0.91797-0.9179-0.9375-0.9179-2.2461zm13.281-0.11719v-19.355h-10v19.355z"
         style="fill:#a974c2"
         id="path138" />
      <path
         d="m1133.8 380.73v-19.629q0-1.2891 0.9375-2.2266t2.2266-0.9375h10.234q1.2696 0 2.1875 0.9375 0.9375 0.9375 0.9375 2.2266v19.629q0 1.3086-0.9375 2.2461-0.9179 0.91797-2.2265 0.91797h-10.195q-1.3282 0-2.2461-0.91797-0.918-0.9375-0.918-2.2461zm13.281-0.11719v-19.355h-10v19.355z"
         style="fill:#a974c2"
         id="path140" />
      <path
         d="m1159.6 380.61h5.039v-19.355h-4.9609q-0.6836 0-1.1719-0.46875-0.4687-0.48828-0.4687-1.1719 0-0.6836 0.4687-1.1524 0.4883-0.48828 1.1719-0.48828h8.2422v22.637h3.2812v-6.8359q0-0.66406 0.4688-1.1523 0.4883-0.48828 1.1719-0.48828t1.1523 0.48828q0.4883 0.46875 0.4883 1.1523v8.4766q0 0.68359-0.4883 1.1719-0.4687 0.46875-1.1523 0.46875h-13.242q-0.6836 0-1.1719-0.48828-0.4687-0.50781-0.4687-1.1914 0-0.66406 0.4687-1.1328 0.4883-0.46875 1.1719-0.46875z"
         style="fill:#fff"
         id="path142" />
    </g>
  </g>
  <rect
     x="92.059"
     y="190.91"
     width="65.646"
     height="8.5376"
     ry=".63241"
     style="fill:#a974c2;paint-order:normal;stroke-width:.99032;stroke:#803b9c"
     id="rect148" />
  <g
     transform="translate(.37418 -1.4688)"
     id="g154">
    <circle
       transform="scale(-1,1)"
       cx="-152.76"
       cy="163.55"
       r="3.4585"
       style="fill:#68217a;paint-order:normal"
       id="circle150" />
    <path
       d="m145.59 151.92v12.113l2.4451 2.9786h-36.256v-15.092z"
       style="fill:#68217a;paint-order:normal;stroke-width:.78768;stroke:#803b9c"
       id="path152" />
  </g>
  <g
     transform="translate(.37418 -1.3892)"
     id="g160">
    <circle
       transform="scale(-1,1)"
       cx="-152.76"
       cy="124.29"
       r="3.4585"
       style="fill:#68217a;paint-order:normal"
       id="circle156" />
    <path
       d="m145.59 112.65v12.113l2.4451 2.9786h-36.256v-15.092z"
       style="fill:#68217a;paint-order:normal;stroke-width:.78768;stroke:#803b9c"
       id="path158" />
  </g>
  <g
     transform="translate(.37418 -1.3096)"
     id="g166">
    <circle
       transform="scale(-1,1)"
       cx="-152.76"
       cy="85.02"
       r="3.4585"
       style="fill:#68217a;paint-order:normal"
       id="circle162" />
    <path
       d="m145.59 73.386v12.113l2.4451 2.9786h-36.256v-15.092z"
       style="fill:#68217a;paint-order:normal;stroke-width:.78768;stroke:#803b9c"
       id="path164" />
  </g>
  <g
     id="logo-extra-whitespace"
     transform="matrix(.058094 0 0 .058094 479.05 201.32)"
     style="fill-rule:evenodd;fill:none">
    <g
       transform="matrix(.73341 0 0 .73341 74.162 41.22)"
       style="fill:#b77bcd"
       id="g172">
      <g
         style="fill:#b77bcd"
         id="g170">
        <path
           d="m409.13 114.57c-19.608-33.596-46.205-60.194-79.798-79.8-33.598-19.607-70.277-29.408-110.06-29.408-39.781 0-76.472 9.804-110.06 29.408-33.596 19.605-60.192 46.204-79.8 79.8-19.605 33.595-29.408 70.281-29.408 110.06 0 47.78 13.94 90.745 41.827 128.91 27.884 38.164 63.906 64.572 108.06 79.227 5.14 0.954 8.945 0.283 11.419-1.996 2.475-2.282 3.711-5.14 3.711-8.562 0-0.571-0.049-5.708-0.144-15.417-0.098-9.709-0.144-18.179-0.144-25.406l-6.567 1.136c-4.187 0.767-9.469 1.092-15.846 1-6.374-0.089-12.991-0.757-19.842-1.999-6.854-1.231-13.229-4.086-19.13-8.559-5.898-4.473-10.085-10.328-12.56-17.556l-2.855-6.57c-1.903-4.374-4.899-9.233-8.992-14.559-4.093-5.331-8.232-8.945-12.419-10.848l-1.999-1.431c-1.332-0.951-2.568-2.098-3.711-3.429-1.142-1.331-1.997-2.663-2.568-3.997-0.572-1.335-0.098-2.43 1.427-3.289s4.281-1.276 8.28-1.276l5.708 0.853c3.807 0.763 8.516 3.042 14.133 6.851 5.614 3.806 10.229 8.754 13.846 14.842 4.38 7.806 9.657 13.754 15.846 17.847 6.184 4.093 12.419 6.136 18.699 6.136s11.704-0.476 16.274-1.423c4.565-0.952 8.848-2.383 12.847-4.285 1.713-12.758 6.377-22.559 13.988-29.41-10.848-1.14-20.601-2.857-29.264-5.14-8.658-2.286-17.605-5.996-26.835-11.14-9.235-5.137-16.896-11.516-22.985-19.126-6.09-7.614-11.088-17.61-14.987-29.979-3.901-12.374-5.852-26.648-5.852-42.826 0-23.035 7.52-42.637 22.557-58.817-7.044-17.318-6.379-36.732 1.997-58.24 5.52-1.715 13.706-0.428 24.554 3.853 10.85 4.283 18.794 7.952 23.84 10.994 5.046 3.041 9.089 5.618 12.135 7.708 17.705-4.947 35.976-7.421 54.818-7.421s37.117 2.474 54.823 7.421l10.849-6.849c7.419-4.57 16.18-8.758 26.262-12.565 10.088-3.805 17.802-4.853 23.134-3.138 8.562 21.509 9.325 40.922 2.279 58.24 15.036 16.18 22.559 35.787 22.559 58.817 0 16.178-1.958 30.497-5.853 42.966-3.9 12.471-8.941 22.457-15.125 29.979-6.191 7.521-13.901 13.85-23.131 18.986-9.232 5.14-18.182 8.85-26.84 11.136-8.662 2.286-18.415 4.004-29.263 5.146 9.894 8.562 14.842 22.077 14.842 40.539v60.237c0 3.422 1.19 6.279 3.572 8.562 2.379 2.279 6.136 2.95 11.276 1.995 44.163-14.653 80.185-41.062 108.07-79.226 27.88-38.161 41.825-81.126 41.825-128.91-0.01-39.771-9.818-76.454-29.414-110.05z"
           style="fill:#b77bcd"
           id="path168" />
      </g>
    </g>
  </g>
  <path
     d="m274.48 83.04-3.0626 10.85 27.923 21.01z"
     style="fill:none"
     id="path175" />
  <g
     transform="matrix(.30906 0 0 .30906 381.31 84.968)"
     id="g191">
    <path
       d="m360.43 113.97-10.352-31.86h20.704z"
       style="fill:#b77bcd;fill-opacity:1"
       id="path177" />
    <path
       d="m360.43 113.97 10.352-31.86 14.508 9.2e-5z"
       style="fill:#803b9c;fill-opacity:1"
       id="path179" />
    <path
       d="m335.57 82.105 14.508 4.5e-5 10.352 31.86z"
       style="fill:#803b9c;fill-opacity:1"
       id="path181" />
    <path
       d="m378.04 62.173a1.105 1.105 0 0 0-1.0904 0.93534l-5e-3 0.0078-6.1681 18.989h14.509l-6.1428-18.899a1.105 1.105 0 0 0-1.1022-1.033z"
       style="fill:#b77bcd;paint-order:normal;stroke-width:0;fill-opacity:1"
       id="path183" />
    <path
       d="m342.83 62.173a1.105 1.105 0 0 0-1.0904 0.93534l-5e-3 0.0078-6.1681 18.989h14.509l-6.1428-18.899a1.105 1.105 0 0 0-1.1023-1.0331z"
       style="fill:#b77bcd;paint-order:normal;stroke-width:0;fill-opacity:1"
       id="path185" />
    <path
       d="m360.43 113.97 27.335-19.858s1.3294-0.90598 0.49031-2.9072l-2.965-9.0947-24.861 31.86"
       style="fill:#a974c2;fill-opacity:1"
       id="path187" />
    <path
       d="m360.43 113.97-27.335-19.858s-1.3294-0.90598-0.49031-2.9072l2.965-9.0947 24.861 31.86"
       style="fill:#a974c2;fill-opacity:1"
       id="path189" />
  </g>
  <g
     transform="matrix(.15948 0 0 .15948 483.61 63.557)"
     style="fill-rule:evenodd;fill:none"
     id="g195">
    <path
       d="m111.78 51.977-49.745-49.739c-2.8622-2.8648-7.5082-2.8648-10.374 0l-10.329 10.33 13.102 13.102c3.0459-1.0284 6.5371-0.33888 8.9639 2.0884 2.4394 2.4424 3.124 5.9634 2.0698 9.0195l12.628 12.628c3.0551-1.0528 6.58-0.37262 9.0195 2.0712 3.4106 3.4096 3.4106 8.9345 0 12.345-3.4111 3.4116-8.936 3.4116-12.349 0-2.5645-2.5665-3.1988-6.3345-1.8999-9.4942l-11.777-11.777-1e-3 30.991c0.8315 0.41162 1.6162 0.961 2.3091 1.6509 3.4096 3.4092 3.4096 8.9331 0 12.348-3.4106 3.4091-8.938 3.4091-12.345 0-3.4101-3.4146-3.4101-8.9385 0-12.348 0.84275-0.84125 1.8179-1.478 2.8584-1.9048v-31.279c-1.041-0.425-2.015-1.057-2.859-1.905-2.583-2.581-3.2051-6.372-1.8804-9.5439l-12.916-12.918-34.106 34.105c-2.8657 2.867-2.8657 7.513 0 10.378l49.742 49.739c2.8638 2.8648 7.5082 2.8648 10.376 0l49.512-49.504c2.8648-2.8662 2.8648-7.5136 0-10.379"
       style="fill:#b77bcd"
       id="path193" />
  </g>
  <g
     transform="matrix(.81417 0 0 .81417 -152.79 -16.426)"
     id="g203">
    <path
       d="m267.17 243.3c1.6471-1.1886 3.9764-1.2906 5.7305-0.27384 1.9777-0.34271 4.0688-0.017 5.8334 0.94468 1.9696 1.0581 3.5162 2.8754 4.2365 4.9932 0.49502 1.4332 0.61007 2.9912 0.35243 4.4844 0.63357 1.114 0.85313 2.4549 0.5963 3.7115-0.27141 1.3862-1.1262 2.6428-2.3082 3.415-1.6366 1.1002-3.8849 1.1626-5.5895 0.17581-1.8983 0.32651-3.9003 0.0437-5.6179-0.83287-1.9963-1.003-3.5883-2.7773-4.3669-4.8717-0.5639-1.4964-0.70568-3.1427-0.43751-4.7177-0.64734-1.1335-0.85718-2.5035-0.5809-3.7787 0.27384-1.3028 1.0622-2.4865 2.1519-3.2497z"
       style="fill:#b77bcd;stroke-width:.081019"
       id="path197" />
    <path
       d="m268.06 244.35c1.0006-0.67165 2.3131-0.83936 3.453-0.45128 0.4051 0.12882 0.76968 0.35162 1.1359 0.56146 1.4292-0.31192 2.9458-0.26655 4.3288 0.22848 2.2013 0.76077 3.9983 2.5861 4.721 4.8004 0.45857 1.3498 0.48935 2.8195 0.18715 4.2073 0.35649 0.58415 0.66355 1.2161 0.73566 1.9048 0.17662 1.2971-0.35163 2.6566-1.3457 3.5057-0.97061 0.85556-2.3722 1.1813-3.6216 0.84017-0.49827-0.12072-0.94468-0.37917-1.3838-0.63438-1.5053 0.32974-3.1079 0.25683-4.5476-0.3095-2.1251-0.80938-3.8371-2.6177-4.5233-4.7858-0.43993-1.3328-0.46181-2.7765-0.16447-4.1425-0.45938-0.71621-0.78426-1.541-0.76806-2.4038-0.0122-1.3158 0.69109-2.6048 1.793-3.321z"
       style="fill:#68217a;stroke-width:.081019"
       id="path199" />
    <path
       d="m273.28 246.44c1.2955-0.19607 2.6607 2e-3 3.8168 0.62952 0.50556 0.28032 0.99491 0.65949 1.2299 1.2039 0.15312 0.3581 0.17014 0.82558-0.11262 1.1254-0.30625 0.31354-0.80614 0.40996-1.2169 0.2779-0.47558-0.19931-0.71216-0.69758-1.1156-0.99411-0.50717-0.41805-1.1902-0.53067-1.8294-0.51933-0.46748 0.0203-0.96818 0.12639-1.3093 0.46991-0.31516 0.33623-0.43183 0.91228-0.12477 1.2906 0.29005 0.33461 0.73808 0.45938 1.1488 0.57362 0.78345 0.19607 1.5758 0.35405 2.3625 0.53959 0.81829 0.18715 1.6447 0.54525 2.1851 1.212 0.93171 1.2072 0.72187 3.1217-0.4367 4.1101-0.92685 0.82073-2.2159 1.0476-3.4166 1.0549-1.2817-0.0186-2.6518-0.28113-3.6369-1.1578-0.49422-0.4456-0.90984-1.1181-0.76077-1.8059 0.16285-0.6838 1.1019-0.94306 1.6342-0.52258 0.40672 0.32651 0.62709 0.82316 1.0192 1.1642 0.4691 0.43021 1.1229 0.60116 1.7484 0.58576 0.61332 0.0162 1.2647-0.17176 1.6852-0.63843 0.286-0.31516 0.4375-0.79479 0.25197-1.1983-0.15232-0.37917-0.54364-0.58576-0.91795-0.68785-0.69028-0.18067-1.3854-0.34514-2.0757-0.52743-0.75834-0.18553-1.5467-0.35486-2.1989-0.80695-0.5088-0.33785-0.89445-0.86528-1.0184-1.4664-0.20822-0.94307-0.0591-2.0312 0.62628-2.7514 0.62708-0.69757 1.5572-1.0216 2.4622-1.161z"
       style="fill:#b77bcd;stroke-width:.081019"
       id="path201" />
  </g>
  <g
     transform="matrix(.39706 0 0 .39706 -101.73 34.564)"
     style="fill:#68217a;stroke-width:1.7218;stroke:#b77bcd"
     id="g221">
    <rect
       x="415.4"
       y="165.18"
       width="37.609"
       height="30.711"
       style="fill:#68217a;stroke-linecap:round;stroke-width:1.7218;stroke:#b77bcd"
       id="rect205" />
    <rect
       x="448.91"
       y="165.18"
       width="4.0919"
       height="4.0919"
       style="fill:#68217a;stroke-linecap:round;stroke-width:1.7218;stroke:#b77bcd"
       id="rect207" />
    <rect
       x="444.82"
       y="165.18"
       width="4.0919"
       height="4.0919"
       style="fill:#68217a;stroke-linecap:round;stroke-width:1.7218;stroke:#b77bcd"
       id="rect209" />
    <rect
       x="440.73"
       y="165.18"
       width="4.0919"
       height="4.0919"
       style="fill:#68217a;stroke-linecap:round;stroke-width:1.7218;stroke:#b77bcd"
       id="rect211" />
    <rect
       x="415.4"
       y="165.18"
       width="25.333"
       height="4.0919"
       style="fill:#68217a;stroke-linecap:round;stroke-width:1.7218;stroke:#b77bcd"
       id="rect213" />
    <circle
       cx="424.21"
       cy="182.86"
       r="2.1883"
       style="fill:#68217a;stroke-linecap:round;stroke-width:1.7218;stroke:#b77bcd"
       id="circle215" />
    <circle
       cx="434.19"
       cy="182.86"
       r="2.1883"
       style="fill:#68217a;stroke-linecap:round;stroke-width:1.7218;stroke:#b77bcd"
       id="circle217" />
    <circle
       cx="444.17"
       cy="182.86"
       r="2.1883"
       style="fill:#68217a;stroke-linecap:round;stroke-width:1.7218;stroke:#b77bcd"
       id="circle219" />
  </g>
  <g
     transform="matrix(.074608 0 0 .074608 62.315 70.359)"
     id="g227">
    <path
       d="m41.255 185.52v40.2l37.589-21.37c10.478 3.02 21.616 4.65 33.156 4.65 61.86 0 112-46.79 112-104.5 0-57.714-50.14-104.5-112-104.5-61.856 0-112 46.786-112 104.5 0 32.68 16.078 61.86 41.255 81.02z"
       style="fill:#ae71c3"
       id="path223" />
    <path
       d="m100.04 75.878-60.401 63.952 54.97-30.16 28.721 30.16 60.06-63.952-54.36 29.632z"
       style="fill:#68217a"
       id="path225" />
  </g>
  <g
     transform="matrix(.35889 0 0 .46405 -21.232 139.22)"
     style="stroke-width:2.2771"
     id="g233">
    <rect
       x="235.48"
       y="34.963"
       width="41.199"
       height="24.757"
       style="fill:#68217a;stroke-linecap:round;stroke-width:2.2771;stroke:#b77bcd"
       id="rect229" />
    <path
       d="m276.68 34.963-20.789 10.394-20.411-10.394"
       style="fill:none;stroke-width:2.2771;stroke:#b77bcd"
       id="path231" />
  </g>
  <g
     transform="matrix(.12548 0 0 .12548 53.443 116.69)"
     id="g241">
    <rect
       class="st0"
       transform="matrix(.9482 -.3176 .3176 .9482 -36.02 50.637)"
       x="128.5"
       y="127.3"
       width="17.6"
       height="17"
       style="fill:#fff"
       id="rect235" />
    <rect
       class="st0"
       transform="matrix(.9482 -.3176 .3176 .9482 -36.02 50.637)"
       x="128.5"
       y="127.3"
       width="17.6"
       height="17"
       style="fill:#b77bcd"
       id="rect237" />
    <path
       class="st0"
       d="m194.6 118.5c-12.9-43-31.5-53-74.5-40.1s-53 31.5-40.1 74.5 31.5 53 74.5 40.1 53-31.5 40.1-74.5zm-21.7 27.9-8.1 2.7 2.8 8.4c1.1 3.4-0.7 7.1-4.1 8.2-0.7 0.2-1.5 0.4-2.2 0.3-2.6-0.1-5.1-1.8-6-4.4l-2.8-8.4-16.7 5.6 2.8 8.4c1.1 3.4-0.7 7.1-4.1 8.2-0.7 0.2-1.5 0.4-2.2 0.3-2.6-0.1-5.1-1.8-6-4.4l-2.8-8.4-8.1 2.7c-0.7 0.2-1.5 0.4-2.2 0.3-2.6-0.1-5.1-1.8-6-4.4-1.1-3.4 0.7-7.1 4.1-8.2l8.1-2.7-5.4-16.1-8.1 2.7c-0.7 0.2-1.5 0.4-2.2 0.3-2.6-0.1-5.1-1.8-6-4.4-1.1-3.4 0.7-7.1 4.1-8.2l8.1-2.7-2.8-8.4c-1.1-3.4 0.7-7.1 4.1-8.2s7.1 0.7 8.2 4.1l2.8 8.4 16.7-5.6-2.8-8.4c-1.1-3.4 0.7-7.1 4.1-8.2s7.1 0.7 8.2 4.1l2.8 8.4 8.1-2.7c3.4-1.1 7.1 0.7 8.2 4.1s-0.7 7.1-4.1 8.2l-8.1 2.7 5.4 16.1 8.1-2.7c3.4-1.1 7.1 0.7 8.2 4.1s-0.7 7.1-4.1 8.2z"
       style="fill:#b67acc"
       id="path239" />
  </g>
  <path
     class="st1"
     d="m193.6 217.09a1.9433 1.9433 0 1 0-3.8866 0 1.9433 1.9433 0 1 0 3.8866 0zm5.9908 4.7578v-14.635a1.294 1.294 0 0 0-1.294-1.294l-14.641-6e-3v2.5866h13.349v13.349zm-12.464-4.7578a1.941 1.941 0 1 0-3.8732 0 1.941 1.941 0 1 0 3.8732 0zm6.0578 11.164v-2.5866h-13.349v-13.349h-2.5866v14.649a1.294 1.294 0 0 0 1.294 1.294zm-4.7578-31.87a20.704 20.704 0 1 0 20.706 20.706 20.704 20.704 0 0 0-20.706-20.706zm0 2.5866a18.116 18.116 0 1 1-18.12 18.12 18.137 18.137 0 0 1 18.12-18.12z"
     style="color-interpolation-filters:sRGB;fill-rule:evenodd;fill:#fff"
     id="path243" />
  <g
     transform="matrix(-1 0 0 1 248.88 18.125)"
     style="fill:#a974c2"
     id="g249">
    <circle
       transform="scale(-1,1)"
       cx="-152.76"
       cy="163.55"
       r="3.4585"
       style="fill:#a974c2;paint-order:normal"
       id="circle245" />
    <path
       d="m145.59 151.92v12.113l2.4451 2.9786h-36.256v-15.092z"
       style="fill:#a974c2;paint-order:normal;stroke-width:.78768;stroke:#803b9c"
       id="path247" />
  </g>
  <g
     transform="matrix(-1 0 0 1 248.88 18.204)"
     style="fill:#a974c2"
     id="g255">
    <circle
       transform="scale(-1,1)"
       cx="-152.76"
       cy="124.29"
       r="3.4585"
       style="fill:#a974c2;paint-order:normal"
       id="circle251" />
    <path
       d="m145.59 112.65v12.113l2.4451 2.9786h-36.256v-15.092z"
       style="fill:#a974c2;paint-order:normal;stroke-width:.78768;stroke:#803b9c"
       id="path253" />
  </g>
  <g
     transform="matrix(-1 0 0 1 248.88 18.284)"
     style="fill:#a974c2"
     id="g261">
    <circle
       transform="scale(-1,1)"
       cx="-152.76"
       cy="85.02"
       r="3.4585"
       style="fill:#a974c2;paint-order:normal"
       id="circle257" />
    <path
       d="m145.59 73.386v12.113l2.4451 2.9786h-36.256v-15.092z"
       style="fill:#a974c2;paint-order:normal;stroke-width:.78768;stroke:#803b9c"
       id="path259" />
  </g>
  <g
     transform="matrix(.22673 0 0 .22673 350.9 259.77)"
     id="g271">
    <g
       transform="matrix(3.3921 0 0 3.3921 590.79 -120.49)"
       style="fill:#b77bcd"
       id="g269">
      <path
         d="m10.2 11.5c-5.6 0-10.2 1.5-10.2 3.4 0 0.5 1.2 7.6 1.7 10.4 0.2 1.3 3.5 3.1 8.5 3.1s8.2-1.8 8.5-3.1c0.5-2.8 1.7-9.9 1.7-10.4-0.1-1.9-4.6-3.4-10.2-3.4zm0 14.6c-1.8 0-3.2-1.4-3.2-3.2s1.4-3.2 3.2-3.2 3.2 1.4 3.2 3.2c0 1.7-1.4 3.2-3.2 3.2zm0-10.2c-3.6 0-6.5-0.6-6.5-1.4s2.9-1.4 6.5-1.4 6.5 0.6 6.5 1.4-2.9 1.4-6.5 1.4z"
         style="fill:#b77bcd"
         id="path263" />
      <path
         d="m17.5 28c-0.2 0-0.3 0.1-0.3 0.1s-2.5 2-7 2-7-2-7-2-0.2-0.1-0.3-0.1c-0.2 0-0.4 0.1-0.4 0.4v0.1c0.4 2.1 0.7 3.6 0.7 3.8 0.3 1.5 3.3 2.7 6.9 2.7s6.6-1.2 6.9-2.7c0-0.2 0.3-1.7 0.7-3.8v-0.1c0.1-0.2 0-0.4-0.2-0.4z"
         style="fill:#b77bcd"
         id="path265" />
      <circle
         cx="10.2"
         cy="22.8"
         r="1.6"
         style="fill:#b77bcd"
         id="circle267" />
    </g>
  </g>
  <g
     transform="matrix(.037523 0 0 .037523 482.78 24.032)"
     style="fill:#b77bcd"
     id="g287">
    <g
       style="fill:#b77bcd"
       id="g285">
      <g
         style="fill:#b77bcd"
         id="g283">
        <path
           d="m143.13 17.992-138.67 90.27c-5.667 3.69-5.979 10.098-0.698 14.315l100.24 80.074 160.48-98.752-101.7-84.75c-5.196-4.327-13.996-4.841-19.663-1.157z"
           style="fill:#b77bcd"
           id="path273" />
        <path
           d="m367.14 406.34-102-84.45v-0.661l-0.324 0.331-0.324-0.331v0.661l-101.68 84.432c-5.202 4.321-14.003 4.822-19.664 1.126l-37.503-24.498v22.846c0 6.763 4.7 15.056 10.502 18.531 0 0 148.35 88.967 148.35 89.059s0.073 0.092 0.165 0 0.232-0.092 0.324 0 0.166 0.092 0.166 0 148.67-89.07 148.67-89.07c5.802-3.471 10.508-11.763 10.508-18.52v-22.846l-37.503 24.498c-5.672 3.696-14.486 3.201-19.688-1.108z"
           style="fill:#b77bcd"
           id="path275" />
        <path
           d="m4.464 297.37 138.66 90.271c5.667 3.69 14.468 3.17 19.664-1.157l101.7-84.75-160.48-99.083-100.25 80.386c-5.276 4.23-4.957 10.649 0.704 14.333z"
           style="fill:#b77bcd"
           id="path277" />
        <path
           d="m524.52 108.26-138.36-90.251c-5.661-3.696-14.468-3.188-19.663 1.132l-102.02 84.762 160.48 98.752 100.24-80.074c5.283-4.216 4.976-10.63-0.685-14.321z"
           style="fill:#b77bcd"
           id="path279" />
        <path
           d="m525.22 283.04-100.25-80.386-150.06 92.65c-5.753 3.55-6.199 9.933-0.997 14.253l92.596 76.941c5.201 4.32 14.002 4.828 19.663 1.132l138.35-90.245c5.661-3.696 5.974-10.115 0.698-14.345z"
           style="fill:#b77bcd"
           id="path281" />
      </g>
    </g>
  </g>
  <style
     type="text/css"
     id="style289"><![CDATA[
		.st1 {fill:#0078d7;stroke:none;stroke-linecap:butt;stroke-width:0.75}
		.st2 {fill:none;fill-rule:evenodd;font-size:12px;overflow:visible;stroke-linecap:square;stroke-miterlimit:3}
	]]></style>
  <style
     type="text/css"
     id="style291">.st0{fill:#FFFFFF;}</style>
  <style
     type="text/css"
     id="style293"><![CDATA[
		.st1 {fill:#0078d7;stroke:none;stroke-linecap:butt;stroke-width:0.75}
		.st2 {fill:none;fill-rule:evenodd;font-size:12px;overflow:visible;stroke-linecap:square;stroke-miterlimit:3}
	]]></style>
  <g
     style="display:none"
     id="g525">
    <g
       transform="translate(-38.221 20.64)"
       id="g301">
      <path
         d="m192.8 146.82v21.421h25.564c2.8316 2.5072 6.7557 5.8467 6.7557 5.8467l-1.4309-5.8467h4.0969v-21.421z"
         style="fill:#414141"
         id="path295" />
      <path
         d="m198.41 161.48h23.473"
         style="fill:none;stroke-linecap:round;stroke-width:2.1649;stroke:#fff"
         id="path297" />
      <path
         d="m198.41 154.12h23.473"
         style="fill:none;stroke-linecap:round;stroke-width:2.1649;stroke:#fff"
         id="path299" />
    </g>
    <g
       transform="matrix(1.3123 0 0 1.3123 13.174 83.82)"
       id="g311">
      <path
         d="m37.488 21.047c0-6.256-5.07-11.349-11.349-11.349s-11.349 5.07-11.349 11.349c0 4.651 2.791 8.628 6.767 10.395-0.372 0.628-1.279 1.488-2.186 2.047-1.744 1.116-3.814 1.698-5.721 2.535-0.326 0.14-0.814 0.349-0.837 0.581-0.14 1.07-0.14 2.163-0.209 3.233 0.233 0.07 0.349 0.14 0.465 0.14 5.395 1 10.279-0.279 14.698-3.093 4.605-2.932 9.721-7.699 9.721-15.838z"
         style="fill:#fff"
         id="path303" />
      <path
         d="m26.326 13.465c-4.14-0.023-7.535 3.279-7.581 7.372-0.047 4.186 3.279 7.605 7.419 7.628 4.163 0.023 7.581-3.326 7.581-7.465-1e-3 -4.116-3.326-7.488-7.419-7.535z"
         style="fill:#414141"
         id="path305" />
      <path
         d="m24.86 25c-0.558 0-0.953-0.116-1.209-0.349s-0.395-0.628-0.395-1.163v-1.279c0-0.558-0.233-0.86-0.698-0.86v-0.698c0.465 0 0.698-0.302 0.698-0.907v-1.209c0-0.535 0.14-0.907 0.395-1.163s0.675-0.372 1.209-0.372v0.721c-0.488 0-0.721 0.279-0.721 0.837v1.209c0 0.651-0.233 1.07-0.674 1.233v0.023c0.442 0.14 0.674 0.535 0.674 1.209v1.209c0 0.302 0.047 0.512 0.163 0.651 0.116 0.14 0.302 0.209 0.558 0.209z"
         style="fill:#fff"
         id="path307" />
      <path
         d="m27.628 24.302c0.256 0 0.442-0.07 0.558-0.209 0.116-0.14 0.163-0.349 0.163-0.651v-1.209c0-0.651 0.233-1.047 0.674-1.209v-0.024c-0.442-0.163-0.674-0.581-0.674-1.233v-1.209c0-0.558-0.233-0.837-0.721-0.837v-0.721c0.535 0 0.953 0.116 1.209 0.372s0.395 0.651 0.395 1.163v1.233c0 0.605 0.233 0.907 0.698 0.907v0.698c-0.465 0-0.698 0.279-0.698 0.86v1.279c0 0.535-0.14 0.907-0.395 1.163-0.256 0.233-0.674 0.349-1.209 0.349z"
         style="fill:#fff"
         id="path309" />
    </g>
    <g
       transform="matrix(.35432 0 0 .35432 143.04 42.269)"
       id="g325">
      <g
         transform="translate(-8.7921 17.566)"
         style="fill:#fff"
         id="g315">
        <path
           d="m69.52-8.3299c-19.714 0.013506-37.184 12.631-43.298 31.271v-20.638h-0.0739c0.0039-0.062568 0.0063-0.12529 0.0072-0.18808-2.43e-4 -1.6033-0.95759-2.9029-2.1384-2.9027-1.1806 2.256e-4 -2.1376 1.2996-2.1378 2.9027 5.3e-5 0.062739 0.0016 0.12548 0.0047 0.18808h-0.07183v59.509h0.10284c-0.01903 0.18847-0.03488 0.37704-0.04754 0.5657 1.79e-4 15.634 21.374 28.308 47.739 28.308 26.365 1.4e-5 47.739-12.674 47.739-28.308-9e-3 -0.25578-0.0245-0.51147-0.0455-0.767h0.1323v-59.509h-0.0739c4e-3 -0.062568 6e-3 -0.12529 7e-3 -0.18808 5e-5 -1.6036-0.95738-2.9036-2.1384-2.9034-1.1808 2.295e-4 -2.1379 1.3001-2.1378 2.9034 5e-5 0.062739 2e-3 0.12546 5e-3 0.18808h-0.0718v21.533c-5.8896-18.986-23.525-31.944-43.502-31.965z"
           style="fill:#fff"
           id="path313" />
      </g>
      <g
         style="fill:#58b1dd"
         id="g323">
        <path
           d="m34.613 50.687c-6.8628-1.17e-4 -12.426 7.9093-12.426 17.666-8.3e-5 9.7567 5.5633 17.666 12.426 17.666h52.434c6.8628 1.16e-4 12.426-7.9093 12.426-17.666 8.2e-5 -9.7567-5.5633-17.666-12.426-17.666z"
           style="fill:#58b1dd;paint-order:normal"
           id="path317" />
        <ellipse
           cx="34.613"
           cy="68.353"
           rx="7.5642"
           ry="10.754"
           style="fill:#fff;paint-order:normal"
           id="ellipse319" />
        <ellipse
           cx="87.048"
           cy="68.353"
           rx="7.5642"
           ry="10.754"
           style="fill:#fff;paint-order:normal"
           id="ellipse321" />
      </g>
    </g>
    <g
       transform="matrix(2.2178 0 0 2.2178 128.66 80.711)"
       style="color-interpolation-filters:sRGB;fill-rule:evenodd;fill:#fff;font-size:12px;stroke-linecap:square;stroke-miterlimit:3"
       id="g337">
      <g
         style="fill:#fff"
         v:groupContext="foregroundPage"
         v:index="1"
         v:mID="0"
         id="g335">
        <title
           id="title327">Page-1</title>
        <v:pageProperties
           v:drawingScale="1"
           v:drawingUnits="19"
           v:pageScale="1"
           v:shadowOffsetX="9"
           v:shadowOffsetY="-9" />
        <g
           transform="translate(.75 -.75)"
           style="fill:#fff"
           v:groupContext="shape"
           v:mID="104"
           id="g333">
          <title
             id="title329">Sheet.104</title>
          <path
             class="st1"
             d="m19.31 16.95a1.45 1.45-180 1 0-2.9 0 1.45 1.45-180 1 0 2.9 0zm4.47 3.55v-10.92a0.9655 0.9655-180 0 0-0.9655-0.9655l-10.924-0.004497v1.93h9.96v9.96zm-9.3-3.55a1.4482 1.4482-180 1 0-2.89 0 1.4482 1.4482-180 1 0 2.89 0zm4.52 8.33v-1.93h-9.96v-9.96h-1.93v10.93a0.9655 0.9655-180 0 0 0.9655 0.9655zm-3.55-23.78a15.448 15.448-180 1 0 15.45 15.45 15.448 15.448-180 0 0-15.45-15.45zm0 1.93a13.517 13.517 0 1 1-13.52 13.52 13.533 13.533 0 0 1 13.52-13.52z"
             style="fill:#fff"
             id="path331" />
        </g>
      </g>
    </g>
    <path
       d="m139.54 180.3v22.264h6.1743v6.0803l4.5703-6.0803h23.867v-22.264z"
       style="fill:#fff"
       id="path339" />
    <path
       d="m144.83 195.39h23.473"
       style="fill:none;stroke-linecap:round;stroke-width:2.1649;stroke:#414141"
       id="path341" />
    <path
       d="m144.83 188.03h23.473"
       style="fill:none;stroke-linecap:round;stroke-width:2.1649;stroke:#414141"
       id="path343" />
    <g
       transform="translate(-54.096 13.407)"
       id="g381">
      <g
         style="fill:#fff"
         aria-label="10011101"
         id="g361">
        <path
           d="m262.16 110.89h1.3332v-5.1211h-1.3126q-0.18087 0-0.31006-0.12403-0.12403-0.12919-0.12403-0.31005 0-0.18087 0.12403-0.30489 0.12919-0.1292 0.31006-0.1292h2.1807v5.9893h0.86817v-1.8087q0-0.1757 0.12402-0.30489 0.12919-0.12919 0.31006-0.12919t0.30489 0.12919q0.12919 0.12402 0.12919 0.30489v2.2428q0 0.18087-0.12919 0.31006-0.12402 0.12403-0.30489 0.12403h-3.5037q-0.18087 0-0.31006-0.12919-0.12403-0.13436-0.12403-0.31523 0-0.1757 0.12403-0.29972 0.12919-0.12403 0.31006-0.12403z"
           style="fill:#fff;stroke-width:.26458"
           id="path345" />
        <path
           d="m268.12 110.92v-5.1935q0-0.34107 0.24804-0.58911 0.24805-0.24805 0.58911-0.24805h2.7078q0.3359 0 0.57878 0.24805 0.24804 0.24804 0.24804 0.58911v5.1935q0 0.34623-0.24804 0.59428-0.24288 0.24288-0.58912 0.24288h-2.6975q-0.3514 0-0.59427-0.24288-0.24288-0.24805-0.24288-0.59428zm3.514-0.031v-5.1211h-2.6458v5.1211z"
           style="fill:#fff;stroke-width:.26458"
           id="path347" />
        <path
           d="m274.51 110.92v-5.1935q0-0.34107 0.24805-0.58911 0.24805-0.24805 0.58911-0.24805h2.7078q0.33589 0 0.57877 0.24805 0.24805 0.24804 0.24805 0.58911v5.1935q0 0.34623-0.24805 0.59428-0.24288 0.24288-0.58911 0.24288h-2.6975q-0.3514 0-0.59428-0.24288-0.24288-0.24805-0.24288-0.59428zm3.514-0.031v-5.1211h-2.6458v5.1211z"
           style="fill:#fff;stroke-width:.26458"
           id="path349" />
        <path
           d="m281.32 110.89h1.3332v-5.1211h-1.3126q-0.18087 0-0.31006-0.12403-0.12402-0.12919-0.12402-0.31005 0-0.18087 0.12402-0.30489 0.12919-0.1292 0.31006-0.1292h2.1807v5.9893h0.86817v-1.8087q0-0.1757 0.12402-0.30489 0.12919-0.12919 0.31006-0.12919t0.30489 0.12919q0.12919 0.12402 0.12919 0.30489v2.2428q0 0.18087-0.12919 0.31006-0.12402 0.12403-0.30489 0.12403h-3.5037q-0.18087 0-0.31006-0.12919-0.12402-0.13436-0.12402-0.31523 0-0.1757 0.12402-0.29972 0.12919-0.12403 0.31006-0.12403z"
           style="fill:#fff;stroke-width:.26458"
           id="path351" />
        <path
           d="m287.71 110.89h1.3333v-5.1211h-1.3126q-0.18086 0-0.31005-0.12403-0.12403-0.12919-0.12403-0.31005 0-0.18087 0.12403-0.30489 0.12919-0.1292 0.31005-0.1292h2.1808v5.9893h0.86816v-1.8087q0-0.1757 0.12403-0.30489 0.12919-0.12919 0.31006-0.12919 0.18086 0 0.30489 0.12919 0.12919 0.12402 0.12919 0.30489v2.2428q0 0.18087-0.12919 0.31006-0.12403 0.12403-0.30489 0.12403h-3.5037q-0.18086 0-0.31005-0.12919-0.12403-0.13436-0.12403-0.31523 0-0.1757 0.12403-0.29972 0.12919-0.12403 0.31005-0.12403z"
           style="fill:#fff;stroke-width:.26458"
           id="path353" />
        <path
           d="m294.09 110.89h1.3332v-5.1211h-1.3126q-0.18087 0-0.31006-0.12403-0.12402-0.12919-0.12402-0.31005 0-0.18087 0.12402-0.30489 0.12919-0.1292 0.31006-0.1292h2.1808v5.9893h0.86816v-1.8087q0-0.1757 0.12402-0.30489 0.1292-0.12919 0.31006-0.12919 0.18087 0 0.30489 0.12919 0.1292 0.12402 0.1292 0.30489v2.2428q0 0.18087-0.1292 0.31006-0.12402 0.12403-0.30489 0.12403h-3.5037q-0.18087 0-0.31006-0.12919-0.12402-0.13436-0.12402-0.31523 0-0.1757 0.12402-0.29972 0.12919-0.12403 0.31006-0.12403z"
           style="fill:#fff;stroke-width:.26458"
           id="path355" />
        <path
           d="m300.06 110.92v-5.1935q0-0.34107 0.24805-0.58911 0.24805-0.24805 0.58911-0.24805h2.7078q0.3359 0 0.57878 0.24805 0.24805 0.24804 0.24805 0.58911v5.1935q0 0.34623-0.24805 0.59428-0.24288 0.24288-0.58911 0.24288h-2.6975q-0.3514 0-0.59428-0.24288-0.24288-0.24805-0.24288-0.59428zm3.514-0.031v-5.1211h-2.6458v5.1211z"
           style="fill:#fff;stroke-width:.26458"
           id="path357" />
        <path
           d="m306.87 110.89h1.3332v-5.1211h-1.3126q-0.18087 0-0.31006-0.12403-0.12403-0.12919-0.12403-0.31005 0-0.18087 0.12403-0.30489 0.12919-0.1292 0.31006-0.1292h2.1807v5.9893h0.86817v-1.8087q0-0.1757 0.12402-0.30489 0.12919-0.12919 0.31006-0.12919 0.18086 0 0.30489 0.12919 0.12919 0.12402 0.12919 0.30489v2.2428q0 0.18087-0.12919 0.31006-0.12403 0.12403-0.30489 0.12403h-3.5037q-0.18087 0-0.31006-0.12919-0.12403-0.13436-0.12403-0.31523 0-0.1757 0.12403-0.29972 0.12919-0.12403 0.31006-0.12403z"
           style="fill:#fff;stroke-width:.26458"
           id="path359" />
      </g>
      <g
         transform="matrix(.26458 0 0 .26458 .069831 0)"
         style="fill:#fff"
         aria-label="10101001"
         id="g379">
        <path
           d="m990.57 380.61h5.0391v-19.356h-4.9609q-0.68359 0-1.1719-0.46875-0.46875-0.48828-0.46875-1.1719 0-0.6836 0.46875-1.1524 0.48828-0.48828 1.1719-0.48828h8.2422v22.637h3.2813v-6.8359q0-0.66406 0.4687-1.1523 0.4883-0.48828 1.1719-0.48828t1.1523 0.48828q0.4883 0.46875 0.4883 1.1523v8.4766q0 0.68359-0.4883 1.1719-0.4687 0.46875-1.1523 0.46875h-13.242q-0.6836 0-1.1719-0.48828-0.46875-0.50781-0.46875-1.1914 0-0.66406 0.46875-1.1328 0.48828-0.46875 1.1719-0.46875z"
           style="fill:#fff"
           id="path363" />
        <path
           d="m1013.1 380.73v-19.629q0-1.2891 0.9375-2.2266t2.2265-0.9375h10.234q1.2695 0 2.1875 0.9375 0.9375 0.9375 0.9375 2.2266v19.629q0 1.3086-0.9375 2.2461-0.918 0.91797-2.2266 0.91797h-10.195q-1.3281 0-2.2461-0.91797-0.9179-0.9375-0.9179-2.2461zm13.281-0.11719v-19.356h-10v19.356z"
           style="fill:#fff"
           id="path365" />
        <path
           d="m1038.8 380.61h5.039v-19.356h-4.9609q-0.6836 0-1.1719-0.46875-0.4687-0.48828-0.4687-1.1719 0-0.6836 0.4687-1.1524 0.4883-0.48828 1.1719-0.48828h8.2422v22.637h3.2812v-6.8359q0-0.66406 0.4688-1.1523 0.4883-0.48828 1.1718-0.48828 0.6836 0 1.1524 0.48828 0.4883 0.46875 0.4883 1.1523v8.4766q0 0.68359-0.4883 1.1719-0.4688 0.46875-1.1524 0.46875h-13.242q-0.6836 0-1.1719-0.48828-0.4688-0.50781-0.4688-1.1914 0-0.66406 0.4688-1.1328 0.4883-0.46875 1.1719-0.46875z"
           style="fill:#fff"
           id="path367" />
        <path
           d="m1061.4 380.73v-19.629q0-1.2891 0.9375-2.2266t2.2266-0.9375h10.234q1.2695 0 2.1875 0.9375 0.9375 0.9375 0.9375 2.2266v19.629q0 1.3086-0.9375 2.2461-0.918 0.91797-2.2266 0.91797h-10.195q-1.3281 0-2.2461-0.91797-0.918-0.9375-0.918-2.2461zm13.281-0.11719v-19.356h-10v19.356z"
           style="fill:#fff"
           id="path369" />
        <path
           d="m1087.1 380.61h5.0391v-19.356h-4.961q-0.6836 0-1.1718-0.46875-0.4688-0.48828-0.4688-1.1719 0-0.6836 0.4688-1.1524 0.4882-0.48828 1.1718-0.48828h8.2422v22.637h3.2813v-6.8359q0-0.66406 0.4687-1.1523 0.4883-0.48828 1.1719-0.48828t1.1523 0.48828q0.4883 0.46875 0.4883 1.1523v8.4766q0 0.68359-0.4883 1.1719-0.4687 0.46875-1.1523 0.46875h-13.242q-0.6836 0-1.1719-0.48828-0.4687-0.50781-0.4687-1.1914 0-0.66406 0.4687-1.1328 0.4883-0.46875 1.1719-0.46875z"
           style="fill:#fff"
           id="path371" />
        <path
           d="m1109.7 380.73v-19.629q0-1.2891 0.9375-2.2266t2.2265-0.9375h10.234q1.2695 0 2.1875 0.9375 0.9375 0.9375 0.9375 2.2266v19.629q0 1.3086-0.9375 2.2461-0.918 0.91797-2.2266 0.91797h-10.195q-1.3281 0-2.2461-0.91797-0.9179-0.9375-0.9179-2.2461zm13.281-0.11719v-19.356h-10v19.356z"
           style="fill:#fff"
           id="path373" />
        <path
           d="m1133.8 380.73v-19.629q0-1.2891 0.9375-2.2266t2.2266-0.9375h10.234q1.2696 0 2.1875 0.9375 0.9375 0.9375 0.9375 2.2266v19.629q0 1.3086-0.9375 2.2461-0.9179 0.91797-2.2265 0.91797h-10.195q-1.3282 0-2.2461-0.91797-0.918-0.9375-0.918-2.2461zm13.281-0.11719v-19.356h-10v19.356z"
           style="fill:#fff"
           id="path375" />
        <path
           d="m1159.6 380.61h5.039v-19.356h-4.9609q-0.6836 0-1.1719-0.46875-0.4687-0.48828-0.4687-1.1719 0-0.6836 0.4687-1.1524 0.4883-0.48828 1.1719-0.48828h8.2422v22.637h3.2812v-6.8359q0-0.66406 0.4688-1.1523 0.4883-0.48828 1.1719-0.48828t1.1523 0.48828q0.4883 0.46875 0.4883 1.1523v8.4766q0 0.68359-0.4883 1.1719-0.4687 0.46875-1.1523 0.46875h-13.242q-0.6836 0-1.1719-0.48828-0.4687-0.50781-0.4687-1.1914 0-0.66406 0.4687-1.1328 0.4883-0.46875 1.1719-0.46875z"
           style="fill:#fff"
           id="path377" />
      </g>
    </g>
    <text
       x="237.92148"
       y="86.374153"
       style="fill:#000000;font-family:sans-serif;font-size:10.583px;letter-spacing:0px;line-height:1.25;stroke-width:.26458;word-spacing:0px"
       xml:space="preserve"
       id="text385"><tspan
         x="237.92148"
         y="96.029648"
         style="stroke-width:.26458"
         id="tspan383" /></text>
    <text
       x="254.75948"
       y="119.30176"
       style="fill:#000000;font-family:sans-serif;font-size:10.583px;letter-spacing:0px;line-height:1.25;stroke-width:.26458;word-spacing:0px"
       xml:space="preserve"
       id="text389"><tspan
         x="254.75948"
         y="128.95726"
         style="stroke-width:.26458"
         id="tspan387" /></text>
    <g
       transform="translate(-56.213 13.448)"
       id="g427">
      <g
         style="fill:#fff"
         aria-label="10011101"
         id="g407">
        <path
           d="m128.82 110.84h1.3332v-5.1211h-1.3126q-0.18087 0-0.31006-0.12402-0.12403-0.12919-0.12403-0.31006t0.12403-0.30489q0.12919-0.12919 0.31006-0.12919h2.1807v5.9893h0.86817v-1.8087q0-0.1757 0.12402-0.30489 0.12919-0.12919 0.31006-0.12919 0.18086 0 0.30489 0.12919 0.12919 0.12402 0.12919 0.30489v2.2428q0 0.18087-0.12919 0.31006-0.12403 0.12402-0.30489 0.12402h-3.5037q-0.18087 0-0.31006-0.12919-0.12403-0.13436-0.12403-0.31523 0-0.1757 0.12403-0.29972 0.12919-0.12402 0.31006-0.12402z"
           style="fill:#fff;stroke-width:.26458"
           id="path391" />
        <path
           d="m134.79 110.88v-5.1935q0-0.34106 0.24804-0.58911 0.24805-0.24805 0.58911-0.24805h2.7078q0.3359 0 0.57877 0.24805 0.24805 0.24805 0.24805 0.58911v5.1935q0 0.34623-0.24805 0.59428-0.24287 0.24288-0.58911 0.24288h-2.6975q-0.3514 0-0.59428-0.24288-0.24287-0.24805-0.24287-0.59428zm3.514-0.031v-5.1211h-2.6458v5.1211z"
           style="fill:#fff;stroke-width:.26458"
           id="path393" />
        <path
           d="m141.17 110.88v-5.1935q0-0.34106 0.24805-0.58911t0.58911-0.24805h2.7078q0.33589 0 0.57877 0.24805 0.24805 0.24805 0.24805 0.58911v5.1935q0 0.34623-0.24805 0.59428-0.24288 0.24288-0.58911 0.24288h-2.6975q-0.3514 0-0.59428-0.24288-0.24288-0.24805-0.24288-0.59428zm3.514-0.031v-5.1211h-2.6458v5.1211z"
           style="fill:#fff;stroke-width:.26458"
           id="path395" />
        <path
           d="m147.98 110.84h1.3332v-5.1211h-1.3126q-0.18087 0-0.31006-0.12402-0.12402-0.12919-0.12402-0.31006t0.12402-0.30489q0.12919-0.12919 0.31006-0.12919h2.1807v5.9893h0.86817v-1.8087q0-0.1757 0.12402-0.30489 0.12919-0.12919 0.31006-0.12919t0.30489 0.12919q0.12919 0.12402 0.12919 0.30489v2.2428q0 0.18087-0.12919 0.31006-0.12402 0.12402-0.30489 0.12402h-3.5037q-0.18087 0-0.31006-0.12919-0.12403-0.13436-0.12403-0.31523 0-0.1757 0.12403-0.29972 0.12919-0.12402 0.31006-0.12402z"
           style="fill:#fff;stroke-width:.26458"
           id="path397" />
        <path
           d="m154.37 110.84h1.3333v-5.1211h-1.3126q-0.18086 0-0.31005-0.12402-0.12403-0.12919-0.12403-0.31006t0.12403-0.30489q0.12919-0.12919 0.31005-0.12919h2.1808v5.9893h0.86816v-1.8087q0-0.1757 0.12403-0.30489 0.12919-0.12919 0.31006-0.12919 0.18086 0 0.30489 0.12919 0.12919 0.12402 0.12919 0.30489v2.2428q0 0.18087-0.12919 0.31006-0.12403 0.12402-0.30489 0.12402h-3.5037q-0.18086 0-0.31006-0.12919-0.12402-0.13436-0.12402-0.31523 0-0.1757 0.12402-0.29972 0.1292-0.12402 0.31006-0.12402z"
           style="fill:#fff;stroke-width:.26458"
           id="path399" />
        <path
           d="m160.76 110.84h1.3332v-5.1211h-1.3126q-0.18087 0-0.31006-0.12402-0.12402-0.12919-0.12402-0.31006t0.12402-0.30489q0.12919-0.12919 0.31006-0.12919h2.1808v5.9893h0.86816v-1.8087q0-0.1757 0.12402-0.30489 0.1292-0.12919 0.31006-0.12919 0.18087 0 0.30489 0.12919 0.12919 0.12402 0.12919 0.30489v2.2428q0 0.18087-0.12919 0.31006-0.12402 0.12402-0.30489 0.12402h-3.5037q-0.18087 0-0.31006-0.12919-0.12402-0.13436-0.12402-0.31523 0-0.1757 0.12402-0.29972 0.12919-0.12402 0.31006-0.12402z"
           style="fill:#fff;stroke-width:.26458"
           id="path401" />
        <path
           d="m166.72 110.88v-5.1935q0-0.34106 0.24805-0.58911 0.24804-0.24805 0.58911-0.24805h2.7078q0.3359 0 0.57878 0.24805 0.24805 0.24805 0.24805 0.58911v5.1935q0 0.34623-0.24805 0.59428-0.24288 0.24288-0.58911 0.24288h-2.6975q-0.3514 0-0.59428-0.24288-0.24288-0.24805-0.24288-0.59428zm3.514-0.031v-5.1211h-2.6458v5.1211z"
           style="fill:#fff;stroke-width:.26458"
           id="path403" />
        <path
           d="m173.53 110.84h1.3333v-5.1211h-1.3126q-0.18087 0-0.31006-0.12402-0.12403-0.12919-0.12403-0.31006t0.12403-0.30489q0.12919-0.12919 0.31006-0.12919h2.1807v5.9893h0.86816v-1.8087q0-0.1757 0.12403-0.30489 0.12919-0.12919 0.31006-0.12919 0.18086 0 0.30489 0.12919 0.12919 0.12402 0.12919 0.30489v2.2428q0 0.18087-0.12919 0.31006-0.12403 0.12402-0.30489 0.12402h-3.5037q-0.18086 0-0.31005-0.12919-0.12403-0.13436-0.12403-0.31523 0-0.1757 0.12403-0.29972 0.12919-0.12402 0.31005-0.12402z"
           style="fill:#fff;stroke-width:.26458"
           id="path405" />
      </g>
      <g
         transform="matrix(.26458 0 0 .26458 -133.26 -.041596)"
         style="fill:#fff"
         aria-label="10101001"
         id="g425">
        <path
           d="m990.57 380.61h5.0391v-19.356h-4.9609q-0.68359 0-1.1719-0.46875-0.46875-0.48828-0.46875-1.1719 0-0.6836 0.46875-1.1524 0.48828-0.48828 1.1719-0.48828h8.2422v22.637h3.2813v-6.8359q0-0.66406 0.4687-1.1523 0.4883-0.48828 1.1719-0.48828t1.1523 0.48828q0.4883 0.46875 0.4883 1.1523v8.4766q0 0.68359-0.4883 1.1719-0.4687 0.46875-1.1523 0.46875h-13.242q-0.6836 0-1.1719-0.48828-0.46875-0.50781-0.46875-1.1914 0-0.66406 0.46875-1.1328 0.48828-0.46875 1.1719-0.46875z"
           style="fill:#fff"
           id="path409" />
        <path
           d="m1013.1 380.73v-19.629q0-1.2891 0.9375-2.2266t2.2265-0.9375h10.234q1.2695 0 2.1875 0.9375 0.9375 0.9375 0.9375 2.2266v19.629q0 1.3086-0.9375 2.2461-0.918 0.91797-2.2266 0.91797h-10.195q-1.3281 0-2.2461-0.91797-0.9179-0.9375-0.9179-2.2461zm13.281-0.11719v-19.356h-10v19.356z"
           style="fill:#fff"
           id="path411" />
        <path
           d="m1038.8 380.61h5.039v-19.356h-4.9609q-0.6836 0-1.1719-0.46875-0.4687-0.48828-0.4687-1.1719 0-0.6836 0.4687-1.1524 0.4883-0.48828 1.1719-0.48828h8.2422v22.637h3.2812v-6.8359q0-0.66406 0.4688-1.1523 0.4883-0.48828 1.1718-0.48828 0.6836 0 1.1524 0.48828 0.4883 0.46875 0.4883 1.1523v8.4766q0 0.68359-0.4883 1.1719-0.4688 0.46875-1.1524 0.46875h-13.242q-0.6836 0-1.1719-0.48828-0.4688-0.50781-0.4688-1.1914 0-0.66406 0.4688-1.1328 0.4883-0.46875 1.1719-0.46875z"
           style="fill:#fff"
           id="path413" />
        <path
           d="m1061.4 380.73v-19.629q0-1.2891 0.9375-2.2266t2.2266-0.9375h10.234q1.2695 0 2.1875 0.9375 0.9375 0.9375 0.9375 2.2266v19.629q0 1.3086-0.9375 2.2461-0.918 0.91797-2.2266 0.91797h-10.195q-1.3281 0-2.2461-0.91797-0.918-0.9375-0.918-2.2461zm13.281-0.11719v-19.356h-10v19.356z"
           style="fill:#fff"
           id="path415" />
        <path
           d="m1087.1 380.61h5.0391v-19.356h-4.961q-0.6836 0-1.1718-0.46875-0.4688-0.48828-0.4688-1.1719 0-0.6836 0.4688-1.1524 0.4882-0.48828 1.1718-0.48828h8.2422v22.637h3.2813v-6.8359q0-0.66406 0.4687-1.1523 0.4883-0.48828 1.1719-0.48828t1.1523 0.48828q0.4883 0.46875 0.4883 1.1523v8.4766q0 0.68359-0.4883 1.1719-0.4687 0.46875-1.1523 0.46875h-13.242q-0.6836 0-1.1719-0.48828-0.4687-0.50781-0.4687-1.1914 0-0.66406 0.4687-1.1328 0.4883-0.46875 1.1719-0.46875z"
           style="fill:#fff"
           id="path417" />
        <path
           d="m1109.7 380.73v-19.629q0-1.2891 0.9375-2.2266t2.2265-0.9375h10.234q1.2695 0 2.1875 0.9375 0.9375 0.9375 0.9375 2.2266v19.629q0 1.3086-0.9375 2.2461-0.918 0.91797-2.2266 0.91797h-10.195q-1.3281 0-2.2461-0.91797-0.9179-0.9375-0.9179-2.2461zm13.281-0.11719v-19.356h-10v19.356z"
           style="fill:#fff"
           id="path419" />
        <path
           d="m1133.8 380.73v-19.629q0-1.2891 0.9375-2.2266t2.2266-0.9375h10.234q1.2696 0 2.1875 0.9375 0.9375 0.9375 0.9375 2.2266v19.629q0 1.3086-0.9375 2.2461-0.9179 0.91797-2.2265 0.91797h-10.195q-1.3282 0-2.2461-0.91797-0.918-0.9375-0.918-2.2461zm13.281-0.11719v-19.356h-10v19.356z"
           style="fill:#fff"
           id="path421" />
        <path
           d="m1159.6 380.61h5.039v-19.356h-4.9609q-0.6836 0-1.1719-0.46875-0.4687-0.48828-0.4687-1.1719 0-0.6836 0.4687-1.1524 0.4883-0.48828 1.1719-0.48828h8.2422v22.637h3.2812v-6.8359q0-0.66406 0.4688-1.1523 0.4883-0.48828 1.1719-0.48828t1.1523 0.48828q0.4883 0.46875 0.4883 1.1523v8.4766q0 0.68359-0.4883 1.1719-0.4687 0.46875-1.1523 0.46875h-13.242q-0.6836 0-1.1719-0.48828-0.4687-0.50781-0.4687-1.1914 0-0.66406 0.4687-1.1328 0.4883-0.46875 1.1719-0.46875z"
           style="fill:#fff"
           id="path423" />
      </g>
    </g>
    <g
       transform="matrix(.069068 0 0 .069068 338.12 97.206)"
       style="fill:#fff"
       id="g439">
      <g
         style="fill:#fff"
         id="g437">
        <g
           style="fill:#fff"
           id="g435">
          <path
             d="m325.76 70.513-17.706-4.854c-2.279-0.76-4.524-0.521-6.707 0.715-2.19 1.237-3.669 3.094-4.429 5.568l-106.49 368.59c-0.76 2.475-0.522 4.809 0.715 6.995 1.237 2.19 3.09 3.665 5.568 4.425l17.701 4.856c2.284 0.766 4.521 0.526 6.71-0.712 2.19-1.243 3.666-3.094 4.425-5.564l106.5-368.59c0.759-2.474 0.523-4.808-0.716-6.999-1.238-2.19-3.089-3.665-5.564-4.424z"
             style="fill:#fff"
             id="path429" />
          <path
             d="m166.17 142.46c0-2.474-0.953-4.665-2.856-6.567l-14.277-14.276c-1.903-1.903-4.093-2.857-6.567-2.857s-4.665 0.955-6.567 2.857l-133.04 133.04c-1.906 1.903-2.856 4.093-2.856 6.567s0.953 4.664 2.856 6.566l133.04 133.04c1.902 1.906 4.089 2.854 6.567 2.854s4.665-0.951 6.567-2.854l14.277-14.268c1.903-1.902 2.856-4.093 2.856-6.57 0-2.471-0.953-4.661-2.856-6.563l-112.2-112.21 112.2-112.2c1.906-1.902 2.856-4.093 2.856-6.567z"
             style="fill:#fff"
             id="path431" />
          <path
             d="m519.61 254.66-133.05-133.04c-1.902-1.902-4.093-2.857-6.563-2.857-2.478 0-4.661 0.955-6.57 2.857l-14.271 14.275c-1.902 1.903-2.851 4.09-2.851 6.567s0.948 4.665 2.851 6.567l112.21 112.2-112.21 112.21c-1.902 1.902-2.851 4.093-2.851 6.563 0 2.478 0.948 4.668 2.851 6.57l14.271 14.268c1.909 1.906 4.093 2.854 6.57 2.854 2.471 0 4.661-0.951 6.563-2.854l133.05-133.04c1.903-1.902 2.854-4.096 2.854-6.57 0-2.475-0.951-4.665-2.854-6.567z"
             style="fill:#fff"
             id="path433" />
        </g>
      </g>
    </g>
    <g
       transform="translate(-91.385 -49.812)"
       id="g447">
      <circle
         cx="469.49"
         cy="121.3"
         r="15.027"
         style="fill:#96c5f9;stroke-linecap:round;stroke-linejoin:round;stroke-width:2.6381;stroke:#fff"
         id="circle441" />
      <path
         d="m459.05 163.04s-0.61916-26.697 10.453-26.697c9.2329 0 10.114 16.148 10.114 26.989-11.393 6.5777-20.567-0.2915-20.567-0.2915z"
         style="fill:#96c5f9;stroke-linecap:round;stroke-linejoin:round;stroke-width:2.6381;stroke:#fff"
         id="path443" />
      <path
         d="m465.16 138.75 2.8204 4.9797-2.6 5.773 2.0272 10.224 3.1729-10.444-2.6001-5.6408 6.4781-5.1119-5.9933-2.2034z"
         style="fill:#865fc5;stroke-linecap:round;stroke-linejoin:round;stroke-width:1.5829;stroke:#fff"
         id="path445" />
    </g>
    <g
       transform="matrix(.82088 0 0 .82088 -34.979 30.331)"
       id="g455">
      <circle
         cx="207.43"
         cy="242.76"
         r="11.392"
         style="fill:#96c5f9;stroke-linecap:round;stroke-linejoin:round;stroke-width:2;stroke:#fff"
         id="circle449" />
      <path
         d="m199.91 274.28s-0.46939-20.239 7.9246-20.239c6.9995 0 7.6673 12.242 7.6673 20.46-8.637 4.9866-15.592-0.22099-15.592-0.22099z"
         style="fill:#96c5f9;stroke-linecap:round;stroke-linejoin:round;stroke-width:2;stroke:#fff"
         id="path451" />
      <path
         d="m203.49 256.81s3.0736 2.1382 9.3544 0.26726l1.0023 2.5725s-6.4479 3.0736-12.06-0.13363z"
         style="fill:#2c5fb2;stroke-width:1.5;stroke:#fff"
         id="path453" />
    </g>
    <g
       transform="matrix(.82088 0 0 .82088 -37.26 30.548)"
       id="g463">
      <circle
         cx="169.6"
         cy="242.5"
         r="11.392"
         style="fill:#96c5f9;stroke-linecap:round;stroke-linejoin:round;stroke-width:2;stroke:#fff"
         id="circle457" />
      <path
         d="m161.01 274.02s-0.46939-20.239 7.9246-20.239c6.9995 0 7.6673 12.242 7.6673 20.46-8.637 4.9866-15.592-0.22099-15.592-0.22099z"
         style="fill:#96c5f9;stroke-linecap:round;stroke-linejoin:round;stroke-width:2;stroke:#fff"
         id="path459" />
      <path
         d="m172.4 255.86-2.1381 3.7752 1.9711 4.3765-1.5368 7.7508-2.4054-7.9179 1.9711-4.2763-4.9111-3.8754 4.5436-1.6704z"
         style="fill:#1a3b71;stroke-linecap:round;stroke-linejoin:round;stroke-width:1.2;stroke:#fff"
         id="path461" />
    </g>
    <g
       transform="matrix(-.82088 0 0 .82088 350.08 171.66)"
       id="g473">
      <circle
         cx="221.03"
         cy="71.652"
         r="11.392"
         style="fill:#96c5f9;stroke-linecap:round;stroke-linejoin:round;stroke-width:2;stroke:#fff"
         id="circle465" />
      <path
         d="m212.45 102.25s-0.46939-19.314 7.9246-19.314c6.9995 0 7.6673 11.682 7.6673 19.525-8.637 4.7587-15.592-0.21089-15.592-0.21089z"
         style="fill:#96c5f9;stroke-linecap:round;stroke-linejoin:round;stroke-width:1.9538;stroke:#fff"
         id="path467" />
      <path
         d="m216.67 85.433 4.1105 1.7954 4.2758-2.0789-4.583-2.2206z"
         style="fill:#1a3b71;stroke-linecap:round;stroke-linejoin:round;stroke-width:1.5;stroke:#fff"
         id="path469" />
      <path
         d="m220.78 87.228s1.5669 7.7853 0.22036 17.14"
         style="fill:none;stroke:#fff"
         id="path471" />
    </g>
    <g
       transform="matrix(.097836 0 0 .097836 84.716 206.8)"
       style="display:inline"
       id="g483">
      <path
         d="m0 0h256v256h-256z"
         style="fill:none"
         id="path475" />
      <path
         d="m38 21.99c20.33-14.67 49.08-15.93 70.73-3.38 24.41-4.23 50.22-0.21 72 11.66 24.31 13.06 43.4 35.49 52.29 61.63 6.11 17.69 7.53 36.92 4.35 55.35 7.82 13.75 10.53 30.3 7.36 45.81-3.35 17.11-13.9 32.62-28.49 42.15-20.2 13.58-47.95 14.35-68.99 2.17-23.43 4.03-48.14 0.54-69.34-10.28-24.64-12.38-44.29-34.28-53.9-60.13-6.96-18.47-8.71-38.79-5.4-58.23-7.99-13.99-10.58-30.9-7.17-46.64 3.38-16.08 13.11-30.69 26.56-40.11z"
         style="fill:#fff"
         id="path477" />
      <path
         d="m49 34.98c12.35-8.29 28.55-10.36 42.62-5.57 5 1.59 9.5 4.34 14.02 6.93 17.64-3.85 36.36-3.29 53.43 2.82 27.17 9.39 49.35 31.92 58.27 59.25 5.66 16.66 6.04 34.8 2.31 51.93 4.4 7.21 8.19 15.01 9.08 23.51 2.18 16.01-4.34 32.79-16.61 43.27-11.98 10.56-29.28 14.58-44.7 10.37-6.15-1.49-11.66-4.68-17.08-7.83-18.58 4.07-38.36 3.17-56.13-3.82-26.23-9.99-47.36-32.31-55.83-59.07-5.43-16.45-5.7-34.27-2.03-51.13-5.67-8.84-9.68-19.02-9.48-29.67-0.15-16.24 8.53-32.15 22.13-40.99z"
         style="fill:#58b1dd"
         id="path479" />
      <path
         d="m113.41 60.77c15.99-2.42 32.84 0.03 47.11 7.77 6.24 3.46 12.28 8.14 15.18 14.86 1.89 4.42 2.1 10.19-1.39 13.89-3.78 3.87-9.95 5.06-15.02 3.43-5.87-2.46-8.79-8.61-13.77-12.27-6.26-5.16-14.69-6.55-22.58-6.41-5.77 0.25-11.95 1.56-16.16 5.8-3.89 4.15-5.33 11.26-1.54 15.93 3.58 4.13 9.11 5.67 14.18 7.08 9.67 2.42 19.45 4.37 29.16 6.66 10.1 2.31 20.3 6.73 26.97 14.96 11.5 14.9 8.91 38.53-5.39 50.73-11.44 10.13-27.35 12.93-42.17 13.02-15.82-0.23-32.73-3.47-44.89-14.29-6.1-5.5-11.23-13.8-9.39-22.29 2.01-8.44 13.6-11.64 20.17-6.45 5.02 4.03 7.74 10.16 12.58 14.37 5.79 5.31 13.86 7.42 21.58 7.23 7.57 0.2 15.61-2.12 20.8-7.88 3.53-3.89 5.4-9.81 3.11-14.79-1.88-4.68-6.71-7.23-11.33-8.49-8.52-2.23-17.1-4.26-25.62-6.51-9.36-2.29-19.09-4.38-27.14-9.96-6.28-4.17-11.04-10.68-12.57-18.1-2.57-11.64-0.73-25.07 7.73-33.96 7.74-8.61 19.22-12.61 30.39-14.33z"
         style="fill:#fff"
         id="path481" />
    </g>
    <g
       transform="matrix(.17125 0 0 .17125 26.953 206.42)"
       style="display:inline"
       id="g493">
      <g
         transform="translate(13.065 -7.1263)"
         id="g491">
        <rect
           class="st0"
           transform="matrix(.9482 -.3176 .3176 .9482 -36.02 50.637)"
           x="128.5"
           y="127.3"
           width="17.6"
           height="17"
           style="fill:#fff"
           id="rect485" />
        <rect
           class="st0"
           transform="matrix(.9482 -.3176 .3176 .9482 -36.02 50.637)"
           x="128.5"
           y="127.3"
           width="17.6"
           height="17"
           style="fill:#fff"
           id="rect487" />
        <path
           class="st0"
           d="m194.6 118.5c-12.9-43-31.5-53-74.5-40.1s-53 31.5-40.1 74.5 31.5 53 74.5 40.1 53-31.5 40.1-74.5zm-21.7 27.9-8.1 2.7 2.8 8.4c1.1 3.4-0.7 7.1-4.1 8.2-0.7 0.2-1.5 0.4-2.2 0.3-2.6-0.1-5.1-1.8-6-4.4l-2.8-8.4-16.7 5.6 2.8 8.4c1.1 3.4-0.7 7.1-4.1 8.2-0.7 0.2-1.5 0.4-2.2 0.3-2.6-0.1-5.1-1.8-6-4.4l-2.8-8.4-8.1 2.7c-0.7 0.2-1.5 0.4-2.2 0.3-2.6-0.1-5.1-1.8-6-4.4-1.1-3.4 0.7-7.1 4.1-8.2l8.1-2.7-5.4-16.1-8.1 2.7c-0.7 0.2-1.5 0.4-2.2 0.3-2.6-0.1-5.1-1.8-6-4.4-1.1-3.4 0.7-7.1 4.1-8.2l8.1-2.7-2.8-8.4c-1.1-3.4 0.7-7.1 4.1-8.2s7.1 0.7 8.2 4.1l2.8 8.4 16.7-5.6-2.8-8.4c-1.1-3.4 0.7-7.1 4.1-8.2s7.1 0.7 8.2 4.1l2.8 8.4 8.1-2.7c3.4-1.1 7.1 0.7 8.2 4.1s-0.7 7.1-4.1 8.2l-8.1 2.7 5.4 16.1 8.1-2.7c3.4-1.1 7.1 0.7 8.2 4.1s-0.7 7.1-4.1 8.2z"
           style="fill:#fff"
           id="path489" />
      </g>
    </g>
    <g
       transform="matrix(.10015 0 0 .10015 133.36 216.6)"
       style="display:inline"
       id="g499">
      <path
         d="m41.255 185.52v40.2l37.589-21.37c10.478 3.02 21.616 4.65 33.156 4.65 61.86 0 112-46.79 112-104.5 0-57.714-50.14-104.5-112-104.5-61.856 0-112 46.786-112 104.5 0 32.68 16.078 61.86 41.255 81.02z"
         style="fill:#fff"
         id="path495" />
      <path
         d="m100.04 75.878-60.401 63.952 54.97-30.16 28.721 30.16 60.06-63.952-54.36 29.632z"
         style="fill:#58b1dd"
         id="path497" />
    </g>
    <g
       transform="matrix(.50639 0 0 .50639 44.48 230.13)"
       style="display:inline;stroke-width:2.2771"
       id="g505">
      <rect
         x="235.48"
         y="34.963"
         width="41.199"
         height="24.757"
         style="fill:#58b1dd;stroke-linecap:round;stroke-width:2.2771;stroke:#fff"
         id="rect501" />
      <path
         d="m276.68 34.963-20.789 10.394-20.411-10.394"
         style="fill:none;stroke-width:2.2771;stroke:#fff"
         id="path503" />
    </g>
    <g
       transform="matrix(.543 0 0 .543 -215.62 155.55)"
       style="display:inline;fill:#58b1dd;stroke-width:1.7218"
       id="g523">
      <rect
         x="415.4"
         y="165.18"
         width="37.609"
         height="30.711"
         style="fill:#58b1dd;stroke-linecap:round;stroke-width:1.7218;stroke:#fff"
         id="rect507" />
      <rect
         x="448.91"
         y="165.18"
         width="4.0919"
         height="4.0919"
         style="fill:#58b1dd;stroke-linecap:round;stroke-width:1.7218;stroke:#fff"
         id="rect509" />
      <rect
         x="444.82"
         y="165.18"
         width="4.0919"
         height="4.0919"
         style="fill:#58b1dd;stroke-linecap:round;stroke-width:1.7218;stroke:#fff"
         id="rect511" />
      <rect
         x="440.73"
         y="165.18"
         width="4.0919"
         height="4.0919"
         style="fill:#58b1dd;stroke-linecap:round;stroke-width:1.7218;stroke:#fff"
         id="rect513" />
      <rect
         x="415.4"
         y="165.18"
         width="25.333"
         height="4.0919"
         style="fill:#58b1dd;stroke-linecap:round;stroke-width:1.7218;stroke:#fff"
         id="rect515" />
      <circle
         cx="424.21"
         cy="182.86"
         r="2.1883"
         style="fill:#58b1dd;stroke-linecap:round;stroke-width:1.7218;stroke:#fff"
         id="circle517" />
      <circle
         cx="434.19"
         cy="182.86"
         r="2.1883"
         style="fill:#58b1dd;stroke-linecap:round;stroke-width:1.7218;stroke:#fff"
         id="circle519" />
      <circle
         cx="444.17"
         cy="182.86"
         r="2.1883"
         style="fill:#58b1dd;stroke-linecap:round;stroke-width:1.7218;stroke:#fff"
         id="circle521" />
    </g>
  </g>
  <g
     id="g545">
    <circle
       cx="30.865"
       cy="88.84"
       r="18.336"
       style="fill:#803b9c;stroke-width:.63316"
       id="circle527" />
    <path
       d="m19.906 102.38v12.02h19.935s-1.1303-3.7023-0.16752-3.7054l6.8268-0.022s-3.183-9.9679 2.1359-9.9679c5.3189 0 4.0624-1.9684 3.7274-2.471-0.33506-0.50256-4.1881-6.1146-4.1881-6.1146z"
       style="fill:#803b9c;stroke-linecap:round;stroke-linejoin:round;stroke-width:1.2663;stroke:#803b9c"
       id="path529" />
    <g
       transform="matrix(.63316 0 0 .63316 -14.395 8.4878)"
       id="g543">
      <circle
         cx="71.482"
         cy="126.91"
         r="15.46"
         style="fill:#fff"
         id="circle531" />
      <path
         d="m77.2 138.87c0.53689 4.9609 8.7313 5.1594 8.7313 5.1594s-5.0932-4.0018-3.4727-7.8714c1.3132-3.1356-5.2586 2.712-5.2586 2.712z"
         style="fill:#fff"
         id="path533" />
      <g
         transform="translate(-.088173 .74216)"
         style="fill:#803b9c"
         id="g541">
        <circle
           cx="63.566"
           cy="127"
           r="1.9182"
           style="fill:#803b9c"
           id="circle535" />
        <circle
           cx="71.57"
           cy="127"
           r="1.9182"
           style="fill:#803b9c"
           id="circle537" />
        <circle
           cx="79.573"
           cy="127"
           r="1.9182"
           style="fill:#803b9c"
           id="circle539" />
      </g>
    </g>
  </g>
  <g
     id="g569">
    <g
       transform="translate(190.04 43.953)"
       id="g563">
      <path
         transform="scale(.26458)"
         d="m889.61 284.69v118.26h-9.9551v108.67h301.77v-121.04l-36.451-14.939-48.701 48.998v-33.936l-36.449-14.938-49.299 49.596-30.477-22.408h-35.082v-118.26z"
         style="fill:#803b9c;paint-order:normal"
         id="path547" />
      <g
         id="g559">
        <circle
           cx="232.53"
           cy="60.176"
           r="6.5218"
           style="fill:#803b9c;paint-order:normal"
           id="circle549" />
        <circle
           cx="252.49"
           cy="51.125"
           r="6.6799"
           style="fill:#803b9c;paint-order:normal"
           id="circle551" />
        <circle
           cx="241.58"
           cy="54.445"
           r="6.6799"
           style="fill:#803b9c;paint-order:normal"
           id="circle553" />
        <rect
           x="232.1"
           y="55.078"
           width="26.798"
           height="11.621"
           style="fill:#803b9c;paint-order:normal"
           id="rect555" />
        <circle
           cx="259.34"
           cy="60.176"
           r="6.5218"
           style="fill:#803b9c;paint-order:normal"
           id="circle557" />
      </g>
      <path
         d="m280.61 100.93-13.327 13.326-8.0722-6.0863-3.524 1.0891v16.209l3.4596 1.2174 8.0727-6.0868 13.454 13.39 8.1366-3.524v-26.076zm0 9.6742v13.647l-8.9696-6.8553zm-21.399 2.2426 4.9332 4.677-4.9332 4.5487z"
         style="fill:#fff"
         id="path561" />
    </g>
    <g
       transform="matrix(.053997 0 0 .053997 236.31 17.537)"
       style="fill:none"
       id="g567">
      <g
         id="logo-square">
        <g
           id="gitlab_logo"
           transform="translate(2,19)" />
      </g>
    </g>
  </g>
</svg>
