<svg width="508mm" height="285.75mm" version="1.1" viewBox="0 0 508 285.75" xmlns="http://www.w3.org/2000/svg" xmlns:xlink="http://www.w3.org/1999/xlink">
 <defs>
  <clipPath>
   <use width="100%" height="100%" xlink:href="#g5013"/>
  </clipPath>
 </defs>
 <path d="m65.947 143.04c6.9784 5.6885 8.5659 3.9026 8.5659 3.9026s-4.8286-2.6458-4.5971-5.6224c0.23151-2.9766-3.9688 1.7198-3.9688 1.7198z" fill="none" stroke="#000" stroke-width=".26458px"/>
 <rect x="-.0073071" y="-1.522" width="511.44" height="290.25" fill="#037364"/>
 <g transform="matrix(.83145 0 0 .83145 253.18 83.233)">
  <path d="m37.488 21.047c0-6.256-5.07-11.349-11.349-11.349s-11.349 5.07-11.349 11.349c0 4.651 2.791 8.628 6.767 10.395-0.372 0.628-1.279 1.488-2.186 2.047-1.744 1.116-3.814 1.698-5.721 2.535-0.326 0.14-0.814 0.349-0.837 0.581-0.14 1.07-0.14 2.163-0.209 3.233 0.233 0.07 0.349 0.14 0.465 0.14 5.395 1 10.279-0.279 14.698-3.093 4.605-2.932 9.721-7.699 9.721-15.838z" fill="#fff"/>
  <path d="m26.326 13.465c-4.14-0.023-7.535 3.279-7.581 7.372-0.047 4.186 3.279 7.605 7.419 7.628 4.163 0.023 7.581-3.326 7.581-7.465-1e-3 -4.116-3.326-7.488-7.419-7.535z" fill="#414141"/>
  <path d="m24.86 25c-0.558 0-0.953-0.116-1.209-0.349s-0.395-0.628-0.395-1.163v-1.279c0-0.558-0.233-0.86-0.698-0.86v-0.698c0.465 0 0.698-0.302 0.698-0.907v-1.209c0-0.535 0.14-0.907 0.395-1.163s0.675-0.372 1.209-0.372v0.721c-0.488 0-0.721 0.279-0.721 0.837v1.209c0 0.651-0.233 1.07-0.674 1.233v0.023c0.442 0.14 0.674 0.535 0.674 1.209v1.209c0 0.302 0.047 0.512 0.163 0.651 0.116 0.14 0.302 0.209 0.558 0.209z" fill="#fff"/>
  <path d="m27.628 24.302c0.256 0 0.442-0.07 0.558-0.209 0.116-0.14 0.163-0.349 0.163-0.651v-1.209c0-0.651 0.233-1.047 0.674-1.209v-0.024c-0.442-0.163-0.674-0.581-0.674-1.233v-1.209c0-0.558-0.233-0.837-0.721-0.837v-0.721c0.535 0 0.953 0.116 1.209 0.372s0.395 0.651 0.395 1.163v1.233c0 0.605 0.233 0.907 0.698 0.907v0.698c-0.465 0-0.698 0.279-0.698 0.86v1.279c0 0.535-0.14 0.907-0.395 1.163-0.256 0.233-0.674 0.349-1.209 0.349z" fill="#fff"/>
 </g>
 <circle cx="37.615" cy="131.14" r="28.96" fill="#01c5ab"/>
 <path d="m20.307 152.53v18.984h31.485s-1.7852-5.8473-0.26458-5.8522l10.782-0.0347s-5.0271-15.743 3.3734-15.743 6.4161-3.1088 5.8869-3.9026c-0.52917-0.79375-6.6146-9.6573-6.6146-9.6573z" fill="#01c5ab" stroke="#01c5ab" stroke-linecap="round" stroke-linejoin="round" stroke-width="2"/>
 <g transform="translate(-2.7509 6.2197)">
  <rect x="158.22" y="96.705" width="14.817" height="78.581" fill="#01c5ab"/>
  <rect x="159.08" y="101.47" width="5.9531" height="56.621" fill="#414141"/>
  <g fill="#01c5ab">
   <rect x="171.38" y="161.16" width="10.716" height="4.2995"/>
   <rect x="180.31" y="156.77" width="4.2333" height="34.727"/>
   <rect x="149.49" y="186.93" width="35.057" height="4.5641"/>
  </g>
 </g>
 <g transform="translate(-33.867 4.2333)">
  <circle cx="71.482" cy="126.91" r="15.46" fill="#414141"/>
  <path d="m77.2 138.87c0.53689 4.9609 8.7313 5.1594 8.7313 5.1594s-5.0932-4.0018-3.4727-7.8714c1.3132-3.1356-5.2586 2.712-5.2586 2.712z" fill="#414141"/>
  <g transform="translate(-.088173 .74216)" fill="#01c5ab">
   <circle cx="63.566" cy="127" r="1.9182"/>
   <circle cx="71.57" cy="127" r="1.9182"/>
   <circle cx="79.573" cy="127" r="1.9182"/>
  </g>
 </g>
 <g transform="translate(-28.615 6.35)">
  <rect x="109.9" y="100.97" width="16.867" height="10.12" fill="#fff"/>
  <path d="m113.02 104.15h10.4" fill="none" stroke="#019681" stroke-linecap="round"/>
  <path d="m113.02 107.71h10.4" fill="none" stroke="#019681" stroke-linecap="round"/>
 </g>
 <g transform="translate(-23.283 4.2333)">
  <rect x="115.82" y="108.28" width="23.482" height="14.817" fill="#019681"/>
  <g fill="#fff" stroke="#fff" stroke-linecap="round">
   <path d="m118.99 112.03h17.284"/>
   <path d="m118.99 115.54h17.284"/>
   <path d="m118.99 119.06h17.284"/>
  </g>
 </g>
 <g transform="translate(-23.283 4.7625)">
  <rect x="118.24" y="133.12" width="26.855" height="15.677" fill="#019681"/>
  <g fill="none" stroke="#036252" stroke-linecap="round">
   <path d="m121.48 136.49h17.284"/>
   <path d="m121.48 140.01h17.284"/>
   <path d="m121.48 143.52h17.284"/>
  </g>
 </g>
 <g transform="translate(-23.283 4.2333)">
  <rect x="122.3" y="121.71" width="21.034" height="14.023" fill="#036252"/>
  <g fill="none" stroke="#01c5ab" stroke-linecap="round" stroke-width=".92816">
   <path d="m125.51 125.04h14.738"/>
   <path d="m125.51 128.6h14.738"/>
   <path d="m125.51 132.15h14.738"/>
  </g>
 </g>
 <g transform="translate(-23.283 4.2333)">
  <rect x="140.39" y="127.2" width="23.879" height="12.766" fill="#01ad98"/>
  <g fill="none" stroke="#036252" stroke-linecap="round">
   <path d="m143.79 130.13h17.284"/>
   <path d="m143.79 133.65h17.284"/>
   <path d="m143.79 137.16h17.284"/>
  </g>
 </g>
 <g transform="translate(-23.283 4.7625)">
  <rect x="114.93" y="146.61" width="20.439" height="12.766" fill="#01ad98"/>
  <g fill="none" stroke="#036252" stroke-linecap="round" stroke-width=".80947">
   <path d="m118.11 149.73h11.024"/>
   <path d="m118.11 153.34h11.024"/>
   <path d="m118.11 156.95h11.024"/>
  </g>
 </g>
 <g transform="translate(-23.283 4.2333)">
  <rect x="136.89" y="117.51" width="16.867" height="10.12" fill="#01c5ab"/>
  <path d="m140.25 120.95h10.4" fill="#fff" stroke="#fff" stroke-linecap="round"/>
  <path d="m140.25 124.51h10.4" fill="#fff" stroke="#fff" stroke-linecap="round"/>
 </g>
 <g transform="translate(-23.283 4.2333)">
  <rect x="138.34" y="138.54" width="17.926" height="10.12" fill="#fff"/>
  <path d="m141.95 141.64h10.4" fill="none" stroke="#019681" stroke-linecap="round"/>
  <path d="m141.95 145.2h10.4" fill="none" stroke="#019681" stroke-linecap="round"/>
 </g>
 <g transform="translate(-24.125 4.36)">
  <rect x="110.03" y="158.92" width="16.867" height="10.12" fill="#fff"/>
  <path d="m112.9 162.08h10.4" fill="none" stroke="#019681" stroke-linecap="round"/>
  <path d="m112.9 165.64h10.4" fill="none" stroke="#019681" stroke-linecap="round"/>
 </g>
 <g transform="translate(-23.283 4.2333)">
  <rect x="120.95" y="154.05" width="19.116" height="11.774" fill="#019681"/>
  <g fill="none" stroke="#036252" stroke-linecap="round" stroke-width=".87832">
   <path d="m123.85 156.33h13.105"/>
   <path d="m123.85 159.91h13.105"/>
   <path d="m123.85 163.48h13.105"/>
  </g>
 </g>
 <g transform="translate(-23.283 4.2333)">
  <rect x="126.9" y="144.89" width="21.564" height="14.023" fill="#036252"/>
  <g fill="none" stroke="#01c5ab" stroke-linecap="round" stroke-width=".92008">
   <path d="m130.46 148.24h14.466"/>
   <path d="m130.46 151.79h14.466"/>
   <path d="m130.46 155.35h14.466"/>
  </g>
 </g>
 <g transform="translate(-75.849 35.244)" fill="#01dcc7">
  <g stroke-width=".26458" aria-label="10011101">
   <path d="m262.16 110.89h1.3332v-5.1211h-1.3126q-0.18087 0-0.31006-0.12403-0.12403-0.12919-0.12403-0.31005 0-0.18087 0.12403-0.30489 0.12919-0.1292 0.31006-0.1292h2.1807v5.9893h0.86817v-1.8087q0-0.1757 0.12402-0.30489 0.12919-0.12919 0.31006-0.12919t0.30489 0.12919q0.12919 0.12402 0.12919 0.30489v2.2428q0 0.18087-0.12919 0.31006-0.12402 0.12403-0.30489 0.12403h-3.5037q-0.18087 0-0.31006-0.12919-0.12403-0.13436-0.12403-0.31523 0-0.1757 0.12403-0.29972 0.12919-0.12403 0.31006-0.12403z" fill="#fff"/>
   <path d="m268.12 110.92v-5.1935q0-0.34107 0.24804-0.58911 0.24805-0.24805 0.58911-0.24805h2.7078q0.3359 0 0.57878 0.24805 0.24804 0.24804 0.24804 0.58911v5.1935q0 0.34623-0.24804 0.59428-0.24288 0.24288-0.58912 0.24288h-2.6975q-0.3514 0-0.59427-0.24288-0.24288-0.24805-0.24288-0.59428zm3.514-0.031v-5.1211h-2.6458v5.1211z" fill="#01dcc7"/>
   <path d="m274.51 110.92v-5.1935q0-0.34107 0.24805-0.58911 0.24805-0.24805 0.58911-0.24805h2.7078q0.33589 0 0.57877 0.24805 0.24805 0.24804 0.24805 0.58911v5.1935q0 0.34623-0.24805 0.59428-0.24288 0.24288-0.58911 0.24288h-2.6975q-0.3514 0-0.59428-0.24288-0.24288-0.24805-0.24288-0.59428zm3.514-0.031v-5.1211h-2.6458v5.1211z" fill="#fff"/>
   <g fill="#01dcc7">
    <path d="m281.32 110.89h1.3332v-5.1211h-1.3126q-0.18087 0-0.31006-0.12403-0.12402-0.12919-0.12402-0.31005 0-0.18087 0.12402-0.30489 0.12919-0.1292 0.31006-0.1292h2.1807v5.9893h0.86817v-1.8087q0-0.1757 0.12402-0.30489 0.12919-0.12919 0.31006-0.12919t0.30489 0.12919q0.12919 0.12402 0.12919 0.30489v2.2428q0 0.18087-0.12919 0.31006-0.12402 0.12403-0.30489 0.12403h-3.5037q-0.18087 0-0.31006-0.12919-0.12402-0.13436-0.12402-0.31523 0-0.1757 0.12402-0.29972 0.12919-0.12403 0.31006-0.12403z"/>
    <path d="m287.71 110.89h1.3333v-5.1211h-1.3126q-0.18086 0-0.31005-0.12403-0.12403-0.12919-0.12403-0.31005 0-0.18087 0.12403-0.30489 0.12919-0.1292 0.31005-0.1292h2.1808v5.9893h0.86816v-1.8087q0-0.1757 0.12403-0.30489 0.12919-0.12919 0.31006-0.12919 0.18086 0 0.30489 0.12919 0.12919 0.12402 0.12919 0.30489v2.2428q0 0.18087-0.12919 0.31006-0.12403 0.12403-0.30489 0.12403h-3.5037q-0.18086 0-0.31005-0.12919-0.12403-0.13436-0.12403-0.31523 0-0.1757 0.12403-0.29972 0.12919-0.12403 0.31005-0.12403z"/>
    <path d="m294.09 110.89h1.3332v-5.1211h-1.3126q-0.18087 0-0.31006-0.12403-0.12402-0.12919-0.12402-0.31005 0-0.18087 0.12402-0.30489 0.12919-0.1292 0.31006-0.1292h2.1808v5.9893h0.86816v-1.8087q0-0.1757 0.12402-0.30489 0.1292-0.12919 0.31006-0.12919 0.18087 0 0.30489 0.12919 0.1292 0.12402 0.1292 0.30489v2.2428q0 0.18087-0.1292 0.31006-0.12402 0.12403-0.30489 0.12403h-3.5037q-0.18087 0-0.31006-0.12919-0.12402-0.13436-0.12402-0.31523 0-0.1757 0.12402-0.29972 0.12919-0.12403 0.31006-0.12403z"/>
   </g>
   <path d="m300.06 110.92v-5.1935q0-0.34107 0.24805-0.58911 0.24805-0.24805 0.58911-0.24805h2.7078q0.3359 0 0.57878 0.24805 0.24805 0.24804 0.24805 0.58911v5.1935q0 0.34623-0.24805 0.59428-0.24288 0.24288-0.58911 0.24288h-2.6975q-0.3514 0-0.59428-0.24288-0.24288-0.24805-0.24288-0.59428zm3.514-0.031v-5.1211h-2.6458v5.1211z" fill="#fff"/>
   <path d="m306.87 110.89h1.3332v-5.1211h-1.3126q-0.18087 0-0.31006-0.12403-0.12403-0.12919-0.12403-0.31005 0-0.18087 0.12403-0.30489 0.12919-0.1292 0.31006-0.1292h2.1807v5.9893h0.86817v-1.8087q0-0.1757 0.12402-0.30489 0.12919-0.12919 0.31006-0.12919 0.18086 0 0.30489 0.12919 0.12919 0.12402 0.12919 0.30489v2.2428q0 0.18087-0.12919 0.31006-0.12403 0.12403-0.30489 0.12403h-3.5037q-0.18087 0-0.31006-0.12919-0.12403-0.13436-0.12403-0.31523 0-0.1757 0.12403-0.29972 0.12919-0.12403 0.31006-0.12403z" fill="#fff"/>
  </g>
  <g transform="matrix(.26458 0 0 .26458 .069831 0)" aria-label="10101001">
   <path d="m990.57 380.61h5.0391v-19.355h-4.9609q-0.68359 0-1.1719-0.46875-0.46875-0.48828-0.46875-1.1719 0-0.6836 0.46875-1.1524 0.48828-0.48828 1.1719-0.48828h8.2422v22.637h3.2813v-6.8359q0-0.66406 0.4687-1.1523 0.4883-0.48828 1.1719-0.48828t1.1523 0.48828q0.4883 0.46875 0.4883 1.1523v8.4766q0 0.68359-0.4883 1.1719-0.4687 0.46875-1.1523 0.46875h-13.242q-0.6836 0-1.1719-0.48828-0.46875-0.50781-0.46875-1.1914 0-0.66406 0.46875-1.1328 0.48828-0.46875 1.1719-0.46875z" fill="#01dcc7"/>
   <path d="m1013.1 380.73v-19.629q0-1.2891 0.9375-2.2266t2.2265-0.9375h10.234q1.2695 0 2.1875 0.9375 0.9375 0.9375 0.9375 2.2266v19.629q0 1.3086-0.9375 2.2461-0.918 0.91797-2.2266 0.91797h-10.195q-1.3281 0-2.2461-0.91797-0.9179-0.9375-0.9179-2.2461zm13.281-0.11719v-19.355h-10v19.355z" fill="#fff"/>
   <path d="m1038.8 380.61h5.039v-19.355h-4.9609q-0.6836 0-1.1719-0.46875-0.4687-0.48828-0.4687-1.1719 0-0.6836 0.4687-1.1524 0.4883-0.48828 1.1719-0.48828h8.2422v22.637h3.2812v-6.8359q0-0.66406 0.4688-1.1523 0.4883-0.48828 1.1718-0.48828 0.6836 0 1.1524 0.48828 0.4883 0.46875 0.4883 1.1523v8.4766q0 0.68359-0.4883 1.1719-0.4688 0.46875-1.1524 0.46875h-13.242q-0.6836 0-1.1719-0.48828-0.4688-0.50781-0.4688-1.1914 0-0.66406 0.4688-1.1328 0.4883-0.46875 1.1719-0.46875z" fill="#01dcc7"/>
   <path d="m1061.4 380.73v-19.629q0-1.2891 0.9375-2.2266t2.2266-0.9375h10.234q1.2695 0 2.1875 0.9375 0.9375 0.9375 0.9375 2.2266v19.629q0 1.3086-0.9375 2.2461-0.918 0.91797-2.2266 0.91797h-10.195q-1.3281 0-2.2461-0.91797-0.918-0.9375-0.918-2.2461zm13.281-0.11719v-19.355h-10v19.355z" fill="#01dcc7"/>
   <path d="m1087.1 380.61h5.0391v-19.355h-4.961q-0.6836 0-1.1718-0.46875-0.4688-0.48828-0.4688-1.1719 0-0.6836 0.4688-1.1524 0.4882-0.48828 1.1718-0.48828h8.2422v22.637h3.2813v-6.8359q0-0.66406 0.4687-1.1523 0.4883-0.48828 1.1719-0.48828t1.1523 0.48828q0.4883 0.46875 0.4883 1.1523v8.4766q0 0.68359-0.4883 1.1719-0.4687 0.46875-1.1523 0.46875h-13.242q-0.6836 0-1.1719-0.48828-0.4687-0.50781-0.4687-1.1914 0-0.66406 0.4687-1.1328 0.4883-0.46875 1.1719-0.46875z" fill="#fff"/>
   <path d="m1109.7 380.73v-19.629q0-1.2891 0.9375-2.2266t2.2265-0.9375h10.234q1.2695 0 2.1875 0.9375 0.9375 0.9375 0.9375 2.2266v19.629q0 1.3086-0.9375 2.2461-0.918 0.91797-2.2266 0.91797h-10.195q-1.3281 0-2.2461-0.91797-0.9179-0.9375-0.9179-2.2461zm13.281-0.11719v-19.355h-10v19.355z" fill="#01dcc7"/>
   <path d="m1133.8 380.73v-19.629q0-1.2891 0.9375-2.2266t2.2266-0.9375h10.234q1.2696 0 2.1875 0.9375 0.9375 0.9375 0.9375 2.2266v19.629q0 1.3086-0.9375 2.2461-0.9179 0.91797-2.2265 0.91797h-10.195q-1.3282 0-2.2461-0.91797-0.918-0.9375-0.918-2.2461zm13.281-0.11719v-19.355h-10v19.355z" fill="#01dcc7"/>
   <path d="m1159.6 380.61h5.039v-19.355h-4.9609q-0.6836 0-1.1719-0.46875-0.4687-0.48828-0.4687-1.1719 0-0.6836 0.4687-1.1524 0.4883-0.48828 1.1719-0.48828h8.2422v22.637h3.2812v-6.8359q0-0.66406 0.4688-1.1523 0.4883-0.48828 1.1719-0.48828t1.1523 0.48828q0.4883 0.46875 0.4883 1.1523v8.4766q0 0.68359-0.4883 1.1719-0.4687 0.46875-1.1523 0.46875h-13.242q-0.6836 0-1.1719-0.48828-0.4687-0.50781-0.4687-1.1914 0-0.66406 0.4687-1.1328 0.4883-0.46875 1.1719-0.46875z" fill="#fff"/>
  </g>
 </g>
 <g transform="matrix(1.1112 0 0 1.0743 246.23 111.61)">
  <path d="m49.383 24.873c-0.907-2.15-2.785-3.97-5.214-5.083-1.12-3.765-4.254-7.53-8.928-7.53-0.149 0-0.299 4e-3 -0.451 0.011-1.949-1.398-3.843-2.079-5.771-2.079-1.162 0-2.35 0.257-3.541 0.764-0.882-0.462-1.893-0.703-2.975-0.703-2.392 0-4.661 1.105-6.061 2.399-0.441-0.104-0.9-0.156-1.374-0.156-3.568 0-7.104 2.948-8.06 6.522-3.076 1.116-5.322 3.143-6.377 5.781-1.023 2.559-0.798 5.42 0.617 7.85 1.406 2.413 3.866 3.854 6.58 3.854 1.041 0 2.045-0.213 2.96-0.622 1.65 1.5 3.773 2.397 5.784 2.397 0.701 0 1.372-0.104 2.007-0.309 1.628 1.339 4.123 1.841 6.148 1.841 2.389 0 4.465-0.631 5.841-1.733 0.892 0.413 1.874 0.627 2.899 0.627h1e-3c2.563 0 5.212-1.366 6.659-3.265 0.807 0.331 1.656 0.502 2.515 0.502h1e-3c2.801-1e-3 5.402-1.829 6.626-4.658 0.934-2.159 0.974-4.375 0.114-6.41z" fill="#01c5ab"/>
  <g fill="#037364">
   <path d="m16.07 38.256v-8.804c0-1.093-0.889-1.981-1.981-1.981h-3.299v1.4h3.299c0.32 0 0.581 0.261 0.581 0.581v8.569c0.464 0.123 0.934 0.201 1.4 0.235z"/>
   <path d="m22.158 23.196h-4.432c-0.32 0-0.581-0.261-0.581-0.581v-10.539c-0.252 0.186-0.488 0.378-0.702 0.576-0.228-0.054-0.461-0.093-0.698-0.119v10.082c0 1.093 0.889 1.981 1.981 1.981h4.432c0.32 0 0.58 0.26 0.58 0.58v3.282h1.4v-3.282c1e-3 -1.092-0.888-1.98-1.98-1.98z"/>
   <path d="m40.803 28.794v-1.256h-1.401v1.256c0 0.32-0.26 0.581-0.58 0.581h-5.612v-10.041c0-1.092-0.888-1.981-1.981-1.981h-3.817v1.4h3.817c0.32 0 0.58 0.26 0.58 0.581v19.171c0.453 0.11 0.922 0.174 1.4 0.191v-7.92h5.611c1.094-1e-3 1.983-0.889 1.983-1.982z"/>
   <path d="m23.439 34.25c-1.72 0-3.12-1.4-3.12-3.12 0-1.721 1.4-3.121 3.12-3.121 1.721 0 3.12 1.4 3.12 3.121 0 1.72-1.4 3.12-3.12 3.12zm0-4.946c-1.006 0-1.825 0.819-1.825 1.826s0.819 1.826 1.825 1.826c1.007 0 1.825-0.819 1.825-1.826s-0.819-1.826-1.825-1.826z"/>
   <path d="m8.525 31.28c-1.721 0-3.12-1.4-3.12-3.121s1.4-3.12 3.12-3.12 3.12 1.4 3.12 3.12c0 1.721-1.399 3.121-3.12 3.121zm0-4.947c-1.007 0-1.825 0.819-1.825 1.826s0.819 1.826 1.825 1.826 1.825-0.819 1.825-1.826c1e-3 -1.007-0.818-1.826-1.825-1.826z"/>
   <path d="m40.114 28.301c-1.721 0-3.12-1.4-3.12-3.12 0-1.721 1.4-3.12 3.12-3.12s3.12 1.4 3.12 3.12c0 1.721-1.4 3.12-3.12 3.12zm0-4.945c-1.007 0-1.825 0.819-1.825 1.825s0.819 1.826 1.825 1.826 1.825-0.819 1.825-1.826-0.819-1.825-1.825-1.825z"/>
   <path d="m25.147 21.161c-1.721 0-3.12-1.4-3.12-3.12 0-1.721 1.4-3.12 3.12-3.12s3.12 1.4 3.12 3.12c1e-3 1.72-1.399 3.12-3.12 3.12zm0-4.946c-1.007 0-1.825 0.819-1.825 1.826 0 1.006 0.819 1.825 1.825 1.825s1.825-0.819 1.825-1.825c1e-3 -1.007-0.818-1.826-1.825-1.826z"/>
  </g>
 </g>
 <g transform="translate(-35.75 24.3)">
  <rect x="126.9" y="144.89" width="21.564" height="14.023" fill="#036252"/>
  <g fill="none" stroke="#01c5ab" stroke-linecap="round" stroke-width=".92008">
   <path d="m130.46 148.24h14.466"/>
   <path d="m130.46 151.79h14.466"/>
   <path d="m130.46 155.35h14.466"/>
  </g>
 </g>
 <g transform="translate(-25.646 -46.016)">
  <rect x="114.93" y="146.61" width="20.439" height="12.766" fill="#01ad98"/>
  <g fill="none" stroke="#036252" stroke-linecap="round" stroke-width=".9064">
   <path d="m118.16 149.77h14.012"/>
   <path d="m118.16 153.34h14.012"/>
   <path d="m118.16 156.9h14.012"/>
  </g>
 </g>
 <rect x="453.89" y="205.51" width=".48155" height=".093544" fill="#036252"/>
 <g transform="matrix(1.1548,0,0,1.1548,100.25,-35.814)">
  <g fill="#414141" stroke="#feffff">
   <g stroke-linecap="round" stroke-linejoin="round">
    <rect x="249.22" y="158.63" width="8.808" height="12.862" ry="2.5395" stroke-width="1.6855"/>
    <rect x="244.22" y="167.69" width="7.684" height="7.4836" ry="2.0316" stroke-width="2"/>
    <rect transform="matrix(.70358 .71062 -.71062 .70358 0 0)" x="284.59" y="-57.767" width="4.8595" height="4.7327" ry="1.6698" stroke-width="1.2648"/>
   </g>
   <path d="m243.04 163.26s1.7496-1.9216 5.6522-1.9216" stroke-width="1.265"/>
   <path d="m264.51 163.25s-2.6306-1.9869-5.9664-1.9869" stroke-width="1.265"/>
   <rect transform="matrix(.70358 .71062 -.71062 .70358 0 0)" x="301.82" y="-75.165" width="4.8595" height="4.7327" ry="1.6698" stroke-linecap="round" stroke-linejoin="round" stroke-width="1.2648"/>
   <rect x="255.46" y="167.69" width="7.684" height="7.4836" ry="2.0316" stroke-linecap="round" stroke-linejoin="round" stroke-width="2"/>
  </g>
  <g transform="matrix(.30133 0 0 .30133 235.34 128.1)">
   <g transform="translate(-8.7921,17.566)" fill="#01c5ab">
    <path d="m69.52-8.3299c-19.714 0.013506-37.184 12.631-43.298 31.271v-20.638h-0.0739c0.0039-0.062568 0.0063-0.12529 0.0072-0.18808-2.43e-4 -1.6033-0.95759-2.9029-2.1384-2.9027-1.1806 2.256e-4 -2.1376 1.2996-2.1378 2.9027 5.3e-5 0.062739 0.0016 0.12548 0.0047 0.18808h-0.07183v59.509h0.10284c-0.01903 0.18847-0.03488 0.37704-0.04754 0.5657 1.79e-4 15.634 21.374 28.308 47.739 28.308 26.365 1.4e-5 47.739-12.674 47.739-28.308-9e-3 -0.25578-0.0245-0.51147-0.0455-0.767h0.1323v-59.509h-0.0739c4e-3 -0.062568 6e-3 -0.12529 7e-3 -0.18808 5e-5 -1.6036-0.95738-2.9036-2.1384-2.9034-1.1808 2.295e-4 -2.1379 1.3001-2.1378 2.9034 5e-5 0.062739 2e-3 0.12546 5e-3 0.18808h-0.0718v21.533c-5.8896-18.986-23.525-31.944-43.502-31.965z" fill="#fff"/>
   </g>
   <path d="m34.613 50.687c-6.8628-1.17e-4 -12.426 7.9093-12.426 17.666-8.3e-5 9.7567 5.5633 17.666 12.426 17.666h52.434c6.8628 1.16e-4 12.426-7.9093 12.426-17.666 8.2e-5 -9.7567-5.5633-17.666-12.426-17.666z" fill="#414141" style="paint-order:normal"/>
   <ellipse cx="34.613" cy="68.353" rx="7.5642" ry="10.754" fill="#fff" style="paint-order:normal"/>
   <ellipse cx="87.048" cy="68.353" rx="7.5642" ry="10.754" fill="#fff" style="paint-order:normal"/>
  </g>
 </g>
 <g transform="translate(-20.116,-33.536)">
  <rect x="332.84" y="165.02" width="12.986" height="12.183" fill="#01c5ab"/>
  <path d="m339.83 172.69v-3.1594q0-0.20748 0.1509-0.35838 0.1509-0.15089 0.35839-0.15089h1.6473q0.20436 0 0.3521 0.15089 0.15089 0.1509 0.15089 0.35838v3.1594q0 0.21062-0.15089 0.36152-0.14774 0.14775-0.35838 0.14775h-1.641q-0.21378 0-0.36153-0.14775-0.14776-0.1509-0.14776-0.36152zm2.1377-0.0189v-3.1154h-1.6096v3.1154z" fill="#036252"/>
  <path d="m336.6 172.67h0.81106v-3.1154h-0.79849q-0.11003 0-0.18862-0.0754-0.0754-0.0786-0.0754-0.18863 0-0.11002 0.0754-0.18547 0.0786-0.0786 0.18862-0.0786h1.3266v3.6435h0.52813v-1.1003q0-0.10688 0.0754-0.18547 0.0786-0.0786 0.18863-0.0786t0.18547 0.0786q0.0786 0.0754 0.0786 0.18547v1.3644q0 0.11003-0.0786 0.18862-0.0754 0.0754-0.18547 0.0754h-2.1314q-0.11002 0-0.18862-0.0786-0.0754-0.0817-0.0754-0.19176 0-0.10689 0.0754-0.18234 0.0786-0.0755 0.18862-0.0755z" fill="#036252"/>
 </g>
 <g transform="translate(-7.1303,-33.536)">
  <rect x="332.84" y="165.02" width="12.986" height="12.183" fill="#01ad98"/>
  <path d="m339.83 172.69v-3.1594q0-0.20748 0.1509-0.35838 0.1509-0.15089 0.35839-0.15089h1.6473q0.20436 0 0.3521 0.15089 0.15089 0.1509 0.15089 0.35838v3.1594q0 0.21062-0.15089 0.36152-0.14774 0.14775-0.35838 0.14775h-1.641q-0.21378 0-0.36153-0.14775-0.14776-0.1509-0.14776-0.36152zm2.1377-0.0189v-3.1154h-1.6096v3.1154z" fill="#414141"/>
  <path d="m336.6 172.67h0.81106v-3.1154h-0.79849q-0.11003 0-0.18862-0.0754-0.0754-0.0786-0.0754-0.18863 0-0.11002 0.0754-0.18547 0.0786-0.0786 0.18862-0.0786h1.3266v3.6435h0.52813v-1.1003q0-0.10688 0.0754-0.18547 0.0786-0.0786 0.18863-0.0786t0.18547 0.0786q0.0786 0.0754 0.0786 0.18547v1.3644q0 0.11003-0.0786 0.18862-0.0754 0.0754-0.18547 0.0754h-2.1314q-0.11002 0-0.18862-0.0786-0.0754-0.0817-0.0754-0.19176 0-0.10689 0.0754-0.18234 0.0786-0.0755 0.18862-0.0755z" fill="#414141"/>
 </g>
 <g transform="translate(5.8556,-33.536)">
  <rect x="332.84" y="165.02" width="12.986" height="12.183" fill="#019681"/>
  <path d="m339.83 172.69v-3.1594q0-0.20748 0.1509-0.35838 0.1509-0.15089 0.35839-0.15089h1.6473q0.20436 0 0.3521 0.15089 0.15089 0.1509 0.15089 0.35838v3.1594q0 0.21062-0.15089 0.36152-0.14774 0.14775-0.35838 0.14775h-1.641q-0.21378 0-0.36153-0.14775-0.14776-0.1509-0.14776-0.36152zm2.1377-0.0189v-3.1154h-1.6096v3.1154z" fill="#fff"/>
  <path d="m336.6 172.67h0.81106v-3.1154h-0.79849q-0.11003 0-0.18862-0.0754-0.0754-0.0786-0.0754-0.18863 0-0.11002 0.0754-0.18547 0.0786-0.0786 0.18862-0.0786h1.3266v3.6435h0.52813v-1.1003q0-0.10688 0.0754-0.18547 0.0786-0.0786 0.18863-0.0786t0.18547 0.0786q0.0786 0.0754 0.0786 0.18547v1.3644q0 0.11003-0.0786 0.18862-0.0754 0.0754-0.18547 0.0754h-2.1314q-0.11002 0-0.18862-0.0786-0.0754-0.0817-0.0754-0.19176 0-0.10689 0.0754-0.18234 0.0786-0.0755 0.18862-0.0755z" fill="#fff"/>
 </g>
 <g transform="translate(18.842,-33.536)">
  <rect x="332.84" y="165.02" width="12.986" height="12.183" fill="#036252"/>
  <path d="m339.83 172.69v-3.1594q0-0.20748 0.1509-0.35838 0.1509-0.15089 0.35839-0.15089h1.6473q0.20436 0 0.3521 0.15089 0.15089 0.1509 0.15089 0.35838v3.1594q0 0.21062-0.15089 0.36152-0.14774 0.14775-0.35838 0.14775h-1.641q-0.21378 0-0.36153-0.14775-0.14776-0.1509-0.14776-0.36152zm2.1377-0.0189v-3.1154h-1.6096v3.1154z" fill="#01c5ab"/>
  <path d="m336.6 172.67h0.81106v-3.1154h-0.79849q-0.11003 0-0.18862-0.0754-0.0754-0.0786-0.0754-0.18863 0-0.11002 0.0754-0.18547 0.0786-0.0786 0.18862-0.0786h1.3266v3.6435h0.52813v-1.1003q0-0.10688 0.0754-0.18547 0.0786-0.0786 0.18863-0.0786t0.18547 0.0786q0.0786 0.0754 0.0786 0.18547v1.3644q0 0.11003-0.0786 0.18862-0.0754 0.0754-0.18547 0.0754h-2.1314q-0.11002 0-0.18862-0.0786-0.0754-0.0817-0.0754-0.19176 0-0.10689 0.0754-0.18234 0.0786-0.0755 0.18862-0.0755z" fill="#01c5ab"/>
 </g>
 <style type="text/css"><![CDATA[
		.st1 {fill:#0078d7;stroke:none;stroke-linecap:butt;stroke-width:0.75}
		.st2 {fill:none;fill-rule:evenodd;font-size:12px;overflow:visible;stroke-linecap:square;stroke-miterlimit:3}
	]]></style>
 <style type="text/css">.st0{fill:#FFFFFF;}</style>
 <style type="text/css"><![CDATA[
		.st1 {fill:#0078d7;stroke:none;stroke-linecap:butt;stroke-width:0.75}
		.st2 {fill:none;fill-rule:evenodd;font-size:12px;overflow:visible;stroke-linecap:square;stroke-miterlimit:3}
	]]></style>
 <g>
  <path d="m420.47 134.66z" fill="none" stroke="#000" stroke-width=".28222px"/>
  <rect x="455.92" y="100.63" width="40.963" height="34.181" fill="#01c5ab"/>
  <g transform="matrix(.75197 0 0 .75197 113.17 36.163)" fill="none" stroke="#036252" stroke-width="1.9948">
   <path d="m472.07 115.13 3.5811-13.365h25.839l-3.5092 13.377z"/>
   <path d="m475.65 101.76 12.509 6.0216 13.33-6.0216"/>
   <path d="m471.56 103.48h-7.2029"/>
   <path d="m470.95 107.71h-9.5415"/>
   <path d="m470.53 111.94h-6.9223"/>
  </g>
  <rect x="455.92" y="60.745" width="40.963" height="34.181" fill="#01ad98"/>
  <g>
   <rect x="455.92" y="180.39" width="40.963" height="34.181" fill="#036252"/>
   <rect x="455.92" y="140.51" width="40.963" height="34.181" fill="#019681"/>
   <g transform="matrix(.42459 0 0 .42459 268.3 44.899)" fill="#036252">
    <circle cx="475.83" cy="68.244" r="11.392"/>
    <path d="m468.3 99.767s-0.46939-20.239 7.9246-20.239c6.9995 0 7.6673 12.242 7.6673 20.46-8.637 4.9866-15.592-0.22099-15.592-0.22099z"/>
   </g>
  </g>
  <g transform="matrix(.081019 0 0 .081019 466.04 147.23)">
   <path d="m0 0h256v256h-256z" fill="none"/>
   <path d="m38 21.99c20.33-14.67 49.08-15.93 70.73-3.38 24.41-4.23 50.22-0.21 72 11.66 24.31 13.06 43.4 35.49 52.29 61.63 6.11 17.69 7.53 36.92 4.35 55.35 7.82 13.75 10.53 30.3 7.36 45.81-3.35 17.11-13.9 32.62-28.49 42.15-20.2 13.58-47.95 14.35-68.99 2.17-23.43 4.03-48.14 0.54-69.34-10.28-24.64-12.38-44.29-34.28-53.9-60.13-6.96-18.47-8.71-38.79-5.4-58.23-7.99-13.99-10.58-30.9-7.17-46.64 3.38-16.08 13.11-30.69 26.56-40.11z" fill="#fff"/>
   <path d="m49 34.98c12.35-8.29 28.55-10.36 42.62-5.57 5 1.59 9.5 4.34 14.02 6.93 17.64-3.85 36.36-3.29 53.43 2.82 27.17 9.39 49.35 31.92 58.27 59.25 5.66 16.66 6.04 34.8 2.31 51.93 4.4 7.21 8.19 15.01 9.08 23.51 2.18 16.01-4.34 32.79-16.61 43.27-11.98 10.56-29.28 14.58-44.7 10.37-6.15-1.49-11.66-4.68-17.08-7.83-18.58 4.07-38.36 3.17-56.13-3.82-26.23-9.99-47.36-32.31-55.83-59.07-5.43-16.45-5.7-34.27-2.03-51.13-5.67-8.84-9.68-19.02-9.48-29.67-0.15-16.24 8.53-32.15 22.13-40.99z" fill="#019681"/>
   <path d="m113.41 60.77c15.99-2.42 32.84 0.03 47.11 7.77 6.24 3.46 12.28 8.14 15.18 14.86 1.89 4.42 2.1 10.19-1.39 13.89-3.78 3.87-9.95 5.06-15.02 3.43-5.87-2.46-8.79-8.61-13.77-12.27-6.26-5.16-14.69-6.55-22.58-6.41-5.77 0.25-11.95 1.56-16.16 5.8-3.89 4.15-5.33 11.26-1.54 15.93 3.58 4.13 9.11 5.67 14.18 7.08 9.67 2.42 19.45 4.37 29.16 6.66 10.1 2.31 20.3 6.73 26.97 14.96 11.5 14.9 8.91 38.53-5.39 50.73-11.44 10.13-27.35 12.93-42.17 13.02-15.82-0.23-32.73-3.47-44.89-14.29-6.1-5.5-11.23-13.8-9.39-22.29 2.01-8.44 13.6-11.64 20.17-6.45 5.02 4.03 7.74 10.16 12.58 14.37 5.79 5.31 13.86 7.42 21.58 7.23 7.57 0.2 15.61-2.12 20.8-7.88 3.53-3.89 5.4-9.81 3.11-14.79-1.88-4.68-6.71-7.23-11.33-8.49-8.52-2.23-17.1-4.26-25.62-6.51-9.36-2.29-19.09-4.38-27.14-9.96-6.28-4.17-11.04-10.68-12.57-18.1-2.57-11.64-0.73-25.07 7.73-33.96 7.74-8.61 19.22-12.61 30.39-14.33z" fill="#fff"/>
  </g>
  <g transform="matrix(.43127 0 0 .43127 465.62 186.7)" fill="#01c5ab">
   <path d="m0.833 0c-0.5 0-0.833 0.333-0.833 0.833v10c0 0.5 0.333 0.833 0.833 0.833h5c0.5 0 0.833-0.333 0.833-0.833v-4.166h36.667v4.167c0 0.5 0.333 0.833 1 0.833h4.833c0.5 0 0.833-0.333 0.833-0.833v-10c1e-3 -0.501-0.332-0.834-0.832-0.834z"/>
   <path d="m49.167 50c0.5 0 0.833-0.333 0.833-0.833v-9.833c0-0.5-0.333-0.833-0.833-0.833h-4.833c-0.5 0-0.833 0.333-0.833 0.833v4h-36.834v-4.167c0-0.5-0.333-0.833-1-0.833h-4.834c-0.5 0-0.833 0.333-0.833 1v9.833c0 0.5 0.333 0.833 0.833 0.833z"/>
   <path d="m29.857 26.098c-1.297 1.297-3.022 2.012-4.857 2.012s-3.56-0.714-4.858-2.012l-9.309-9.309v18.923h28.333v-18.924z"/>
   <path d="m25 26.728c1.466 0 2.844-0.571 3.88-1.607l10.286-10.286v-0.545h-28.333v0.546l10.286 10.284c1.037 1.037 2.415 1.608 3.881 1.608z"/>
  </g>
  <g transform="matrix(1.2505 0 0 1.2505 -83.698 -22.127)">
   <circle cx="453.92" cy="75.93" r="5.9401" fill="#036252"/>
   <path d="m453.92 72.866v6.1272" fill="none" stroke="#01ad98" stroke-linecap="square" stroke-width="2"/>
   <path d="m456.99 75.93h-6.1272" fill="none" stroke="#01ad98" stroke-linecap="square" stroke-width="2"/>
  </g>
 </g>
 <g fill-rule="evenodd">
  <path d="m431.51 137.66-14.462-1.3e-4 7.19-7.1922z" fill="#01c5ab"/>
  <path d="m431.51 137.66-14.465-2.1e-4 7.1715 7.226z" fill="#019681"/>
  <path d="m449.05 177.61-14.465-2.1e-4 7.1715 7.226z" fill="#036252"/>
  <path d="m449.05 177.61-14.462-1.3e-4 7.19-7.1922z" fill="#019681"/>
  <path d="m449.04 97.7-14.437-0.0096 7.1559 7.2447z" fill="#01c5ab"/>
  <path d="m449.05 97.71-14.462-1.4e-4 7.19-7.1922z" fill="#01ad98"/>
 </g>
 <g fill="none" stroke-width="1.9756">
  <path d="m423.67 142.94 11.872 34.351" stroke="#019681"/>
  <path d="m441.49 172.11 15.564-15.474" stroke="#019681"/>
  <path d="m441.66 183.25 15.393 15.997" stroke="#036252"/>
  <path d="m441.75 103.54 15.625 15.801" stroke="#01c5ab"/>
  <path d="m441.32 92.38 15.598-15.757" stroke="#01ad98"/>
  <path d="m423.6 132.95 11.932-34.929" stroke="#01c5ab"/>
 </g>
</svg>
