<?xml version="1.0" encoding="UTF-8" standalone="no"?>
<!-- Created with Inkscape (http://www.inkscape.org/) -->

<svg
   xmlns:dc="http://purl.org/dc/elements/1.1/"
   xmlns:cc="http://creativecommons.org/ns#"
   xmlns:rdf="http://www.w3.org/1999/02/22-rdf-syntax-ns#"
   xmlns:svg="http://www.w3.org/2000/svg"
   xmlns="http://www.w3.org/2000/svg"
   xmlns:sodipodi="http://sodipodi.sourceforge.net/DTD/sodipodi-0.dtd"
   xmlns:inkscape="http://www.inkscape.org/namespaces/inkscape"
   width="508mm"
   height="285.75mm"
   viewBox="0 0 508 285.75"
   version="1.1"
   id="svg8"
   inkscape:version="0.92.2 (5c3e80d, 2017-08-06)"
   sodipodi:docname="splash-iinkscape.svg">
  <defs
     id="defs2">
    <linearGradient
       y2="214.96458"
       x1="112.42918"
       x2="112.42918"
       y1="15.200426"
       id="a"
       gradientTransform="scale(0.99618268,1.0038319)"
       gradientUnits="userSpaceOnUse">
      <stop
         id="stop5546"
         offset="0"
         stop-color="#00C6FF" />
      <stop
         id="stop5548"
         offset="1"
         stop-color="#0068FF" />
    </linearGradient>
  </defs>
  <sodipodi:namedview
     id="base"
     pagecolor="#ffffff"
     bordercolor="#666666"
     borderopacity="1.0"
     inkscape:pageopacity="0.0"
     inkscape:pageshadow="2"
     inkscape:zoom="2"
     inkscape:cx="946.16015"
     inkscape:cy="292.94527"
     inkscape:document-units="mm"
     inkscape:current-layer="layer2"
     showgrid="false"
     fit-margin-top="0"
     fit-margin-left="0"
     fit-margin-right="0"
     fit-margin-bottom="0"
     inkscape:window-width="1277"
     inkscape:window-height="1058"
     inkscape:window-x="2422"
     inkscape:window-y="69"
     inkscape:window-maximized="0" />
  <metadata
     id="metadata5">
    <rdf:RDF>
      <cc:Work
         rdf:about="">
        <dc:format>image/svg+xml</dc:format>
        <dc:type
           rdf:resource="http://purl.org/dc/dcmitype/StillImage" />
        <dc:title></dc:title>
      </cc:Work>
    </rdf:RDF>
  </metadata>
  <g
     inkscape:groupmode="layer"
     id="layer2"
     inkscape:label="background"
     style="display:inline">
    <rect
       style="fill:#095fb2;fill-opacity:1;stroke-width:0.22824341"
       id="rect3692"
       width="508.37796"
       height="286.50595"
       x="-2.5632423e-007"
       y="-0.377978"
       ry="0" />
    <g
       id="g5544"
       transform="matrix(0.70635624,0,0,0.70635624,79.87998,45.586231)"
       style="stroke-width:1.72181714;stroke-miterlimit:4;stroke-dasharray:none">
      <rect
         y="165.1756"
         x="415.39581"
         height="30.710571"
         width="37.608635"
         id="rect5414"
         style="fill:#095fb2;fill-opacity:1;stroke:#ffffff;stroke-width:1.72181714;stroke-linecap:round;stroke-linejoin:miter;stroke-miterlimit:4;stroke-dasharray:none;stroke-opacity:1" />
      <rect
         y="165.1756"
         x="448.91257"
         height="4.0918741"
         width="4.0918741"
         id="rect5441"
         style="fill:#095fb2;fill-opacity:1;stroke:#ffffff;stroke-width:1.72181714;stroke-linecap:round;stroke-linejoin:miter;stroke-miterlimit:4;stroke-dasharray:none;stroke-opacity:1" />
      <rect
         y="165.1756"
         x="444.82068"
         height="4.0918741"
         width="4.0918741"
         id="rect5441-9"
         style="display:inline;fill:#095fb2;fill-opacity:1;stroke:#ffffff;stroke-width:1.72181714;stroke-linecap:round;stroke-linejoin:miter;stroke-miterlimit:4;stroke-dasharray:none;stroke-opacity:1" />
      <rect
         y="165.1756"
         x="440.72879"
         height="4.0918741"
         width="4.0918741"
         id="rect5441-7-6"
         style="display:inline;fill:#095fb2;fill-opacity:1;stroke:#ffffff;stroke-width:1.72181714;stroke-linecap:round;stroke-linejoin:miter;stroke-miterlimit:4;stroke-dasharray:none;stroke-opacity:1" />
      <rect
         y="165.1756"
         x="415.39578"
         height="4.0918732"
         width="25.332977"
         id="rect5511"
         style="fill:#095fb2;fill-opacity:1;stroke:#ffffff;stroke-width:1.72181714;stroke-linecap:round;stroke-linejoin:miter;stroke-miterlimit:4;stroke-dasharray:none;stroke-opacity:1" />
      <circle
         r="2.1882694"
         cy="182.85957"
         cx="424.20688"
         id="path5513"
         style="fill:#ffffff;fill-opacity:1;stroke:#ffffff;stroke-width:1.72181714;stroke-linecap:round;stroke-linejoin:miter;stroke-miterlimit:4;stroke-dasharray:none;stroke-opacity:1" />
      <circle
         r="2.1882694"
         cy="182.85957"
         cx="434.18774"
         id="path5513-2"
         style="display:inline;fill:#ffffff;fill-opacity:1;stroke:#ffffff;stroke-width:1.72181714;stroke-linecap:round;stroke-linejoin:miter;stroke-miterlimit:4;stroke-dasharray:none;stroke-opacity:1" />
      <circle
         r="2.1882694"
         cy="182.85957"
         cx="444.16858"
         id="path5513-3"
         style="display:inline;fill:#ffffff;fill-opacity:1;stroke:#ffffff;stroke-width:1.72181714;stroke-linecap:round;stroke-linejoin:miter;stroke-miterlimit:4;stroke-dasharray:none;stroke-opacity:1" />
    </g>
    <g
       id="g5568"
       transform="matrix(0.13028232,0,0,0.13028232,378.81292,66.417667)">
      <path
         id="path5553"
         d="m 41.255,185.52 v 40.2 L 78.844,204.35 C 89.322,207.37 100.46,209 112,209 173.86,209 224,162.21 224,104.5 224,46.786 173.86,0 112,0 50.144,0 0,46.786 0,104.5 c 0,32.68 16.078,61.86 41.255,81.02 z"
         inkscape:connector-curvature="0"
         style="fill:#ffffff;fill-opacity:1" />
      <path
         id="path5555"
         d="m 100.04,75.878 -60.401,63.952 54.97,-30.16 28.721,30.16 60.06,-63.952 -54.36,29.632 z"
         inkscape:connector-curvature="0"
         style="fill:#095fb2;fill-opacity:1" />
    </g>
    <g
       id="g5578"
       transform="matrix(0.65872544,0,0,0.65872544,85.900287,16.159671)"
       style="stroke-width:2.27712464;stroke-miterlimit:4;stroke-dasharray:none">
      <rect
         y="34.962795"
         x="235.47914"
         height="24.757439"
         width="41.199402"
         id="rect5572"
         style="fill:#095fb2;fill-opacity:1;stroke:#ffffff;stroke-width:2.27712464;stroke-linecap:round;stroke-linejoin:miter;stroke-miterlimit:4;stroke-dasharray:none;stroke-opacity:1" />
      <path
         inkscape:connector-curvature="0"
         id="path5574"
         d="M 276.67855,34.962795 255.88988,45.357142 235.47915,34.962795"
         style="fill:none;stroke:#ffffff;stroke-width:2.27712464;stroke-linecap:butt;stroke-linejoin:miter;stroke-miterlimit:4;stroke-dasharray:none;stroke-opacity:1" />
    </g>
    <g
       id="g5613"
       transform="matrix(0.22276622,0,0,0.22276622,83.435276,159.67483)">
      <g
         id="Layer_1_1_" />
      <g
         id="Layer_3" />
      <g
         id="Layer_4" />
      <g
         id="Layer_2">
        <g
           id="g5593">
          <rect
             id="rect5585"
             height="17"
             width="17.6"
             class="st0"
             transform="matrix(0.9482,-0.3176,0.3176,0.9482,-36.0197,50.6366)"
             y="127.3"
             x="128.5"
             style="fill:#ffffff" />
          <g
             id="g5591">
            <rect
               id="rect5587"
               height="17"
               width="17.6"
               class="st0"
               transform="matrix(0.9482,-0.3176,0.3176,0.9482,-36.0197,50.6366)"
               y="127.3"
               x="128.5"
               style="fill:#ffffff" />
            <path
               id="path5589"
               d="m 194.6,118.5 c -12.9,-43 -31.5,-53 -74.5,-40.1 -43,12.9 -53,31.5 -40.1,74.5 12.9,43 31.5,53 74.5,40.1 43,-12.9 53,-31.5 40.1,-74.5 z m -21.7,27.9 -8.1,2.7 2.8,8.4 c 1.1,3.4 -0.7,7.1 -4.1,8.2 -0.7,0.2 -1.5,0.4 -2.2,0.3 -2.6,-0.1 -5.1,-1.8 -6,-4.4 l -2.8,-8.4 -16.7,5.6 2.8,8.4 c 1.1,3.4 -0.7,7.1 -4.1,8.2 -0.7,0.2 -1.5,0.4 -2.2,0.3 -2.6,-0.1 -5.1,-1.8 -6,-4.4 l -2.8,-8.4 -8.1,2.7 c -0.7,0.2 -1.5,0.4 -2.2,0.3 -2.6,-0.1 -5.1,-1.8 -6,-4.4 -1.1,-3.4 0.7,-7.1 4.1,-8.2 l 8.1,-2.7 -5.4,-16.1 -8.1,2.7 c -0.7,0.2 -1.5,0.4 -2.2,0.3 -2.6,-0.1 -5.1,-1.8 -6,-4.4 -1.1,-3.4 0.7,-7.1 4.1,-8.2 l 8.1,-2.7 -2.8,-8.4 c -1.1,-3.4 0.7,-7.1 4.1,-8.2 3.4,-1.1 7.1,0.7 8.2,4.1 l 2.8,8.4 16.7,-5.6 -2.8,-8.4 c -1.1,-3.4 0.7,-7.1 4.1,-8.2 3.4,-1.1 7.1,0.7 8.2,4.1 l 2.8,8.4 8.1,-2.7 c 3.4,-1.1 7.1,0.7 8.2,4.1 1.1,3.4 -0.7,7.1 -4.1,8.2 l -8.1,2.7 5.4,16.1 8.1,-2.7 c 3.4,-1.1 7.1,0.7 8.2,4.1 1.1,3.4 -0.7,7.1 -4.1,8.2 z"
               class="st0"
               inkscape:connector-curvature="0"
               style="fill:#ffffff" />
          </g>
        </g>
      </g>
    </g>
    <path
       style="fill:#095fb2;fill-opacity:1;stroke:#000000;stroke-width:0.26458332px;stroke-linecap:butt;stroke-linejoin:miter;stroke-opacity:1"
       d="m 345.67973,196.44857 c 0,0 5.7797,2.00452 12.06053,0.13363 l 0.96886,3.57473 c 0,0 -7.95127,2.90656 -13.56393,-0.30067 z"
       id="path5615"
       inkscape:connector-curvature="0" />
    <g
       id="g4405"
       transform="matrix(1.1548,0,0,1.1548,-39.729184,-21.595564)">
      <rect
         id="rect4407"
         style="fill:#1a3b71;fill-opacity:1;stroke:#feffff;stroke-width:1.68550003;stroke-linecap:round;stroke-linejoin:round"
         ry="2.5395"
         height="12.862"
         width="8.8079996"
         y="158.63"
         x="249.22" />
      <rect
         id="rect4409"
         style="fill:#1a3b71;fill-opacity:1;stroke:#feffff;stroke-width:2;stroke-linecap:round;stroke-linejoin:round"
         ry="2.0316"
         height="7.4836001"
         width="7.684"
         y="167.69"
         x="244.22" />
      <rect
         id="rect4411"
         style="fill:#1a3b71;fill-opacity:1;stroke:#feffff;stroke-width:1.26479995;stroke-linecap:round;stroke-linejoin:round"
         ry="1.6698"
         height="4.7326999"
         width="4.8594999"
         y="-57.766998"
         x="284.59"
         transform="rotate(45.285)" />
      <path
         inkscape:connector-curvature="0"
         id="path4413"
         style="fill:#414141;stroke:#feffff;stroke-width:1.26499999"
         d="m 243.04,163.26 c 0,0 1.7496,-1.9216 5.6522,-1.9216" />
      <path
         inkscape:connector-curvature="0"
         id="path4415"
         style="fill:#414141;stroke:#feffff;stroke-width:1.26499999"
         d="m 264.51,163.25 c 0,0 -2.6306,-1.9869 -5.9664,-1.9869" />
      <rect
         id="rect4417"
         style="fill:#1a3b71;fill-opacity:1;stroke:#feffff;stroke-width:1.26479995;stroke-linecap:round;stroke-linejoin:round"
         ry="1.6698"
         height="4.7326999"
         width="4.8594999"
         y="-75.165001"
         x="301.82001"
         transform="rotate(45.285)" />
      <rect
         id="rect4419"
         style="fill:#1a3b71;fill-opacity:1;stroke:#feffff;stroke-width:2;stroke-linecap:round;stroke-linejoin:round"
         ry="2.0316"
         height="7.4836001"
         width="7.684"
         y="167.69"
         x="255.46001" />
      <g
         id="g4421"
         transform="matrix(0.30133,0,0,0.30133,235.34,128.1)">
        <g
           id="g4423"
           style="fill:#01c5ab"
           transform="translate(-8.7921,17.566)">
          <path
             inkscape:connector-curvature="0"
             id="path4425"
             style="fill:#ffffff"
             d="M 69.52,-8.3299 C 49.806,-8.316394 32.336,4.3011 26.222,22.9411 V 2.3031 h -0.0739 c 0.0039,-0.062568 0.0063,-0.12529 0.0072,-0.18808 -2.43e-4,-1.6033 -0.95759,-2.9029 -2.1384,-2.9027 -1.1806,2.256e-4 -2.1376,1.2996 -2.1378,2.9027 5.3e-5,0.062739 0.0016,0.12548 0.0047,0.18808 h -0.07183 v 59.509 h 0.10284 c -0.01903,0.18847 -0.03488,0.37704 -0.04754,0.5657 1.79e-4,15.634 21.374,28.308 47.739,28.308 26.365,1.4e-5 47.739,-12.674 47.739,-28.308 -0.009,-0.25578 -0.0245,-0.51147 -0.0455,-0.767 h 0.1323 V 2.1018 h -0.0739 c 0.004,-0.062568 0.006,-0.12529 0.007,-0.18808 5e-5,-1.6036 -0.95738,-2.9036 -2.1384,-2.9034 -1.1808,2.295e-4 -2.1379,1.3001 -2.1378,2.9034 5e-5,0.062739 0.002,0.12546 0.005,0.18808 h -0.0718 v 21.533 c -5.8896,-18.986 -23.525,-31.944 -43.502,-31.965 z" />
        </g>
        <path
           inkscape:connector-curvature="0"
           id="path4427"
           style="fill:#1a3b71;fill-opacity:1;paint-order:normal"
           d="m 34.613,50.687 c -6.8628,-1.17e-4 -12.426,7.9093 -12.426,17.666 -8.3e-5,9.7567 5.5633,17.666 12.426,17.666 h 52.434 c 6.8628,1.16e-4 12.426,-7.9093 12.426,-17.666 8.2e-5,-9.7567 -5.5633,-17.666 -12.426,-17.666 z" />
        <ellipse
           id="ellipse4429"
           style="fill:#ffffff;paint-order:normal"
           ry="10.754"
           rx="7.5641999"
           cy="68.352997"
           cx="34.612999" />
        <ellipse
           id="ellipse4431"
           style="fill:#ffffff;paint-order:normal"
           ry="10.754"
           rx="7.5641999"
           cy="68.352997"
           cx="87.047997" />
      </g>
    </g>
  </g>
  <g
     inkscape:groupmode="layer"
     id="layer5"
     inkscape:label="Robot"
     style="display:inline">
    <circle
       style="fill:#96c5f9;fill-opacity:1;stroke:#ffffff;stroke-width:2;stroke-linecap:round;stroke-linejoin:round;stroke-miterlimit:4;stroke-dasharray:none;stroke-opacity:1"
       id="path5196"
       cx="361.24817"
       cy="99.864044"
       r="11.392363" />
    <path
       style="display:inline;fill:#96c5f9;fill-opacity:1;stroke:#ffffff;stroke-width:2;stroke-linecap:round;stroke-linejoin:round;stroke-miterlimit:4;stroke-dasharray:none;stroke-opacity:1"
       d="m 353.72208,131.38723 c 0,0 -0.46939,-20.23924 7.92457,-20.23924 6.9995,0 7.66728,12.24157 7.66728,20.46023 -8.637,4.98657 -15.59185,-0.22099 -15.59185,-0.22099 z"
       id="path5202"
       inkscape:connector-curvature="0"
       sodipodi:nodetypes="csc" />
    <path
       style="fill:#1a3b71;fill-opacity:1;stroke:#ffffff;stroke-width:1.20000005;stroke-linecap:round;stroke-linejoin:round;stroke-miterlimit:4;stroke-dasharray:none;stroke-opacity:1"
       d="m 358.04095,113.12739 2.13814,3.77518 -1.97112,4.37654 1.53681,7.75081 2.40543,-7.91786 -1.97112,-4.27631 4.91108,-3.8754 -4.54358,-1.67045 z"
       id="path5230"
       inkscape:connector-curvature="0"
       sodipodi:nodetypes="ccccccccc" />
    <circle
       style="fill:#96c5f9;fill-opacity:1;stroke:#ffffff;stroke-width:2;stroke-linecap:round;stroke-linejoin:round;stroke-miterlimit:4;stroke-dasharray:none;stroke-opacity:1"
       id="path5196-2"
       cx="351.32578"
       cy="179.69579"
       r="11.392364" />
    <path
       style="display:inline;fill:#96c5f9;fill-opacity:1;stroke:#ffffff;stroke-width:2;stroke-linecap:round;stroke-linejoin:round;stroke-miterlimit:4;stroke-dasharray:none;stroke-opacity:1"
       d="m 343.79971,211.21897 c 0,0 -0.46939,-20.23924 7.92457,-20.23924 6.9995,0 7.66728,12.24157 7.66728,20.46023 -8.637,4.98657 -15.59185,-0.22099 -15.59185,-0.22099 z"
       id="path5202-9"
       inkscape:connector-curvature="0"
       sodipodi:nodetypes="csc" />
    <circle
       style="fill:#96c5f9;fill-opacity:1;stroke:#ffffff;stroke-width:2;stroke-linecap:round;stroke-linejoin:round;stroke-miterlimit:4;stroke-dasharray:none;stroke-opacity:1"
       id="path5196-5"
       cx="150.99654"
       cy="189.25067"
       r="11.392364" />
    <path
       style="display:inline;fill:#96c5f9;fill-opacity:1;stroke:#ffffff;stroke-width:2;stroke-linecap:round;stroke-linejoin:round;stroke-miterlimit:4;stroke-dasharray:none;stroke-opacity:1"
       d="m 142.41211,220.77386 c 0,0 -0.46939,-20.23924 7.92457,-20.23924 6.9995,0 7.66728,12.24157 7.66728,20.46023 -8.637,4.98657 -15.59185,-0.22099 -15.59185,-0.22099 z"
       id="path5202-0"
       inkscape:connector-curvature="0"
       sodipodi:nodetypes="csc" />
    <circle
       style="fill:#96c5f9;fill-opacity:1;stroke:#ffffff;stroke-width:2;stroke-linecap:round;stroke-linejoin:round;stroke-miterlimit:4;stroke-dasharray:none;stroke-opacity:1"
       id="path5196-5-1"
       cx="139.51469"
       cy="121.89875"
       r="11.392364" />
    <path
       style="display:inline;fill:#96c5f9;fill-opacity:1;stroke:#ffffff;stroke-width:2;stroke-linecap:round;stroke-linejoin:round;stroke-miterlimit:4;stroke-dasharray:none;stroke-opacity:1"
       d="m 130.93027,153.42194 c 0,0 -0.46939,-20.23924 7.92457,-20.23924 6.9995,0 7.66728,12.24157 7.66728,20.46023 -8.637,4.98657 -15.59185,-0.22099 -15.59185,-0.22099 z"
       id="path5202-0-4"
       inkscape:connector-curvature="0"
       sodipodi:nodetypes="csc" />
    <circle
       style="fill:#96c5f9;fill-opacity:1;stroke:#ffffff;stroke-width:2;stroke-linecap:round;stroke-linejoin:round;stroke-miterlimit:4;stroke-dasharray:none;stroke-opacity:1"
       id="path5196-5-4"
       cx="221.03191"
       cy="71.652084"
       r="11.392364" />
    <path
       style="display:inline;fill:#96c5f9;fill-opacity:1;stroke:#ffffff;stroke-width:1.95376623;stroke-linecap:round;stroke-linejoin:round;stroke-miterlimit:4;stroke-dasharray:none;stroke-opacity:1"
       d="m 212.44747,102.25035 c 0,0 -0.46939,-19.314323 7.92457,-19.314323 6.9995,0 7.66728,11.682133 7.66728,19.525213 -8.637,4.75869 -15.59185,-0.21089 -15.59185,-0.21089 z"
       id="path5202-0-3"
       inkscape:connector-curvature="0"
       sodipodi:nodetypes="csc" />
    <g
       style="display:inline"
       id="g5335"
       transform="matrix(0.12726913,0,0,0.12726913,89.969711,77.368887)">
      <path
         style="fill:none"
         id="path4"
         d="M 0,0 H 256 V 256 H 0 Z"
         inkscape:connector-curvature="0" />
      <path
         id="path6"
         d="M 38,21.99 C 58.33,7.32 87.08,6.06 108.73,18.61 c 24.41,-4.23 50.22,-0.21 72,11.66 24.31,13.06 43.4,35.49 52.29,61.63 6.11,17.69 7.53,36.92 4.35,55.35 7.82,13.75 10.53,30.3 7.36,45.81 -3.35,17.11 -13.9,32.62 -28.49,42.15 -20.2,13.58 -47.95,14.35 -68.99,2.17 -23.43,4.03 -48.14,0.54 -69.34,-10.28 C 53.27,214.72 33.62,192.82 24.01,166.97 17.05,148.5 15.3,128.18 18.61,108.74 10.62,94.75 8.03,77.84 11.44,62.1 14.82,46.02 24.55,31.41 38,21.99 Z"
         inkscape:connector-curvature="0"
         style="fill:#ffffff;fill-opacity:1" />
      <path
         style="fill:#095fb2;fill-opacity:1"
         id="path8"
         d="m 49,34.98 c 12.35,-8.29 28.55,-10.36 42.62,-5.57 5,1.59 9.5,4.34 14.02,6.93 17.64,-3.85 36.36,-3.29 53.43,2.82 27.17,9.39 49.35,31.92 58.27,59.25 5.66,16.66 6.04,34.8 2.31,51.93 4.4,7.21 8.19,15.01 9.08,23.51 2.18,16.01 -4.34,32.79 -16.61,43.27 -11.98,10.56 -29.28,14.58 -44.7,10.37 -6.15,-1.49 -11.66,-4.68 -17.08,-7.83 -18.58,4.07 -38.36,3.17 -56.13,-3.82 C 67.98,205.85 46.85,183.53 38.38,156.77 32.95,140.32 32.68,122.5 36.35,105.64 30.68,96.8 26.67,86.62 26.87,75.97 26.72,59.73 35.4,43.82 49,34.98 Z"
         inkscape:connector-curvature="0" />
      <path
         id="path10"
         d="m 113.41,60.77 c 15.99,-2.42 32.84,0.03 47.11,7.77 6.24,3.46 12.28,8.14 15.18,14.86 1.89,4.42 2.1,10.19 -1.39,13.89 -3.78,3.87 -9.95,5.06 -15.02,3.43 -5.87,-2.46 -8.79,-8.61 -13.77,-12.27 -6.26,-5.16 -14.69,-6.55 -22.58,-6.41 -5.77,0.25 -11.95,1.56 -16.16,5.8 -3.89,4.15 -5.33,11.26 -1.54,15.93 3.58,4.13 9.11,5.67 14.18,7.08 9.67,2.42 19.45,4.37 29.16,6.66 10.1,2.31 20.3,6.73 26.97,14.96 11.5,14.9 8.91,38.53 -5.39,50.73 -11.44,10.13 -27.35,12.93 -42.17,13.02 -15.82,-0.23 -32.73,-3.47 -44.89,-14.29 -6.1,-5.5 -11.23,-13.8 -9.39,-22.29 2.01,-8.44 13.6,-11.64 20.17,-6.45 5.02,4.03 7.74,10.16 12.58,14.37 5.79,5.31 13.86,7.42 21.58,7.23 7.57,0.2 15.61,-2.12 20.8,-7.88 3.53,-3.89 5.4,-9.81 3.11,-14.79 -1.88,-4.68 -6.71,-7.23 -11.33,-8.49 -8.52,-2.23 -17.1,-4.26 -25.62,-6.51 -9.36,-2.29 -19.09,-4.38 -27.14,-9.96 -6.28,-4.17 -11.04,-10.68 -12.57,-18.1 -2.57,-11.64 -0.73,-25.07 7.73,-33.96 7.74,-8.61 19.22,-12.61 30.39,-14.33 z"
         inkscape:connector-curvature="0"
         style="fill:#ffffff;fill-opacity:1" />
    </g>
    <path
       style="fill:#1a3b71;fill-opacity:1;stroke:#ffffff;stroke-width:1.20000005;stroke-linecap:round;stroke-linejoin:round;stroke-miterlimit:4;stroke-dasharray:none;stroke-opacity:1"
       d="m 153.79689,202.61257 -2.13814,3.77518 1.97112,4.37654 -1.53681,7.75081 -2.40543,-7.91786 1.97112,-4.27631 -4.91108,-3.8754 4.54358,-1.67045 z"
       id="path5230-3"
       inkscape:connector-curvature="0"
       sodipodi:nodetypes="ccccccccc" />
  </g>
  <g
     inkscape:groupmode="layer"
     id="layer4"
     inkscape:label="Bubles Back"
     style="display:inline">
    <path
       style="display:inline;fill:#ffffff;stroke:#ffffff;stroke-width:2;stroke-linecap:round;stroke-linejoin:miter;stroke-miterlimit:4;stroke-dasharray:none;stroke-opacity:1"
       d="m 303.84285,111.21953 h 26.53793"
       id="path4604-1-8"
       inkscape:connector-curvature="0" />
    <path
       style="display:inline;fill:#ffffff;stroke:#ffffff;stroke-width:2;stroke-linecap:round;stroke-linejoin:miter;stroke-miterlimit:4;stroke-dasharray:none;stroke-opacity:1"
       d="m 303.84285,103.46839 h 26.53793"
       id="path4604-7-7-8"
       inkscape:connector-curvature="0" />
    <path
       style="display:inline;fill:#ffffff;stroke:#ffffff;stroke-width:2.05185652;stroke-linecap:round;stroke-linejoin:miter;stroke-miterlimit:4;stroke-dasharray:none;stroke-opacity:1"
       d="m 241.75619,104.01183 h 20.87976"
       id="path4604-1-8-3"
       inkscape:connector-curvature="0" />
    <path
       style="display:inline;fill:#ffffff;stroke:#ffffff;stroke-width:2.05185652;stroke-linecap:round;stroke-linejoin:miter;stroke-miterlimit:4;stroke-dasharray:none;stroke-opacity:1"
       d="m 241.75619,98.179302 h 20.87976"
       id="path4604-7-7-8-3"
       inkscape:connector-curvature="0" />
    <path
       style="display:inline;fill:#ffffff;stroke:#ffffff;stroke-width:2.05185652;stroke-linecap:round;stroke-linejoin:miter;stroke-miterlimit:4;stroke-dasharray:none;stroke-opacity:1"
       d="m 241.75619,92.346775 h 20.87976"
       id="path4604-4-4-6-4"
       inkscape:connector-curvature="0" />
    <path
       style="display:inline;fill:none;stroke:#095fb2;stroke-width:2;stroke-linecap:round;stroke-linejoin:miter;stroke-miterlimit:4;stroke-dasharray:none;stroke-opacity:1"
       d="m 212.75335,143.25299 h 19.74928"
       id="path4604-46"
       inkscape:connector-curvature="0" />
    <path
       style="display:inline;fill:none;stroke:#095fb2;stroke-width:2;stroke-linecap:round;stroke-linejoin:miter;stroke-miterlimit:4;stroke-dasharray:none;stroke-opacity:1"
       d="m 212.75335,137.39435 h 19.74928"
       id="path4604-7-5"
       inkscape:connector-curvature="0" />
    <path
       style="display:inline;fill:none;stroke:#095fb2;stroke-width:2;stroke-linecap:round;stroke-linejoin:miter;stroke-miterlimit:4;stroke-dasharray:none;stroke-opacity:1"
       d="m 212.75335,131.53571 h 19.74928"
       id="path4604-4-90"
       inkscape:connector-curvature="0" />
    <path
       style="display:inline;fill:#1a3b71;fill-opacity:1;stroke:none;stroke-width:2.29332876;stroke-linecap:round;stroke-miterlimit:4;stroke-dasharray:none;stroke-opacity:1"
       d="m 159.61917,95.764178 v 18.455182 l -3.40806,8.5726 6.51175,-4.57698 h 37.38738 V 95.764178 Z"
       id="rect4706"
       inkscape:connector-curvature="0" />
    <path
       style="display:inline;fill:#1a3b71;fill-opacity:1;stroke:none;stroke-width:2;stroke-linecap:round;stroke-miterlimit:4;stroke-dasharray:none;stroke-opacity:1"
       d="m 169.18141,148.77438 v 21.50979 l -4.57698,9.96115 4.65088,-1.93786 h 40.68486 v -29.53308 z"
       id="rect4708"
       inkscape:connector-curvature="0" />
    <path
       style="display:inline;fill:#1a3b71;fill-opacity:1;stroke:none;stroke-width:2;stroke-linecap:round;stroke-miterlimit:4;stroke-dasharray:none;stroke-opacity:1"
       d="m 297.20358,98.372808 v 21.247812 h 40.75875 v -8.38915 l 7.88426,-4.17287 -7.88426,-3.39928 v -5.286512 z"
       id="rect4710"
       inkscape:connector-curvature="0" />
    <path
       style="display:inline;fill:#1a3b71;fill-opacity:1;stroke:none;stroke-width:2;stroke-linecap:round;stroke-miterlimit:4;stroke-dasharray:none;stroke-opacity:1"
       d="m 234.48712,82.988068 v 2.076358 l -4.30981,-0.606163 c 0,0 2.89361,4.676632 4.30981,6.739122 v 14.919505 h 32.78922 V 82.988068 Z"
       id="rect4712"
       inkscape:connector-curvature="0" />
    <path
       style="display:inline;fill:#1a3b71;fill-opacity:1;stroke:none;stroke-width:2;stroke-linecap:round;stroke-miterlimit:4;stroke-dasharray:none;stroke-opacity:1"
       d="m 290.92282,156.12432 v 27.12806 h 37.81888 l 5.3618,0.0164 -5.3618,-6.10548 v -21.03902 z"
       id="rect4714"
       inkscape:connector-curvature="0"
       sodipodi:nodetypes="ccccccc" />
    <path
       style="display:inline;fill:#ffffff;fill-opacity:1;stroke:#ffffff;stroke-width:2;stroke-linecap:round;stroke-linejoin:miter;stroke-miterlimit:4;stroke-dasharray:none;stroke-opacity:1"
       d="m 297.38233,175.72836 h 24.09796"
       id="path4604-1-8-33"
       inkscape:connector-curvature="0" />
    <path
       style="display:inline;fill:#ffffff;fill-opacity:1;stroke:#ffffff;stroke-width:2;stroke-linecap:round;stroke-linejoin:miter;stroke-miterlimit:4;stroke-dasharray:none;stroke-opacity:1"
       d="m 297.38233,169.35411 h 24.09796"
       id="path4604-7-7-8-38"
       inkscape:connector-curvature="0" />
    <path
       style="display:inline;fill:#ffffff;fill-opacity:1;stroke:#ffffff;stroke-width:2;stroke-linecap:round;stroke-linejoin:miter;stroke-miterlimit:4;stroke-dasharray:none;stroke-opacity:1"
       d="m 297.38233,162.97987 h 24.09796"
       id="path4604-4-4-6-2"
       inkscape:connector-curvature="0" />
    <path
       style="display:inline;fill:#ffffff;fill-opacity:1;stroke:#ffffff;stroke-width:2;stroke-linecap:round;stroke-linejoin:miter;stroke-miterlimit:4;stroke-dasharray:none;stroke-opacity:1"
       d="m 175.10697,171.48007 h 26.90339"
       id="path4604-1-8-4"
       inkscape:connector-curvature="0" />
    <path
       style="display:inline;fill:#ffffff;fill-opacity:1;stroke:#ffffff;stroke-width:2;stroke-linecap:round;stroke-linejoin:miter;stroke-miterlimit:4;stroke-dasharray:none;stroke-opacity:1"
       d="m 175.10697,163.95618 h 26.90339"
       id="path4604-7-7-8-0"
       inkscape:connector-curvature="0" />
    <path
       style="display:inline;fill:#ffffff;fill-opacity:1;stroke:#ffffff;stroke-width:2;stroke-linecap:round;stroke-linejoin:miter;stroke-miterlimit:4;stroke-dasharray:none;stroke-opacity:1"
       d="m 175.10697,156.43227 h 26.90339"
       id="path4604-4-4-6-1"
       inkscape:connector-curvature="0" />
    <path
       style="display:inline;fill:#ffffff;fill-opacity:1;stroke:#ffffff;stroke-width:2.08673668;stroke-linecap:round;stroke-linejoin:miter;stroke-miterlimit:4;stroke-dasharray:none;stroke-opacity:1"
       d="m 166.9914,113.18652 h 26.41467"
       id="path4604-1-8-33-8"
       inkscape:connector-curvature="0" />
    <path
       style="display:inline;fill:#ffffff;fill-opacity:1;stroke:#ffffff;stroke-width:2.08673668;stroke-linecap:round;stroke-linejoin:miter;stroke-miterlimit:4;stroke-dasharray:none;stroke-opacity:1"
       d="m 166.9914,106.856 h 26.41467"
       id="path4604-7-7-8-38-8"
       inkscape:connector-curvature="0" />
    <path
       style="display:inline;fill:#ffffff;fill-opacity:1;stroke:#ffffff;stroke-width:2.08673668;stroke-linecap:round;stroke-linejoin:miter;stroke-miterlimit:4;stroke-dasharray:none;stroke-opacity:1"
       d="m 166.9914,100.52548 h 26.41467"
       id="path4604-4-4-6-2-2"
       inkscape:connector-curvature="0" />
    <path
       style="display:inline;fill:#ffffff;fill-opacity:1;stroke:#ffffff;stroke-width:2;stroke-linecap:round;stroke-linejoin:miter;stroke-miterlimit:4;stroke-dasharray:none;stroke-opacity:1"
       d="m 304.12601,112.96074 h 26.25477"
       id="path4604-1-8-33-8-9"
       inkscape:connector-curvature="0" />
    <path
       style="display:inline;fill:#ffffff;fill-opacity:1;stroke:#ffffff;stroke-width:2;stroke-linecap:round;stroke-linejoin:miter;stroke-miterlimit:4;stroke-dasharray:none;stroke-opacity:1"
       d="m 304.12601,105.58507 h 26.25477"
       id="path4604-7-7-8-38-8-9"
       inkscape:connector-curvature="0" />
    <path
       style="display:inline;fill:#ffffff;fill-opacity:1;stroke:#ffffff;stroke-width:1.99933708;stroke-linecap:round;stroke-linejoin:miter;stroke-miterlimit:4;stroke-dasharray:none;stroke-opacity:1"
       d="m 238.7272,100.70438 h 24.34706"
       id="path4604-1-8-33-82"
       inkscape:connector-curvature="0" />
    <path
       style="display:inline;fill:#ffffff;fill-opacity:1;stroke:#ffffff;stroke-width:1.99933708;stroke-linecap:round;stroke-linejoin:miter;stroke-miterlimit:4;stroke-dasharray:none;stroke-opacity:1"
       d="m 238.7272,94.39954 h 24.34706"
       id="path4604-7-7-8-38-3"
       inkscape:connector-curvature="0" />
    <path
       style="display:inline;fill:#ffffff;fill-opacity:1;stroke:#ffffff;stroke-width:1.99933708;stroke-linecap:round;stroke-linejoin:miter;stroke-miterlimit:4;stroke-dasharray:none;stroke-opacity:1"
       d="m 238.7272,88.094687 h 24.34706"
       id="path4604-4-4-6-2-20"
       inkscape:connector-curvature="0" />
  </g>
  <g
     inkscape:groupmode="layer"
     id="layer3"
     inkscape:label="Bubles"
     style="display:inline">
    <g
       style="font-size:12px;overflow:visible;color-interpolation-filters:sRGB;fill:#ffffff;fill-rule:evenodd;stroke-linecap:square;stroke-miterlimit:3"
       id="g3720"
       transform="matrix(2.2000852,0,0,2.2000852,217.51941,181.69067)" />
    <path
       style="display:inline;fill:#ffffff;fill-opacity:1;stroke-width:0.26458332"
       d="m 282.34802,150.00952 v 8.71678 h -9.21287 l 9.21287,8.28787 v 8.41396 h 33.16751 v -25.41861 z"
       id="rect3740"
       inkscape:connector-curvature="0" />
    <path
       style="display:inline;fill:#ffffff;fill-opacity:1;stroke-width:0.26458332"
       d="m 284.61611,110.22745 v 24.6631 l -5.33868,6.59081 14.411,-6.59081 h 32.41043 v -24.6631 z"
       id="rect3742"
       inkscape:connector-curvature="0" />
    <path
       style="display:inline;fill:#ffffff;fill-opacity:1;stroke:none;stroke-width:0.26458332"
       d="m 241.43218,93.464136 v 22.489584 h 14.49885 l 2.43913,6.02393 3.11093,-6.02393 H 276.3949 V 93.464136 Z"
       id="rect3744"
       inkscape:connector-curvature="0" />
    <path
       style="display:inline;fill:#ffffff;fill-opacity:1;stroke-width:0.26458332"
       d="m 176.23151,108.05394 v 23.62337 h 41.86101 l 6.11849,3.40186 -6.11849,-9.51518 v -17.51005 z"
       id="rect3746"
       inkscape:connector-curvature="0" />
    <path
       style="display:inline;fill:#ffffff;fill-opacity:1;stroke-width:0.26458332"
       d="m 190.02757,142.82805 v 27.40298 H 221.683 V 165.668 l 10.55956,-7.27243 c 0,0 -8.12602,1.26673 -10.55956,1.64693 v -17.21445 z"
       id="rect3748"
       inkscape:connector-curvature="0" />
    <path
       style="display:inline;fill:none;stroke:#095fb2;stroke-width:2;stroke-linecap:round;stroke-linejoin:miter;stroke-miterlimit:4;stroke-dasharray:none;stroke-opacity:1"
       d="m 249.0389,110.42575 h 19.74928"
       id="path4604"
       inkscape:connector-curvature="0" />
    <path
       style="display:inline;fill:none;stroke:#095fb2;stroke-width:2;stroke-linecap:round;stroke-linejoin:miter;stroke-miterlimit:4;stroke-dasharray:none;stroke-opacity:1"
       d="m 249.0389,104.56711 h 19.74928"
       id="path4604-7"
       inkscape:connector-curvature="0" />
    <path
       style="display:inline;fill:none;stroke:#095fb2;stroke-width:2;stroke-linecap:round;stroke-linejoin:miter;stroke-miterlimit:4;stroke-dasharray:none;stroke-opacity:1"
       d="m 249.0389,98.708469 h 19.74928"
       id="path4604-4"
       inkscape:connector-curvature="0" />
    <path
       style="display:inline;fill:none;stroke:#095fb2;stroke-width:2.31417203;stroke-linecap:round;stroke-linejoin:miter;stroke-miterlimit:4;stroke-dasharray:none;stroke-opacity:1"
       d="M 183.43207,125.23521 H 210.6081"
       id="path4604-0"
       inkscape:connector-curvature="0" />
    <path
       style="display:inline;fill:none;stroke:#095fb2;stroke-width:2.31417203;stroke-linecap:round;stroke-linejoin:miter;stroke-miterlimit:4;stroke-dasharray:none;stroke-opacity:1"
       d="M 183.43207,119.53497 H 210.6081"
       id="path4604-7-2"
       inkscape:connector-curvature="0" />
    <path
       style="display:inline;fill:none;stroke:#095fb2;stroke-width:2.31417203;stroke-linecap:round;stroke-linejoin:miter;stroke-miterlimit:4;stroke-dasharray:none;stroke-opacity:1"
       d="M 183.43207,113.83473 H 210.6081"
       id="path4604-4-9"
       inkscape:connector-curvature="0" />
    <path
       style="display:inline;fill:none;stroke:#095fb2;stroke-width:2;stroke-linecap:round;stroke-linejoin:miter;stroke-miterlimit:4;stroke-dasharray:none;stroke-opacity:1"
       d="m 195.64991,162.52977 h 19.74928"
       id="path4604-8"
       inkscape:connector-curvature="0" />
    <path
       style="display:inline;fill:none;stroke:#095fb2;stroke-width:2;stroke-linecap:round;stroke-linejoin:miter;stroke-miterlimit:4;stroke-dasharray:none;stroke-opacity:1"
       d="m 195.64991,156.67113 h 19.74928"
       id="path4604-7-4"
       inkscape:connector-curvature="0" />
    <path
       style="display:inline;fill:none;stroke:#095fb2;stroke-width:2;stroke-linecap:round;stroke-linejoin:miter;stroke-miterlimit:4;stroke-dasharray:none;stroke-opacity:1"
       d="m 195.64991,150.8125 h 19.74928"
       id="path4604-4-7"
       inkscape:connector-curvature="0" />
    <path
       style="display:inline;fill:none;stroke:#095fb2;stroke-width:2.30360937;stroke-linecap:round;stroke-linejoin:miter;stroke-miterlimit:4;stroke-dasharray:none;stroke-opacity:1"
       d="M 292.00031,128.45334 H 318.9037"
       id="path4604-1"
       inkscape:connector-curvature="0" />
    <path
       style="display:inline;fill:none;stroke:#095fb2;stroke-width:2.30360937;stroke-linecap:round;stroke-linejoin:miter;stroke-miterlimit:4;stroke-dasharray:none;stroke-opacity:1"
       d="M 292.00031,122.74777 H 318.9037"
       id="path4604-7-7"
       inkscape:connector-curvature="0" />
    <path
       style="display:inline;fill:none;stroke:#095fb2;stroke-width:2.30360937;stroke-linecap:round;stroke-linejoin:miter;stroke-miterlimit:4;stroke-dasharray:none;stroke-opacity:1"
       d="M 292.00031,117.0422 H 318.9037"
       id="path4604-4-4"
       inkscape:connector-curvature="0" />
    <path
       style="display:inline;fill:none;stroke:#095fb2;stroke-width:2;stroke-linecap:round;stroke-linejoin:miter;stroke-miterlimit:4;stroke-dasharray:none;stroke-opacity:1"
       d="m 289.01003,168.76638 h 19.74928"
       id="path4604-77"
       inkscape:connector-curvature="0" />
    <path
       style="display:inline;fill:none;stroke:#095fb2;stroke-width:2;stroke-linecap:round;stroke-linejoin:miter;stroke-miterlimit:4;stroke-dasharray:none;stroke-opacity:1"
       d="m 289.01003,162.90774 h 19.74928"
       id="path4604-7-9"
       inkscape:connector-curvature="0" />
    <path
       style="display:inline;fill:none;stroke:#095fb2;stroke-width:2;stroke-linecap:round;stroke-linejoin:miter;stroke-miterlimit:4;stroke-dasharray:none;stroke-opacity:1"
       d="m 289.01003,157.0491 h 19.74928"
       id="path4604-4-0"
       inkscape:connector-curvature="0" />
    <path
       style="display:inline;fill:#2c5fb2;fill-opacity:1;stroke:#ffffff;stroke-width:1.5;stroke-linecap:butt;stroke-linejoin:miter;stroke-miterlimit:4;stroke-dasharray:none;stroke-opacity:1"
       d="m 347.38357,193.74247 c 0,0 3.0736,2.13815 9.35443,0.26726 l 1.00226,2.57247 c 0,0 -6.44787,3.0736 -12.06053,-0.13363 z"
       id="path5615-3"
       inkscape:connector-curvature="0"
       sodipodi:nodetypes="ccccc" />
    <path
       style="display:inline;fill:#2c5fb2;fill-opacity:1;stroke:#ffffff;stroke-width:1.5;stroke-linecap:butt;stroke-linejoin:miter;stroke-miterlimit:4;stroke-dasharray:none;stroke-opacity:1"
       d="m 134.53665,136.05277 c 0,0 3.0736,2.13815 9.35443,0.26726 l 1.00226,2.57247 c 0,0 -6.44787,3.0736 -12.06053,-0.13363 z"
       id="path5615-3-8"
       inkscape:connector-curvature="0"
       sodipodi:nodetypes="ccccc" />
    <path
       style="display:inline;fill:#1a3b71;fill-opacity:1;stroke:#ffffff;stroke-width:1.5;stroke-linecap:round;stroke-linejoin:round;stroke-miterlimit:4;stroke-dasharray:none;stroke-opacity:1"
       d="m 216.6671,85.433063 4.11049,1.795386 4.27585,-2.078869 -4.58296,-2.220609 z"
       id="path5677"
       inkscape:connector-curvature="0"
       sodipodi:nodetypes="ccccc" />
    <path
       style="display:inline;fill:none;stroke:#ffffff;stroke-width:1;stroke-linecap:butt;stroke-linejoin:miter;stroke-miterlimit:4;stroke-dasharray:none;stroke-opacity:1"
       d="m 220.77759,87.228449 c 0,0 1.5669,7.785314 0.22036,17.140221"
       id="path5702"
       inkscape:connector-curvature="0" />
    <path
       id="path3701"
       class="st1"
       d="m 261.56169,215.64 a 3.190125,3.190125 0 1 0 -6.38025,0 3.190125,3.190125 0 1 0 6.38025,0 z m 9.83438,7.81031 v -24.02493 a 2.1241889,2.1241889 0 0 0 -2.12419,-2.12419 l -24.03483,-0.01 v 4.24617 h 21.91285 v 21.91285 z M 250.93527,215.64 a 3.1862734,3.1862734 0 1 0 -6.35824,0 3.1862734,3.1862734 0 1 0 6.35824,0 z m 9.94439,18.32671 v -4.24616 H 238.96681 V 207.8077 h -4.24616 v 24.04693 a 2.1241889,2.1241889 0 0 0 2.12418,2.12419 z m -7.8103,-52.31802 A 33.986917,33.986917 0 1 0 287.06067,215.64 33.986917,33.986917 0 0 0 253.06936,181.64869 Z m 0,4.24616 A 29.738553,29.738553 0 1 1 223.3242,215.64 29.773094,29.773094 0 0 1 253.06936,185.89485 Z"
       inkscape:connector-curvature="0"
       style="font-size:medium;display:inline;color-interpolation-filters:sRGB;fill:#ffffff;fill-opacity:1;fill-rule:evenodd;stroke:#000000;stroke-width:1.64999998;stroke-linecap:butt;stroke-miterlimit:3;stroke-dasharray:none;stroke-opacity:0" />
  </g>
  <style
     id="style3695"
     type="text/css"><![CDATA[
		.st1 {fill:#0078d7;stroke:none;stroke-linecap:butt;stroke-width:0.75}
		.st2 {fill:none;fill-rule:evenodd;font-size:12px;overflow:visible;stroke-linecap:square;stroke-miterlimit:3}
	]]></style>
  <style
     id="style5580"
     type="text/css">
	.st0{fill:#FFFFFF;}
</style>
</svg>
