<svg width="508mm" height="286.15mm" version="1.1" viewBox="0 0 508 286.15" xmlns="http://www.w3.org/2000/svg">
 <style type="text/css"><![CDATA[
		.st1 {fill:#0078d7;stroke:none;stroke-linecap:butt;stroke-width:0.75}
		.st2 {fill:none;fill-rule:evenodd;font-size:12px;overflow:visible;stroke-linecap:square;stroke-miterlimit:3}
	]]></style>
 <style type="text/css">.st0{fill:#FFFFFF;}</style>
 <style type="text/css"><![CDATA[
		.st1 {fill:#0078d7;stroke:none;stroke-linecap:butt;stroke-width:0.75}
		.st2 {fill:none;fill-rule:evenodd;font-size:12px;overflow:visible;stroke-linecap:square;stroke-miterlimit:3}
	]]></style>
 <g transform="translate(-6.3218 -1.3584)">
  <rect x="6.3218" y="1.3584" width="508" height="286.15" fill="#5a2c8f" style="paint-order:normal"/>
  <g transform="matrix(.031565 0 0 .031565 220.63 71.045)">
   <path d="m600 0 530.3 300v600l-530.3 300-530.3-300v-600z" fill="#fff"/>
   <path d="m1035.6 879.3-418.1 236.5v-184.2l260.5-143.3zm28.6-25.9v-494.6l-153 88.3v317.9zm-901.5 25.9 418.1 236.5v-184.2l-260.5-143.3zm-28.6-25.9v-494.6l153 88.3v317.9zm17.9-526.6 428.8-242.6v178.1l-274.7 151.1-2.1 1.2zm894.3 0-428.8-242.6v178.1l274.7 151.1 2.1 1.2z" fill="#b28edc"/>
   <path d="m580.8 889.7-257-141.3v-280l257 148.4v272.9m36.7 0 257-141.3v-280l-257 148.4v272.9m-276.3-453.7 258-141.9 258 141.9-258 149-258-149" fill="#5a2c8f"/>
  </g>
  <g transform="translate(-354.64 -11.226)">
   <g transform="translate(190.04,43.953)">
    <path d="m396.64 82.058v31.289h-2.6339v28.752h79.842v-32.025l-9.6442-3.9526-12.885 12.964v-8.9788l-9.6437-3.9523-13.044 13.122-8.0636-5.9287h-9.282v-31.289z" fill="#844bc9" stroke-width=".26458" style="paint-order:normal"/>
    <path d="m441.88 107.67-13.327 13.326-8.0722-6.0863-3.524 1.0891v16.209l3.4596 1.2174 8.0727-6.0868 13.454 13.39 8.1366-3.524v-26.076zm0 9.6742v13.647l-8.9696-6.8553zm-21.399 2.2426 4.9332 4.677-4.9332 4.5487z" fill="#fff"/>
   </g>
   <g transform="matrix(.053997 0 0 .053997 236.31 17.537)" fill="none">
    <g id="logo-square"></g>
   </g>
  </g>
  <g transform="translate(0 4.7783)">
   <g transform="matrix(.22771 0 0 .22771 -14.875 60.135)">
    <g transform="translate(-18.831 110.63)">
     <path d="m266.71-123 61.258 104.94 60.64-104.94h-46.675l-13.949 23.969-13.851-23.969z" fill="#844bc9"/>
     <path d="m291.09-123.16 36.754 62.963 36.384-62.963h-22.198l-14.046 24.136-13.947-24.136z" fill="#fff"/>
    </g>
   </g>
   <g transform="matrix(.22771 0 0 .22771 80.37 107.07)">
    <g transform="translate(-18.831 110.63)">
     <path d="m266.71-123 61.258 104.94 60.64-104.94h-46.675l-13.949 23.969-13.851-23.969z" fill="#844bc9"/>
     <path d="m291.09-123.16 36.754 62.963 36.384-62.963h-22.198l-14.046 24.136-13.947-24.136z" fill="#fff"/>
    </g>
   </g>
   <g transform="matrix(.06045 0 0 .06045 80.401 57.494)">
    <g transform="translate(119 276.36)">
     <polygon points="437.37 100.62 404.32 470.82 255.78 512 107.64 470.88 74.633 100.62" fill="#844bc9"/>
     <polygon points="256 130.89 256 480.52 376.03 447.25 404.27 130.89" fill="#b28edc"/>
     <g fill="#ebebeb">
      <polygon points="256 313.63 256 268.22 150.31 268.22 154.38 313.63"/>
      <polygon points="256 176.3 255.84 176.3 142.13 176.3 146.26 221.72 256 221.72"/>
      <polygon points="162.77 407.63 255.79 433.46 256 433.4 256 386.15 255.8 386.21 205.23 372.55 201.99 336.33 177.42 336.33 156.41 336.33"/>
     </g>
     <polygon points="255.84 221.72 319.83 221.72 315.7 268.22 255.84 268.22 255.84 313.63 311.76 313.63 306.49 372.52 255.84 386.19 255.84 433.44 348.94 407.63 349.62 399.96 360.29 280.41 361.4 268.22 369.6 176.3 255.84 176.3" fill="#fff"/>
    </g>
   </g>
   <g transform="matrix(.06045 0 0 .06045 32.778 80.962)">
    <g transform="translate(119 276.36)">
     <polygon points="74.633 100.62 437.37 100.62 404.32 470.82 255.78 512 107.64 470.88" fill="#844bc9"/>
     <polygon points="376.03 447.25 404.27 130.89 256 130.89 256 480.52" fill="#b28edc"/>
     <g fill="#ebebeb">
      <polygon points="150.31 268.22 154.38 313.63 256 313.63 256 268.22"/>
      <polygon points="256 221.72 256 176.3 255.84 176.3 142.13 176.3 146.26 221.72"/>
      <polygon points="256 386.15 255.8 386.21 205.23 372.55 201.99 336.33 177.42 336.33 156.41 336.33 162.77 407.63 255.79 433.46 256 433.4"/>
     </g>
     <polygon points="348.94 407.63 349.62 399.96 360.29 280.41 361.4 268.22 369.6 176.3 255.84 176.3 255.84 221.72 319.83 221.72 315.7 268.22 255.84 268.22 255.84 313.63 311.76 313.63 306.49 372.52 255.84 386.19 255.84 433.44" fill="#fff"/>
    </g>
   </g>
   <g transform="matrix(.22771 0 0 .22771 34.704 153.62)">
    <g transform="translate(-27.42 9.2851)">
     <path d="m266.71-123 61.258 104.94 60.64-104.94h-46.675l-13.949 23.969-13.851-23.969z" fill="#844bc9"/>
     <path d="m291.09-123.16 36.754 62.963 36.384-62.963h-22.198l-14.046 24.136-13.947-24.136z" fill="#fff"/>
    </g>
   </g>
   <g transform="matrix(.06021 0 0 .06021 135.28 144.68)">
    <path d="m107.6 471-33-370.4h362.8l-33 370.2-148.7 41.2" fill="#b28edc"/>
    <path d="m256 480.5v-349.5h148.3l-28.3 316" fill="#844bc9"/>
    <path d="m142 176.3h114v45.4h-64.2l4.2 46.5h60v45.3h-101.6m2 22.8h45.6l3.2 36.3 50.8 13.6v47.4l-93.2-26" fill="#fff"/>
    <path d="m369.6 176.3h-113.8v45.4h109.6m-4.1 46.5h-105.5v45.4h56l-5.3 59-50.7 13.6v47.2l93-25.8" fill="#ebebeb"/>
   </g>
   <g transform="matrix(.06021 0 0 .06021 40.033 144.68)">
    <path d="m107.6 471-33-370.4h362.8l-33 370.2-148.7 41.2" fill="#b28edc"/>
    <path d="m256 480.5v-349.5h148.3l-28.3 316" fill="#844bc9"/>
    <path d="m142 176.3h114v45.4h-64.2l4.2 46.5h60v45.3h-101.6m2 22.8h45.6l3.2 36.3 50.8 13.6v47.4l-93.2-26" fill="#fff"/>
    <path d="m369.6 176.3h-113.8v45.4h109.6m-4.1 46.5h-105.5v45.4h56l-5.3 59-50.7 13.6v47.2l93-25.8" fill="#ebebeb"/>
   </g>
   <g transform="matrix(.06045 0 0 .06045 80.401 151.37)">
    <g transform="translate(119 276.36)">
     <polygon points="404.32 470.82 255.78 512 107.64 470.88 74.633 100.62 437.37 100.62" fill="#844bc9"/>
     <polygon points="256 130.89 256 480.52 376.03 447.25 404.27 130.89" fill="#b28edc"/>
     <g fill="#ebebeb">
      <polygon points="256 313.63 256 268.22 150.31 268.22 154.38 313.63"/>
      <polygon points="255.84 176.3 142.13 176.3 146.26 221.72 256 221.72 256 176.3"/>
      <polygon points="162.77 407.63 255.79 433.46 256 433.4 256 386.15 255.8 386.21 205.23 372.55 201.99 336.33 177.42 336.33 156.41 336.33"/>
     </g>
     <polygon points="306.49 372.52 255.84 386.19 255.84 433.44 348.94 407.63 349.62 399.96 360.29 280.41 361.4 268.22 369.6 176.3 255.84 176.3 255.84 221.72 319.83 221.72 315.7 268.22 255.84 268.22 255.84 313.63 311.76 313.63" fill="#fff"/>
    </g>
   </g>
   <g transform="matrix(.22771 0 0 .22771 -14.875 200.95)">
    <g transform="translate(-18.831 110.63)">
     <path d="m266.71-123 61.258 104.94 60.64-104.94h-46.675l-13.949 23.969-13.851-23.969z" fill="#844bc9"/>
     <path d="m291.09-123.16 36.754 62.963 36.384-62.963h-22.198l-14.046 24.136-13.947-24.136z" fill="#fff"/>
    </g>
   </g>
   <g fill="none" stroke="#b28ddb" stroke-width="1.9557">
    <path d="m67.346 72.359 16.213 8.6456"/>
    <path d="m117 97.637 18.53 9.2407"/>
    <path d="m69.319 117.88 16.697 8.5256"/>
    <path d="m118.59 176.68 18.53-9.2407"/>
    <path d="m72.14 200.34 17.207-8.7116"/>
    <path d="m70.622 156.09 17.207-8.7116"/>
    <path d="m103.09 108.64v14.863"/>
    <path d="m55.367 85.365v13.69"/>
    <path d="m103.48 169.46v-13.299"/>
    <path d="m55.563 194.1v-13.886"/>
    <path d="m117.54 141.17 18.775 9.583"/>
   </g>
  </g>
  <g transform="translate(0 6.3891)">
   <circle cx="422.73" cy="138.04" r="55.088" fill="#5a2c8f" opacity=".99" stroke="#b28edc" stroke-linejoin="round" stroke-width="2.916" style="paint-order:normal"/>
   <g transform="matrix(.41984 0 0 .41984 396.47 111.84)">
    <ellipse cx="62.555" cy="62.403" rx="60.949" ry="60.456" fill="#844bc9" opacity=".99" style="paint-order:normal"/>
    <g fill="#fefdfe" stroke-width=".26458" aria-label="NET">
     <path d="m52.848 72.231h-5.1098l-18.306-28.352q-0.69453-1.0666-1.141-2.2324h-0.14883q0.19844 1.141 0.19844 4.8865v25.698h-4.1672v-35.57h5.4074l17.81 27.905q1.1162 1.7363 1.4387 2.3812h0.09922q-0.24805-1.5379-0.24805-5.2338v-25.053h4.1672z"/>
     <path d="m81.026 72.231h-18.852v-35.57h18.058v3.7703h-13.891v11.832h12.849v3.7455h-12.849v12.452h14.684z"/>
     <path d="m108.91 40.432h-10.269v31.8h-4.1672v-31.8h-10.244v-3.7703h24.681z"/>
    </g>
    <circle cx="15.592" cy="69.604" r="3.1183" fill="#fff" opacity=".99" style="paint-order:normal"/>
    <g fill="#fff" stroke-width=".26458" aria-label="Core">
     <path d="m51.586 95.223q-1.7529 0.92604-4.3656 0.92604-3.3734 0-5.4019-2.1718-2.0285-2.1718-2.0285-5.6996 0-3.7924 2.282-6.1295 2.282-2.3372 5.7878-2.3372 2.249 0 3.7262 0.65043v1.9734q-1.6977-0.94809-3.7483-0.94809-2.723 0-4.4207 1.819-1.6867 1.819-1.6867 4.8617 0 2.8884 1.5765 4.6082 1.5875 1.7088 4.1562 1.7088 2.3812 0 4.1231-1.0583z"/>
     <path d="m59.281 96.149q-2.5025 0-4.0018-1.5765-1.4883-1.5875-1.4883-4.2003 0-2.8443 1.5544-4.4428 1.5544-1.5985 4.2003-1.5985 2.5246 0 3.9357 1.5544 1.4221 1.5544 1.4221 4.3105 0 2.701-1.5324 4.3326-1.5214 1.6206-4.09 1.6206zm0.13229-10.297q-1.7418 0-2.7561 1.1906-1.0142 1.1796-1.0142 3.2632 0 2.0064 1.0253 3.164 1.0253 1.1576 2.7451 1.1576 1.7529 0 2.6899-1.1355 0.94809-1.1355 0.94809-3.2301 0-2.1167-0.94809-3.2632-0.93707-1.1465-2.6899-1.1465z"/>
     <path d="m73.679 86.426q-0.47404-0.3638-1.367-0.3638-1.1576 0-1.9403 1.0914-0.7717 1.0914-0.7717 2.9766v5.7547h-1.808v-11.289h1.808v2.3261h0.0441q0.38585-1.1906 1.1796-1.8521 0.79375-0.67248 1.7749-0.67248 0.70556 0 1.0804 0.15434z"/>
     <path d="m84.714 90.692h-7.9706q0.0441 1.8852 1.0142 2.9104 0.97014 1.0253 2.6679 1.0253 1.9072 0 3.5057-1.2568v1.6977q-1.4883 1.0804-3.9357 1.0804-2.3923 0-3.7593-1.5324-1.367-1.5434-1.367-4.3326 0-2.6348 1.4883-4.2885 1.4993-1.6647 3.7152-1.6647 2.2159 0 3.4286 1.4332 1.2127 1.4332 1.2127 3.9798zm-1.8521-1.5324q-0.01103-1.5655-0.76068-2.4364-0.73863-0.87092-2.0615-0.87092-1.2788 0-2.1718 0.91502-0.89297 0.91502-1.1024 2.3923z"/>
    </g>
   </g>
  </g>
  <g transform="matrix(.22771 0 0 .22771 352.41 191.58)">
   <g transform="translate(-18.831 110.63)">
    <path d="m266.71-123 61.258 104.94 60.64-104.94h-46.675l-13.949 23.969-13.851-23.969z" fill="#844bc9"/>
    <path d="m291.09-123.16 36.754 62.963 36.384-62.963h-22.198l-14.046 24.136-13.947-24.136z" fill="#fff"/>
   </g>
  </g>
  <g transform="matrix(.06045 0 0 .06045 348.98 82.889)">
   <g transform="translate(119 276.36)">
    <polygon points="437.37 100.62 404.32 470.82 255.78 512 107.64 470.88 74.633 100.62" fill="#844bc9"/>
    <polygon points="376.03 447.25 404.27 130.89 256 130.89 256 480.52" fill="#b28edc"/>
    <g fill="#ebebeb">
     <polygon points="150.31 268.22 154.38 313.63 256 313.63 256 268.22"/>
     <polygon points="256 176.3 255.84 176.3 142.13 176.3 146.26 221.72 256 221.72"/>
     <polygon points="256 386.15 255.8 386.21 205.23 372.55 201.99 336.33 177.42 336.33 156.41 336.33 162.77 407.63 255.79 433.46 256 433.4"/>
    </g>
    <polygon points="255.84 221.72 319.83 221.72 315.7 268.22 255.84 268.22 255.84 313.63 311.76 313.63 306.49 372.52 255.84 386.19 255.84 433.44 348.94 407.63 349.62 399.96 360.29 280.41 361.4 268.22 369.6 176.3 255.84 176.3" fill="#fff"/>
   </g>
  </g>
  <g transform="matrix(.06021 0 0 .06021 458.87 99.669)">
   <path d="m107.6 471-33-370.4h362.8l-33 370.2-148.7 41.2" fill="#b28edc"/>
   <path d="m256 480.5v-349.5h148.3l-28.3 316" fill="#844bc9"/>
   <path d="m142 176.3h114v45.4h-64.2l4.2 46.5h60v45.3h-101.6m2 22.8h45.6l3.2 36.3 50.8 13.6v47.4l-93.2-26" fill="#fff"/>
   <path d="m369.6 176.3h-113.8v45.4h109.6m-4.1 46.5h-105.5v45.4h56l-5.3 59-50.7 13.6v47.2l93-25.8" fill="#ebebeb"/>
  </g>
  <g transform="translate(4.4901 .37418)">
   <rect x="172.19" y="183.98" width="185.3" height="12.332" ry="6.166" fill="#844bc9" style="paint-order:normal"/>
   <g fill="#fff">
    <circle cx="351.33" cy="190.14" r="3.6364" style="paint-order:normal"/>
    <circle cx="178.62" cy="190.14" r="3.6364" style="paint-order:normal"/>
    <path d="m185.91 186.58h157.86" stroke="#fff" stroke-dasharray="6.31507533, 6.31507533" stroke-width="1.0525"/>
   </g>
  </g>
 </g>
 <g transform="translate(-6.3218 -1.3584)"></g>
</svg>
