<svg width="508mm" height="285.75mm" version="1.1" viewBox="0 0 508 285.75" xmlns="http://www.w3.org/2000/svg">
 <style type="text/css"><![CDATA[
		.st1 {fill:#0078d7;stroke:none;stroke-linecap:butt;stroke-width:0.75}
		.st2 {fill:none;fill-rule:evenodd;font-size:12px;overflow:visible;stroke-linecap:square;stroke-miterlimit:3}
	]]></style>
 <style type="text/css">.st0{fill:#FFFFFF;}</style>
 <style type="text/css"><![CDATA[
		.st1 {fill:#0078d7;stroke:none;stroke-linecap:butt;stroke-width:0.75}
		.st2 {fill:none;fill-rule:evenodd;font-size:12px;overflow:visible;stroke-linecap:square;stroke-miterlimit:3}
	]]></style>
 <g transform="translate(-5.1577 -.92944)">
  <rect x="5.1577" y=".92944" width="508" height="286.15" fill="#3aadda" style="paint-order:normal"/>
  <g transform="matrix(.65957 0 0 .65957 -76.909 237.84)">
   <rect x="388.27" y="28.488" width="25.172" height="43.921" fill="#2676a7"/>
   <g fill="none">
    <g stroke="#fff">
     <g stroke-width="1.8521">
      <path d="m391.22 31.998h19.738"/>
      <path d="m391.22 35.814h19.738"/>
      <path d="m391.22 39.631h19.738"/>
      <path d="m391.22 43.447h19.738"/>
      <path d="m390.94 51.081h19.738"/>
      <path d="m391.22 47.264h19.738"/>
     </g>
     <path d="m399.7 66.462v5.2119" stroke-width="1.6458"/>
     <path d="m402.23 66.462v5.2119" stroke-width="1.6458"/>
     <g stroke-width="1.8521">
      <path d="m391.13 54.523h19.738"/>
      <path d="m391.13 58.34h19.738"/>
      <path d="m391.13 62.156h19.738"/>
     </g>
    </g>
    <g stroke="#2676a7">
     <g stroke-width="1.8902">
      <path d="m393.98 29.594v37.461"/>
      <path d="m397.53 29.594v37.461"/>
      <path d="m404.63 29.594v37.461"/>
      <path d="m408.18 29.443v37.461"/>
     </g>
     <path d="m401.08 29.594v36.487" stroke-width="1.8655"/>
    </g>
   </g>
  </g>
  <g transform="matrix(.65957 0 0 .65957 64.521 237.84)">
   <rect x="388.27" y="28.488" width="25.172" height="43.921" fill="#2676a7"/>
   <g fill="none">
    <g stroke="#fff">
     <g stroke-width="1.8521">
      <path d="m391.22 31.998h19.738"/>
      <path d="m391.22 35.814h19.738"/>
      <path d="m391.22 39.631h19.738"/>
      <path d="m391.22 43.447h19.738"/>
      <path d="m390.94 51.081h19.738"/>
      <path d="m391.22 47.264h19.738"/>
     </g>
     <path d="m399.7 66.462v5.2119" stroke-width="1.6458"/>
     <path d="m402.23 66.462v5.2119" stroke-width="1.6458"/>
     <g stroke-width="1.8521">
      <path d="m391.13 54.523h19.738"/>
      <path d="m391.13 58.34h19.738"/>
      <path d="m391.13 62.156h19.738"/>
     </g>
    </g>
    <g stroke="#2676a7">
     <g stroke-width="1.8902">
      <path d="m393.98 29.594v37.461"/>
      <path d="m397.53 29.594v37.461"/>
      <path d="m404.63 29.594v37.461"/>
      <path d="m408.18 29.443v37.461"/>
     </g>
     <path d="m401.08 29.594v36.487" stroke-width="1.8655"/>
    </g>
   </g>
  </g>
  <path d="m316.47 206.16z" fill="none" stroke="#000" stroke-width=".26458px"/>
  <g transform="translate(-62.541 -13.298)">
   <rect x="312.77" y="200.58" width="17.859" height="9.2604" fill="#b8e9ff" opacity=".99" style="paint-order:normal"/>
   <path d="m316.27 203.58h10.851" fill="none" stroke="#2676a7" stroke-width=".52615"/>
   <path d="m316.27 206.85h10.851" fill="none" stroke="#2676a7" stroke-width=".52615"/>
  </g>
  <g transform="matrix(.71716 0 0 .71716 28.449 57.136)">
   <rect x="312.77" y="200.58" width="17.859" height="9.2604" fill="#b8e9ff" opacity=".99" style="paint-order:normal"/>
   <path d="m316.27 203.58h10.851" fill="none" stroke="#2676a7" stroke-width=".52615"/>
   <path d="m316.27 206.85h10.851" fill="none" stroke="#2676a7" stroke-width=".52615"/>
  </g>
  <g transform="matrix(.71716 0 0 .71716 82.365 86.477)">
   <rect x="312.77" y="200.58" width="17.859" height="9.2604" fill="#b8e9ff" opacity=".99" style="paint-order:normal"/>
   <path d="m316.27 203.58h10.851" fill="none" stroke="#2676a7" stroke-width=".52615"/>
   <path d="m316.27 206.85h10.851" fill="none" stroke="#2676a7" stroke-width=".52615"/>
  </g>
  <g transform="matrix(.71716 0 0 .71716 99.456 86.477)">
   <rect x="312.77" y="200.58" width="17.859" height="9.2604" fill="#b8e9ff" opacity=".99" style="paint-order:normal"/>
   <path d="m316.27 203.58h10.851" fill="none" stroke="#2676a7" stroke-width=".52615"/>
   <path d="m316.27 206.85h10.851" fill="none" stroke="#2676a7" stroke-width=".52615"/>
  </g>
  <g transform="matrix(.71716 0 0 .71716 116.55 86.477)">
   <rect x="312.77" y="200.58" width="17.859" height="9.2604" fill="#b8e9ff" opacity=".99" style="paint-order:normal"/>
   <path d="m316.27 203.58h10.851" fill="none" stroke="#2676a7" stroke-width=".52615"/>
   <path d="m316.27 206.85h10.851" fill="none" stroke="#2676a7" stroke-width=".52615"/>
  </g>
  <g transform="matrix(.71716 0 0 .71716 133.64 86.477)">
   <rect x="312.77" y="200.58" width="17.859" height="9.2604" fill="#b8e9ff" opacity=".99" style="paint-order:normal"/>
   <path d="m316.27 203.58h10.851" fill="none" stroke="#2676a7" stroke-width=".52615"/>
   <path d="m316.27 206.85h10.851" fill="none" stroke="#2676a7" stroke-width=".52615"/>
  </g>
  <g transform="matrix(.71716 0 0 .71716 167.82 86.477)">
   <rect x="312.77" y="200.58" width="17.859" height="9.2604" fill="#b8e9ff" opacity=".99" style="paint-order:normal"/>
   <path d="m316.27 203.58h10.851" fill="none" stroke="#2676a7" stroke-width=".52615"/>
   <path d="m316.27 206.85h10.851" fill="none" stroke="#2676a7" stroke-width=".52615"/>
  </g>
  <g transform="matrix(.71716 0 0 .71716 184.91 86.477)">
   <rect x="312.77" y="200.58" width="17.859" height="9.2604" fill="#b8e9ff" opacity=".99" style="paint-order:normal"/>
   <path d="m316.27 203.58h10.851" fill="none" stroke="#2676a7" stroke-width=".52615"/>
   <path d="m316.27 206.85h10.851" fill="none" stroke="#2676a7" stroke-width=".52615"/>
  </g>
  <g transform="matrix(.71716 0 0 .71716 184.91 75.372)">
   <rect x="312.77" y="200.58" width="17.859" height="9.2604" fill="#b8e9ff" opacity=".99" style="paint-order:normal"/>
   <path d="m316.27 203.58h10.851" fill="none" stroke="#2676a7" stroke-width=".52615"/>
   <path d="m316.27 206.85h10.851" fill="none" stroke="#2676a7" stroke-width=".52615"/>
  </g>
  <g transform="translate(93.918 4.9139)">
   <rect x="312.77" y="200.58" width="17.859" height="9.2604" fill="#b8e9ff" opacity=".99" style="paint-order:normal"/>
   <path d="m316.27 203.58h10.851" fill="none" stroke="#2676a7" stroke-width=".52615"/>
   <path d="m316.27 206.85h10.851" fill="none" stroke="#2676a7" stroke-width=".52615"/>
  </g>
  <g transform="translate(93.918 -22.535)">
   <rect x="312.77" y="200.58" width="17.859" height="9.2604" fill="#b8e9ff" opacity=".99" style="paint-order:normal"/>
   <path d="m316.27 203.58h10.851" fill="none" stroke="#2676a7" stroke-width=".52615"/>
   <path d="m316.27 206.85h10.851" fill="none" stroke="#2676a7" stroke-width=".52615"/>
  </g>
  <g transform="translate(93.918 -8.8105)">
   <rect x="312.77" y="200.58" width="17.859" height="9.2604" fill="#b8e9ff" opacity=".99" style="paint-order:normal"/>
   <path d="m316.27 203.58h10.851" fill="none" stroke="#2676a7" stroke-width=".52615"/>
   <path d="m316.27 206.85h10.851" fill="none" stroke="#2676a7" stroke-width=".52615"/>
  </g>
  <g transform="matrix(.71716 0 0 .71716 150.73 86.477)">
   <rect x="312.77" y="200.58" width="17.859" height="9.2604" fill="#b8e9ff" opacity=".99" style="paint-order:normal"/>
   <path d="m316.27 203.58h10.851" fill="none" stroke="#2676a7" stroke-width=".52615"/>
   <path d="m316.27 206.85h10.851" fill="none" stroke="#2676a7" stroke-width=".52615"/>
  </g>
  <path d="m201.02 206.72z" fill="none" stroke="#000" stroke-width=".26458px"/>
  <g transform="matrix(-.71716 0 0 .71716 415.11 86.477)">
   <rect x="312.77" y="200.58" width="17.859" height="9.2604" fill="#b8e9ff" opacity=".99" style="paint-order:normal"/>
   <path d="m316.27 203.58h10.851" fill="none" stroke="#2676a7" stroke-width=".52615"/>
   <path d="m316.27 206.85h10.851" fill="none" stroke="#2676a7" stroke-width=".52615"/>
  </g>
  <g transform="matrix(-.71716 0 0 .71716 398.02 86.477)">
   <rect x="312.77" y="200.58" width="17.859" height="9.2604" fill="#b8e9ff" opacity=".99" style="paint-order:normal"/>
   <path d="m316.27 203.58h10.851" fill="none" stroke="#2676a7" stroke-width=".52615"/>
   <path d="m316.27 206.85h10.851" fill="none" stroke="#2676a7" stroke-width=".52615"/>
  </g>
  <g transform="matrix(-.71716 0 0 .71716 380.93 86.477)">
   <rect x="312.77" y="200.58" width="17.859" height="9.2604" fill="#b8e9ff" opacity=".99" style="paint-order:normal"/>
   <path d="m316.27 203.58h10.851" fill="none" stroke="#2676a7" stroke-width=".52615"/>
   <path d="m316.27 206.85h10.851" fill="none" stroke="#2676a7" stroke-width=".52615"/>
  </g>
  <g transform="matrix(-.71716 0 0 .71716 363.84 86.477)">
   <rect x="312.77" y="200.58" width="17.859" height="9.2604" fill="#b8e9ff" opacity=".99" style="paint-order:normal"/>
   <path d="m316.27 203.58h10.851" fill="none" stroke="#2676a7" stroke-width=".52615"/>
   <path d="m316.27 206.85h10.851" fill="none" stroke="#2676a7" stroke-width=".52615"/>
  </g>
  <g transform="matrix(-.71716 0 0 .71716 432.2 86.477)">
   <rect x="312.77" y="200.58" width="17.859" height="9.2604" fill="#b8e9ff" opacity=".99" style="paint-order:normal"/>
   <path d="m316.27 203.58h10.851" fill="none" stroke="#2676a7" stroke-width=".52615"/>
   <path d="m316.27 206.85h10.851" fill="none" stroke="#2676a7" stroke-width=".52615"/>
  </g>
  <g transform="matrix(-.71716 0 0 .71716 329.6 75.236)">
   <rect x="312.77" y="200.58" width="17.859" height="9.2604" fill="#b8e9ff" opacity=".99" style="paint-order:normal"/>
   <path d="m316.27 203.58h10.851" fill="none" stroke="#2676a7" stroke-width=".52615"/>
   <path d="m316.27 206.85h10.851" fill="none" stroke="#2676a7" stroke-width=".52615"/>
  </g>
  <g transform="matrix(-.71716 0 0 .71716 329.6 64.04)">
   <rect x="312.77" y="200.58" width="17.859" height="9.2604" fill="#b8e9ff" opacity=".99" style="paint-order:normal"/>
   <path d="m316.27 203.58h10.851" fill="none" stroke="#2676a7" stroke-width=".52615"/>
   <path d="m316.27 206.85h10.851" fill="none" stroke="#2676a7" stroke-width=".52615"/>
  </g>
  <g transform="matrix(-1 0 0 1 420.59 -6.5077)">
   <rect x="312.77" y="200.58" width="17.859" height="9.2604" fill="#b8e9ff" opacity=".99" style="paint-order:normal"/>
   <path d="m316.27 203.58h10.851" fill="none" stroke="#2676a7" stroke-width=".52615"/>
   <path d="m316.27 206.85h10.851" fill="none" stroke="#2676a7" stroke-width=".52615"/>
  </g>
  <g transform="matrix(-1 0 0 1 420.59 -20.322)">
   <rect x="312.77" y="200.58" width="17.859" height="9.2604" fill="#b8e9ff" opacity=".99" style="paint-order:normal"/>
   <path d="m316.27 203.58h10.851" fill="none" stroke="#2676a7" stroke-width=".52615"/>
   <path d="m316.27 206.85h10.851" fill="none" stroke="#2676a7" stroke-width=".52615"/>
  </g>
  <g transform="matrix(-.71716 0 0 .71716 346.75 86.477)">
   <rect x="312.77" y="200.58" width="17.859" height="9.2604" fill="#b8e9ff" opacity=".99" style="paint-order:normal"/>
   <path d="m316.27 203.58h10.851" fill="none" stroke="#2676a7" stroke-width=".52615"/>
   <path d="m316.27 206.85h10.851" fill="none" stroke="#2676a7" stroke-width=".52615"/>
  </g>
  <g transform="matrix(-.71716 0 0 .71716 329.6 86.431)">
   <rect x="312.77" y="200.58" width="17.859" height="9.2604" fill="#b8e9ff" opacity=".99" style="paint-order:normal"/>
   <path d="m316.27 203.58h10.851" fill="none" stroke="#2676a7" stroke-width=".52615"/>
   <path d="m316.27 206.85h10.851" fill="none" stroke="#2676a7" stroke-width=".52615"/>
  </g>
  <g transform="translate(-143.25 -2.1728)">
   <rect x="312.77" y="200.58" width="17.859" height="9.2604" fill="#b8e9ff" opacity=".99" style="paint-order:normal"/>
   <path d="m316.27 203.58h10.851" fill="none" stroke="#2676a7" stroke-width=".52615"/>
   <path d="m316.27 206.85h10.851" fill="none" stroke="#2676a7" stroke-width=".52615"/>
  </g>
 </g>
 <g transform="translate(-5.1577 -.92944)">
  <g transform="translate(162.86 -192.08)" fill="#2676a7" stroke-width="3.2705">
   <circle cx="52.367" cy="249.25" r="21.33" style="paint-order:normal"/>
   <circle cx="117.65" cy="219.65" r="21.847" style="paint-order:normal"/>
   <circle cx="81.965" cy="230.51" r="21.847" style="paint-order:normal"/>
   <rect x="50.96" y="232.58" width="87.643" height="38.006" style="paint-order:normal"/>
   <circle cx="140.05" cy="249.25" r="21.33" style="paint-order:normal"/>
  </g>
  <g transform="translate(-231.32 223.44)">
   <rect x="429.8" y="16.786" width="18.389" height="45.373" fill="#2676a7"/>
   <g fill="none">
    <g stroke="#fff">
     <g stroke-width="1.2216">
      <path d="m432.6 19.668h13.019"/>
      <path d="m432.41 24.703h13.019"/>
      <path d="m432.6 22.186h13.019"/>
     </g>
     <path d="m438.17 58.396v3.4376" stroke-width="1.0855"/>
     <g stroke-width="1.2216">
      <path d="m432.53 26.974h13.019"/>
      <path d="m432.53 29.491h13.019"/>
      <path d="m432.53 32.008h13.019"/>
     </g>
    </g>
    <g stroke="#2676a7">
     <g stroke-width="1.0395">
      <path d="m434.42 18.061v17.178"/>
      <path d="m436.76 18.061v17.178"/>
      <path d="m441.44 18.061v17.178"/>
      <path d="m443.78 17.992v17.178"/>
     </g>
     <path d="m439.1 18.061v16.731" stroke-width="1.0259"/>
    </g>
    <g stroke="#fff" stroke-width="1.2216">
     <path d="m432.6 35.838h13.019"/>
     <path d="m432.6 38.355h13.019"/>
     <path d="m432.6 40.872h13.019"/>
     <path d="m432.6 43.39h13.019"/>
     <path d="m432.41 48.424h13.019"/>
     <path d="m432.6 45.907h13.019"/>
     <path d="m432.53 50.695h13.019"/>
     <path d="m432.53 53.212h13.019"/>
     <path d="m432.53 55.73h13.019"/>
    </g>
    <g stroke="#2676a7">
     <g stroke-width="1.2579">
      <path d="m434.42 33.807v25.154"/>
      <path d="m436.76 33.807v25.154"/>
      <path d="m441.44 33.807v25.154"/>
      <path d="m443.78 33.705v25.154"/>
     </g>
     <path d="m439.1 33.807v24.5" stroke-width="1.2415"/>
    </g>
    <path d="m439.83 58.396v3.4376" stroke="#fff" stroke-width="1.0855"/>
   </g>
  </g>
 </g>
 <g transform="translate(-5.1577 -.92944)">
  <g transform="translate(-161.22 223.44)">
   <rect x="451.51" y="40.863" width="27.517" height="21.296" fill="#2676a7"/>
   <g fill="none">
    <g stroke="#fff">
     <g stroke-width="1.0855">
      <path d="m456.2 58.321v3.4376"/>
      <path d="m457.87 58.321v3.4376"/>
      <path d="m472.54 58.387v3.4376"/>
      <path d="m474.2 58.387v3.4376"/>
     </g>
     <g stroke-width="1.3229">
      <path d="m453.2 43.303h24.083"/>
      <path d="m453.2 45.798h24.083"/>
      <path d="m453.2 48.292h24.083"/>
      <path d="m453.2 53.281h24.083"/>
      <path d="m453.2 50.787h24.083"/>
      <path d="m453.2 55.776h24.083"/>
     </g>
    </g>
    <g stroke="#2676a7" stroke-width="1.3229">
     <path d="m456.74 41.78v15.492"/>
     <path d="m461.07 41.78v15.492"/>
     <path d="m469.74 41.78v15.492"/>
     <path d="m474.07 41.717v15.492"/>
     <path d="m465.4 41.78v15.089"/>
    </g>
   </g>
  </g>
  <g transform="translate(286.07 25.372)">
   <rect x="113.93" y="132.34" width="31.221" height="15.875" fill="#b8e9ff"/>
   <g fill="none" stroke="#2676a7" stroke-width=".79375">
    <path d="m117.09 136.49h24.696"/>
    <path d="m117.09 140.32h24.696"/>
    <path d="m117.09 144.16h24.696"/>
   </g>
  </g>
  <g transform="translate(-30.922 27.494)">
   <rect x="113.93" y="132.34" width="31.221" height="15.875" fill="#b8e9ff"/>
   <g fill="none" stroke="#2676a7" stroke-width=".79375">
    <path d="m117.09 136.49h24.696"/>
    <path d="m117.09 140.32h24.696"/>
    <path d="m117.09 144.16h24.696"/>
   </g>
  </g>
  <g transform="translate(-200.57 99.243)" fill="#b8e9ff">
   <circle transform="scale(-1,1)" cx="-460.04" cy="141.81" r="28.96"/>
   <path d="m477.35 163.2v18.984h-31.485s1.7852-5.8473 0.26458-5.8522l-10.782-0.0347s5.0271-15.743-3.3734-15.743-6.4161-3.1088-5.8869-3.9026c0.52917-0.79375 6.6146-9.6573 6.6146-9.6573z" stroke="#b8e9ff" stroke-linecap="round" stroke-linejoin="round" stroke-width="2"/>
  </g>
  <g transform="translate(-205.07 117.06)">
   <circle cx="464.26" cy="122.29" r="11.857" fill="#fff" opacity=".99" stroke="#2676a7" stroke-linecap="round" stroke-width="2.6458" style="paint-order:normal"/>
   <g fill-opacity=".9797" stroke="#2676a7" stroke-linecap="round" stroke-width="2.6458">
    <path d="m464.23 105.52v2.8063"/>
    <path d="m476.07 110.39-2.058 2.058"/>
    <path d="m480.93 122.31h-2.8063"/>
   </g>
   <path d="m475.97 134.1-1.9878-1.9878" fill="none" stroke="#2676a7" stroke-linecap="round" stroke-width="2.6458"/>
   <g fill-opacity=".9797" stroke="#2676a7" stroke-linecap="round" stroke-width="2.6458">
    <path d="m452.35 134.1 2.0112-2.0112"/>
    <path d="m447.53 122.27h2.7596"/>
    <path d="m452.45 110.48 1.7306 1.7306"/>
   </g>
   <path d="m460.44 133.73v5.6171l1.637 1.4456h4.3498l1.5903-1.4043v-5.6171z" fill="#2676a7" stroke="#2676a7" stroke-linecap="round" stroke-width="2.6458"/>
   <rect x="461.16" y="130.95" width="6.1516" height="4.9609" fill="#feffff" style="paint-order:normal"/>
   <path d="m455.81 122.45c-0.0331-4.2995 3.605-8.4997 8.4336-8.4997" fill="none" stroke="#2676a7" stroke-linecap="round" stroke-width="2.6458"/>
  </g>
  <g transform="translate(-12.194 -237.24)" fill="none" stroke-linecap="round" stroke-linejoin="round">
   <rect x="293.46" y="297.46" width="3.3676" height="6.1354" opacity=".99" stroke="#feffff" stroke-width=".94487" style="paint-order:normal"/>
   <g stroke-width=".92899">
    <path d="m299.78 297.47h1.754v6.1192h-1.7773 3.5547v-2.2359" stroke="#3aadda"/>
    <path d="m306.17 297.47h1.754v6.1192h-1.7773 3.5547v-2.2359" stroke="#b8e9ff"/>
    <path d="m318.96 297.47h1.754v6.1192h-1.7773 3.5547v-2.2359" stroke="#feffff"/>
   </g>
   <rect x="312.64" y="297.46" width="3.3676" height="6.1354" opacity=".99" stroke="#3aadda" stroke-width=".94487" style="paint-order:normal"/>
   <rect x="325.42" y="297.46" width="3.3676" height="6.1354" opacity=".99" stroke="#b8e9ff" stroke-width=".94487" style="paint-order:normal"/>
   <path d="m331.74 297.47h1.754v6.1192h-1.7773 3.5547v-2.2359" stroke="#b7e8fe" stroke-width=".92899"/>
   <path d="m344.53 297.47h1.754v6.1192h-1.7773 3.5547v-2.2359" stroke="#2676a7" stroke-width=".92899"/>
   <rect x="338.21" y="297.46" width="3.3676" height="6.1354" opacity=".99" stroke="#feffff" stroke-width=".94487" style="paint-order:normal"/>
   <path d="m357.31 297.47h1.754v6.1192h-1.7773 3.5547v-2.2359" stroke="#2676a7" stroke-width=".92899"/>
   <rect x="363.78" y="297.46" width="3.3676" height="6.1354" opacity=".99" stroke="#b8e9ff" stroke-width=".94487" style="paint-order:normal"/>
   <path d="m350.92 297.47h1.754v6.1192h-1.7773 3.5547v-2.2359" stroke="#fcfeff" stroke-width=".92899"/>
  </g>
  <g transform="translate(129.61 34.632)">
   <rect x="113.93" y="132.34" width="31.221" height="15.875" fill="#b8e9ff"/>
   <g fill="none" stroke="#2676a7" stroke-width=".79375">
    <path d="m117.09 136.49h24.696"/>
    <path d="m117.09 140.32h24.696"/>
    <path d="m117.09 144.16h24.696"/>
   </g>
  </g>
  <g transform="translate(0 1.0697)">
   <g transform="translate(31.061 -14.363)">
    <rect x="312.77" y="200.58" width="17.859" height="9.2604" fill="#b8e9ff" opacity=".99" style="paint-order:normal"/>
    <path d="m316.27 203.58h10.851" fill="none" stroke="#2676a7" stroke-width=".52615"/>
    <path d="m316.27 206.85h10.851" fill="none" stroke="#2676a7" stroke-width=".52615"/>
   </g>
   <g transform="translate(31.061 -.94026)">
    <rect x="312.77" y="200.58" width="17.859" height="9.2604" fill="#b8e9ff" opacity=".99" style="paint-order:normal"/>
    <path d="m316.27 203.58h10.851" fill="none" stroke="#2676a7" stroke-width=".52615"/>
    <path d="m316.27 206.85h10.851" fill="none" stroke="#2676a7" stroke-width=".52615"/>
   </g>
   <g transform="matrix(.71716 0 0 .71716 103.86 69.216)">
    <rect x="312.77" y="200.58" width="17.859" height="9.2604" fill="#b8e9ff" opacity=".99" style="paint-order:normal"/>
    <path d="m316.27 203.58h10.851" fill="none" stroke="#2676a7" stroke-width=".52615"/>
    <path d="m316.27 206.85h10.851" fill="none" stroke="#2676a7" stroke-width=".52615"/>
   </g>
   <g transform="matrix(.71716 0 0 .71716 85.672 69.216)">
    <rect x="312.77" y="200.58" width="17.859" height="9.2604" fill="#b8e9ff" opacity=".99" style="paint-order:normal"/>
    <path d="m316.27 203.58h10.851" fill="none" stroke="#2676a7" stroke-width=".52615"/>
    <path d="m316.27 206.85h10.851" fill="none" stroke="#2676a7" stroke-width=".52615"/>
   </g>
   <g transform="matrix(.71716 0 0 .71716 67.482 69.216)">
    <rect x="312.77" y="200.58" width="17.859" height="9.2604" fill="#b8e9ff" opacity=".99" style="paint-order:normal"/>
    <path d="m316.27 203.58h10.851" fill="none" stroke="#2676a7" stroke-width=".52615"/>
    <path d="m316.27 206.85h10.851" fill="none" stroke="#2676a7" stroke-width=".52615"/>
   </g>
   <g transform="matrix(.71716 0 0 .71716 122.05 69.216)">
    <rect x="312.77" y="200.58" width="17.859" height="9.2604" fill="#b8e9ff" opacity=".99" style="paint-order:normal"/>
    <path d="m316.27 203.58h10.851" fill="none" stroke="#2676a7" stroke-width=".52615"/>
    <path d="m316.27 206.85h10.851" fill="none" stroke="#2676a7" stroke-width=".52615"/>
   </g>
   <g transform="translate(223.22 33.846)">
    <rect x="113.93" y="132.34" width="31.221" height="15.875" fill="#b8e9ff"/>
    <g fill="none" stroke="#2676a7" stroke-width=".79375">
     <path d="m117.09 136.49h24.696"/>
     <path d="m117.09 140.32h24.696"/>
     <path d="m117.09 144.16h24.696"/>
    </g>
   </g>
  </g>
  <g transform="matrix(-.71716 0 0 .71716 411.68 70.285)">
   <rect x="312.77" y="200.58" width="17.859" height="9.2604" fill="#b8e9ff" opacity=".99" style="paint-order:normal"/>
   <path d="m316.27 203.58h10.851" fill="none" stroke="#2676a7" stroke-width=".52615"/>
   <path d="m316.27 206.85h10.851" fill="none" stroke="#2676a7" stroke-width=".52615"/>
  </g>
  <g transform="matrix(-.71716 0 0 .71716 428.2 70.285)">
   <rect x="312.77" y="200.58" width="17.859" height="9.2604" fill="#b8e9ff" opacity=".99" style="paint-order:normal"/>
   <path d="m316.27 203.58h10.851" fill="none" stroke="#2676a7" stroke-width=".52615"/>
   <path d="m316.27 206.85h10.851" fill="none" stroke="#2676a7" stroke-width=".52615"/>
  </g>
  <g transform="matrix(-.71716 0 0 .71716 444.72 70.285)">
   <rect x="312.77" y="200.58" width="17.859" height="9.2604" fill="#b8e9ff" opacity=".99" style="paint-order:normal"/>
   <path d="m316.27 203.58h10.851" fill="none" stroke="#2676a7" stroke-width=".52615"/>
   <path d="m316.27 206.85h10.851" fill="none" stroke="#2676a7" stroke-width=".52615"/>
  </g>
  <g transform="translate(42.22 43.733)">
   <rect x="113.93" y="132.34" width="31.221" height="15.875" fill="#b8e9ff"/>
   <g fill="none" stroke="#2676a7" stroke-width=".79375">
    <path d="m117.09 136.49h24.696"/>
    <path d="m117.09 140.32h24.696"/>
    <path d="m117.09 144.16h24.696"/>
   </g>
  </g>
  <g fill="none" stroke-linecap="round" stroke-linejoin="round">
   <path d="m74.065 54.568h1.754v6.1192h-1.7773 3.5547v-2.2359" stroke="#b8e9ff" stroke-width=".92899"/>
   <path d="m74.065 82.106h1.754v6.1192h-1.7773 3.5547v-2.2358" stroke="#feffff" stroke-width=".92899"/>
   <g stroke-width=".94487">
    <rect x="74.138" y="100.48" width="3.3676" height="6.1354" opacity=".99" stroke="#2676a7" style="paint-order:normal"/>
    <rect x="74.138" y="109.68" width="3.3676" height="6.1354" opacity=".99" stroke="#b8e9ff" style="paint-order:normal"/>
    <rect x="74.138" y="91.282" width="3.3676" height="6.1354" opacity=".99" stroke="#feffff" style="paint-order:normal"/>
   </g>
   <path d="m74.065 72.937h1.754v6.1192h-1.7773 3.5547v-2.2359" stroke="#2777a8" stroke-width=".92899"/>
   <path d="m74.065 118.88h1.754v6.1192h-1.7773 3.5547v-2.2359" stroke="#2676a7" stroke-width=".92899"/>
   <rect x="74.138" y="63.745" width="3.3676" height="6.1354" opacity=".99" stroke="#feffff" stroke-width=".94487" style="paint-order:normal"/>
   <path d="m74.065 128.04h1.754v6.1192h-1.7773 3.5547v-2.2358" stroke="#feffff" stroke-width=".92899"/>
  </g>
  <g fill="none" stroke-linecap="round" stroke-linejoin="round">
   <rect x="176.19" y="45.395" width="3.3676" height="6.1354" opacity=".99" stroke="#feffff" stroke-width=".94487" style="paint-order:normal"/>
   <g stroke-width=".92899">
    <path d="m182.76 45.403h1.754v6.1192h-1.7773 3.5547v-2.2359" stroke="#2676a7"/>
    <path d="m189.49 45.403h1.754v6.1192h-1.7773 3.5547v-2.2359" stroke="#b8e9ff"/>
    <path d="m196.21 45.403h1.754v6.1192h-1.7773 3.5547v-2.2359" stroke="#feffff"/>
   </g>
   <rect x="202.93" y="45.395" width="3.3676" height="6.1354" opacity=".99" stroke="#b8e9ff" stroke-width=".94487" style="paint-order:normal"/>
   <rect x="209.49" y="45.395" width="3.3676" height="6.1354" opacity=".99" stroke="#feffff" stroke-width=".94487" style="paint-order:normal"/>
   <path d="m216.06 45.403h1.754v6.1192h-1.7773 3.5547v-2.2359" stroke="#3aadda" stroke-width=".92899"/>
   <path d="m229.34 45.403h1.754v6.1192h-1.7773 3.5547v-2.2359" stroke="#3aadda" stroke-width=".92899"/>
   <rect x="222.77" y="45.395" width="3.3676" height="6.1354" opacity=".99" stroke="#feffff" stroke-width=".94487" style="paint-order:normal"/>
   <rect x="116.32" y="45.395" width="3.3676" height="6.1354" opacity=".99" stroke="#feffff" stroke-width=".94487" style="paint-order:normal"/>
   <g stroke-width=".92899">
    <path d="m122.89 45.403h1.754v6.1192h-1.7773 3.5547v-2.2359" stroke="#2676a7"/>
    <path d="m129.62 45.403h1.754v6.1192h-1.7773 3.5547v-2.2359" stroke="#b8e9ff"/>
    <path d="m142.9 45.403h1.754v6.1192h-1.7773 3.5547v-2.2359" stroke="#feffff"/>
   </g>
   <rect x="136.34" y="45.395" width="3.3676" height="6.1354" opacity=".99" stroke="#2676a7" stroke-width=".94487" style="paint-order:normal"/>
   <rect x="149.62" y="45.395" width="3.3676" height="6.1354" opacity=".99" stroke="#feffff" stroke-width=".94487" style="paint-order:normal"/>
   <path d="m156.19 45.403h1.754v6.1192h-1.7773 3.5547v-2.2359" stroke="#2777a8" stroke-width=".92899"/>
   <path d="m169.48 45.403h1.754v6.1192h-1.7773 3.5547v-2.2359" stroke="#2676a7" stroke-width=".92899"/>
   <rect x="162.91" y="45.395" width="3.3676" height="6.1354" opacity=".99" stroke="#feffff" stroke-width=".94487" style="paint-order:normal"/>
   <rect x="73.945" y="45.395" width="3.3676" height="6.1354" opacity=".99" stroke="#2676a7" stroke-width=".94487" style="paint-order:normal"/>
   <g transform="translate(-216.18 -172.26)">
    <rect x="296.69" y="217.65" width="3.3676" height="6.1354" opacity=".99" stroke="#feffff" stroke-width=".94487" style="paint-order:normal"/>
    <g stroke-width=".92899">
     <path d="m302.47 217.66h1.754v6.1192h-1.7773 3.5547v-2.2359" stroke="#2676a7"/>
     <path d="m308.32 217.66h1.754v6.1192h-1.7773 3.5547v-2.2359" stroke="#b8e9ff"/>
     <path d="m320.02 217.66h1.754v6.1192h-1.7773 3.5547v-2.2359" stroke="#feffff"/>
    </g>
    <rect x="314.24" y="217.65" width="3.3676" height="6.1354" opacity=".99" stroke="#2676a7" stroke-width=".94487" style="paint-order:normal"/>
    <rect x="325.95" y="217.65" width="3.3676" height="6.1354" opacity=".99" stroke="#b8e9ff" stroke-width=".94487" style="paint-order:normal"/>
   </g>
  </g>
  <g fill="none" stroke-linecap="round" stroke-linejoin="round">
   <g transform="translate(-9.1982 -172.26)">
    <rect x="296.69" y="217.65" width="3.3676" height="6.1354" opacity=".99" stroke="#feffff" stroke-width=".94487" style="paint-order:normal"/>
    <g stroke-width=".92899">
     <path d="m303.2 217.66h1.754v6.1192h-1.7773 3.5547v-2.2359" stroke="#3aadda"/>
     <path d="m309.78 217.66h1.754v6.1192h-1.7773 3.5547v-2.2359" stroke="#b8e9ff"/>
     <path d="m322.95 217.66h1.754v6.1192h-1.7773 3.5547v-2.2359" stroke="#feffff"/>
    </g>
    <rect x="316.44" y="217.65" width="3.3676" height="6.1354" opacity=".99" stroke="#3aadda" stroke-width=".94487" style="paint-order:normal"/>
    <rect x="329.6" y="217.65" width="3.3676" height="6.1354" opacity=".99" stroke="#b8e9ff" stroke-width=".94487" style="paint-order:normal"/>
    <path d="m336.11 217.66h1.754v6.1192h-1.7773 3.5547v-2.2359" stroke="#2777a8" stroke-width=".92899"/>
    <path d="m349.28 217.66h1.754v6.1192h-1.7773 3.5547v-2.2359" stroke="#2676a7" stroke-width=".92899"/>
    <rect x="342.77" y="217.65" width="3.3676" height="6.1354" opacity=".99" stroke="#feffff" stroke-width=".94487" style="paint-order:normal"/>
   </g>
   <rect x="346.6" y="45.395" width="3.3676" height="6.1354" opacity=".99" stroke="#feffff" stroke-width=".94487" style="paint-order:normal"/>
   <g stroke-width=".92899">
    <path d="m352.97 45.403h1.754v6.1192h-1.7773 3.5547v-2.2359" stroke="#2676a7"/>
    <path d="m359.5 45.403h1.754v6.1192h-1.7773 3.5547v-2.2359" stroke="#b8e9ff"/>
    <path d="m372.38 45.403h1.754v6.1192h-1.7773 3.5547v-2.2359" stroke="#feffff"/>
   </g>
   <rect x="366.01" y="45.395" width="3.3676" height="6.1354" opacity=".99" stroke="#2676a7" stroke-width=".94487" style="paint-order:normal"/>
   <rect x="378.9" y="45.395" width="3.3676" height="6.1354" opacity=".99" stroke="#feffff" stroke-width=".94487" style="paint-order:normal"/>
   <path d="m385.27 45.403h1.754v6.1192h-1.7773 3.5547v-2.2359" stroke="#2777a8" stroke-width=".92899"/>
   <path d="m398.16 45.403h1.754v6.1192h-1.7773 3.5547v-2.2359" stroke="#2676a7" stroke-width=".92899"/>
   <rect x="391.79" y="45.395" width="3.3676" height="6.1354" opacity=".99" stroke="#feffff" stroke-width=".94487" style="paint-order:normal"/>
   <g transform="translate(107.99 -172.27)">
    <rect x="296.69" y="217.65" width="3.3676" height="6.1354" opacity=".99" stroke="#feffff" stroke-width=".94487" style="paint-order:normal"/>
    <g stroke-width=".92899">
     <path d="m302.47 217.66h1.754v6.1192h-1.7773 3.5547v-2.2359" stroke="#2676a7"/>
     <path d="m308.32 217.66h1.754v6.1192h-1.7773 3.5547v-2.2359" stroke="#b8e9ff"/>
     <path d="m320.02 217.66h1.754v6.1192h-1.7773 3.5547v-2.2359" stroke="#feffff"/>
    </g>
    <rect x="314.24" y="217.65" width="3.3676" height="6.1354" opacity=".99" stroke="#feffff" stroke-width=".94487" style="paint-order:normal"/>
    <rect x="325.95" y="217.65" width="3.3676" height="6.1354" opacity=".99" stroke="#b8e9ff" stroke-width=".94487" style="paint-order:normal"/>
   </g>
  </g>
  <g transform="matrix(.65452 0 0 .65452 28.426 51.382)">
   <path d="m147.27 66.15v157.19h61.648v-157.19z" fill="#2676a7"/>
   <g transform="matrix(.84804 0 0 .84804 -73.536 98.025)">
    <rect x="270.5" y="28.256" width="52.011" height="49.017" fill="#b8e9ff"/>
    <rect x="276.26" y="33.951" width="40.831" height="25.178" ry="0" fill="#2676a7"/>
    <path d="m277.04 70.754h39.258" fill="none" stroke="#2676a7" stroke-linecap="round" stroke-width="1.6234"/>
    <path d="m277.04 65.322h39.258" fill="none" stroke="#2676a7" stroke-linecap="round" stroke-width="1.6234"/>
    <g fill="#97d4eb">
     <rect x="280.89" y="36.394" width="9.0738" height="13.003"/>
     <circle cx="307.36" cy="43.55" r="5.4256"/>
     <path d="m289.72 55.005 6.9341-12.176 7.0109 12.143z"/>
    </g>
   </g>
   <g transform="matrix(.84804 0 0 .84804 -73.536 150.92)">
    <rect x="270.5" y="28.256" width="52.011" height="49.017" fill="#aee4fc"/>
    <rect x="276.26" y="33.951" width="40.831" height="25.178" ry="0" fill="#2676a7"/>
    <path d="m277.04 70.754h39.258" fill="none" stroke="#2676a7" stroke-linecap="round" stroke-width="1.6234"/>
    <path d="m277.04 65.322h39.258" fill="none" stroke="#2676a7" stroke-linecap="round" stroke-width="1.6234"/>
    <g fill="#97d4eb">
     <rect x="292.77" y="35.926" width="9.0738" height="13.003"/>
     <circle cx="308.48" cy="50.192" r="5.4256"/>
     <path d="m279.62 54.443 6.9341-12.176 7.0109 12.143z"/>
    </g>
   </g>
   <g transform="matrix(.84804 0 0 .84804 -72.812 48.536)">
    <rect x="270.5" y="28.256" width="52.011" height="49.017" fill="#b8e9ff"/>
    <rect x="276.26" y="33.951" width="40.831" height="25.178" ry="0" fill="#2676a7"/>
    <path d="m277.04 70.754h39.258" fill="none" stroke="#2676a7" stroke-linecap="round" stroke-width="1.6234"/>
    <path d="m277.04 65.322h39.258" fill="none" stroke="#2676a7" stroke-linecap="round" stroke-width="1.6234"/>
    <g fill="#97d4eb">
     <rect x="280.89" y="36.394" width="9.0738" height="13.003"/>
     <circle cx="307.36" cy="43.55" r="5.4256"/>
     <path d="m289.72 55.005 6.9341-12.176 7.0109 12.143z"/>
    </g>
   </g>
  </g>
  <g transform="matrix(.63552 0 0 .63552 335.79 52.262)">
   <path transform="matrix(.26458 0 0 .26458 1.8423 1.9977)" d="m38.627 411.45v278.37h196.58v-278.37z" fill="#2676a7"/>
   <g fill="#97d4eb">
    <rect x="17.071" y="127.54" width="41.994" height="10.08" ry="0"/>
    <rect x="17.071" y="141.41" width="41.994" height="10.08" ry="0"/>
    <rect x="17.071" y="155.27" width="41.994" height="10.08" ry="0"/>
    <rect x="17.071" y="169.13" width="41.994" height="10.08" ry="0"/>
   </g>
   <g fill="none" stroke-linecap="round">
    <path d="m18.995 119.13h26.876" stroke="#fff" stroke-width="2.6437"/>
    <g stroke="#2676a7" stroke-width="1.5862">
     <path d="m24.63 132.58h26.876"/>
     <path d="m24.63 146.45h26.876"/>
     <path d="m24.63 160.31h26.876"/>
     <path d="m24.63 174.17h26.876"/>
    </g>
   </g>
  </g>
  <g fill="none" stroke-linecap="round" stroke-linejoin="round">
   <rect x="162.09" y="60.228" width="3.3676" height="6.1354" opacity=".99" stroke="#feffff" stroke-width=".94487" style="paint-order:normal"/>
   <g stroke-width=".92899">
    <path d="m168.35 60.236h1.754v6.1192h-1.7773 3.5547v-2.2359" stroke="#2676a7"/>
    <path d="m174.61 60.236h1.754v6.1192h-1.7773 3.5547v-2.2359" stroke="#b8e9ff"/>
    <path d="m187.11 60.236h1.754v6.1192h-1.7773 3.5547v-2.2359" stroke="#feffff"/>
   </g>
   <rect x="180.85" y="60.228" width="3.3676" height="6.1354" opacity=".99" stroke="#2676a7" stroke-width=".94487" style="paint-order:normal"/>
   <rect x="193.36" y="60.228" width="3.3676" height="6.1354" opacity=".99" stroke="#feffff" stroke-width=".94487" style="paint-order:normal"/>
   <path d="m199.62 60.236h1.754v6.1192h-1.7773 3.5547v-2.2359" stroke="#b7e8fe" stroke-width=".92899"/>
   <path d="m212.12 60.236h1.754v6.1192h-1.7773 3.5547v-2.2359" stroke="#3aadda" stroke-width=".92899"/>
   <rect x="205.86" y="60.228" width="3.3676" height="6.1354" opacity=".99" stroke="#feffff" stroke-width=".94487" style="paint-order:normal"/>
   <path d="m224.63 60.236h1.754v6.1192h-1.7773 3.5547v-2.2359" stroke="#3aadda" stroke-width=".92899"/>
   <rect x="230.87" y="60.228" width="3.3676" height="6.1354" opacity=".99" stroke="#b8e9ff" stroke-width=".94487" style="paint-order:normal"/>
   <path d="m218.38 60.236h1.754v6.1192h-1.7773 3.5547v-2.2359" stroke="#fcfeff" stroke-width=".92899"/>
   <path d="m149.6 60.22h1.754v6.1192h-1.7773 3.5547v-2.2359" stroke="#fcfeff" stroke-width=".92899"/>
   <rect x="155.84" y="60.228" width="3.3676" height="6.1354" opacity=".99" stroke="#b8e9ff" stroke-width=".94487" style="paint-order:normal"/>
  </g>
  <g transform="translate(0 -.10155)" fill="none" stroke-linecap="round" stroke-linejoin="round">
   <rect x="143.42" y="60.329" width="3.3676" height="6.1354" opacity=".99" stroke="#2676a7" stroke-width=".94487" style="paint-order:normal"/>
   <g stroke-width=".92899">
    <path d="m143.34 78.672h1.754v6.1192h-1.7773 3.5547v-2.2359" stroke="#b8e9ff"/>
    <path d="m143.34 87.84h1.754v6.1192h-1.7773 3.5547v-2.2359" stroke="#feffff"/>
    <path d="m143.34 69.505h1.754v6.1192h-1.7773 3.5547v-2.2359" stroke="#fcfeff"/>
   </g>
  </g>
  <g transform="translate(11.907 -7.8865)" fill="none" stroke-linecap="round" stroke-linejoin="round">
   <path d="m245.49 78.661h1.754v6.1192h-1.7773 3.5547v-2.2359" stroke="#b8e9ff" stroke-width=".92899"/>
   <path d="m245.49 106.14h1.754v6.1192h-1.7773 3.5547v-2.2358" stroke="#feffff" stroke-width=".92899"/>
   <rect x="245.48" y="124.48" width="3.3676" height="6.1354" opacity=".99" stroke="#b8e9ff" stroke-width=".94487" style="paint-order:normal"/>
   <rect x="245.48" y="115.3" width="3.3676" height="6.1354" opacity=".99" stroke="#feffff" stroke-width=".94487" style="paint-order:normal"/>
   <path d="m245.49 96.992h1.754v6.1192h-1.7773 3.5547v-2.2359" stroke="#2777a8" stroke-width=".92899"/>
   <rect x="245.48" y="87.818" width="3.3676" height="6.1354" opacity=".99" stroke="#feffff" stroke-width=".94487" style="paint-order:normal"/>
  </g>
  <g transform="matrix(.69665 0 0 .69665 42.296 92.2)">
   <path d="m241.69 39.706v75.385h139.21v-75.385z" fill="#2676a7"/>
   <g transform="translate(-32.961 4.8643)">
    <g transform="matrix(.58993 0 0 .58993 200.45 36.542)">
     <rect x="270.5" y="28.256" width="52.011" height="64.733" fill="#2676a7"/>
     <rect x="276.09" y="33.951" width="40.831" height="28.733" ry="0" fill="#fff"/>
     <g fill="none" stroke-linecap="round">
      <path d="m277.5 68.705h26.876" stroke="#fff" stroke-width="2.6437"/>
      <g stroke="#97d4eb" stroke-width="1.6234">
       <path d="m276.99 75.516h39.258"/>
       <path d="m276.99 81.205h39.258"/>
       <path d="m276.99 86.893h39.258"/>
      </g>
     </g>
     <g fill="#97d4eb">
      <rect x="281.73" y="38.826" width="9.0738" height="17.399"/>
      <circle cx="307.36" cy="43.55" r="5.4256"/>
      <path d="m293.09 59.308 6.9341-12.176 7.0109 12.143z"/>
     </g>
    </g>
    <rect x="360.02" y="53.211" width="30.683" height="38.188" fill="#97d4eb" fill-opacity=".57419"/>
   </g>
   <g transform="translate(-94.98 4.5009)">
    <g transform="matrix(.58993 0 0 .58993 200.45 36.542)">
     <rect x="270.5" y="28.256" width="52.011" height="64.733" fill="#2676a7"/>
     <rect x="276.09" y="33.951" width="40.831" height="28.733" ry="0" fill="#fff"/>
     <g fill="none" stroke-linecap="round">
      <path d="m277.5 68.705h26.876" stroke="#fff" stroke-width="2.6437"/>
      <g stroke="#97d4eb" stroke-width="1.6234">
       <path d="m276.99 75.516h39.258"/>
       <path d="m276.99 81.205h39.258"/>
       <path d="m276.99 86.893h39.258"/>
      </g>
     </g>
     <g fill="#97d4eb">
      <rect x="281.73" y="38.826" width="9.0738" height="17.399"/>
      <circle cx="307.36" cy="43.55" r="5.4256"/>
      <path d="m293.09 59.308 6.9341-12.176 7.0109 12.143z"/>
     </g>
    </g>
    <rect x="360.02" y="53.211" width="30.683" height="38.188" fill="#97d4eb" fill-opacity=".57419"/>
   </g>
   <g transform="translate(14.786 16.183)">
    <rect x="270.5" y="28.256" width="52.011" height="64.733" fill="#3298c7"/>
    <rect x="276.09" y="33.951" width="40.831" height="28.733" ry="0" fill="#fff"/>
    <g fill="none" stroke-linecap="round">
     <path d="m277.5 68.705h26.876" stroke="#fff" stroke-width="2.6437"/>
     <g stroke="#97d4eb" stroke-width="1.6234">
      <path d="m276.99 75.516h39.258"/>
      <path d="m276.99 81.205h39.258"/>
      <path d="m276.99 86.893h39.258"/>
     </g>
    </g>
    <g fill="#97d4eb">
     <rect x="281.73" y="38.826" width="9.0738" height="17.399"/>
     <circle cx="307.36" cy="43.55" r="5.4256"/>
     <path d="m293.09 59.308 6.9341-12.176 7.0109 12.143z"/>
    </g>
   </g>
   <g transform="translate(31.86 14.264)">
    <circle cx="336.92" cy="62.68" r="8.5999" fill="#fff"/>
    <path d="m341.63 62.53-7.5039 4.2465v-8.6782z" fill="#2676a7"/>
   </g>
   <g transform="matrix(-1 0 0 1 591.35 14.264)">
    <circle cx="336.92" cy="62.68" r="8.5999" fill="#fff"/>
    <path d="m341.63 62.53-7.5039 4.2465v-8.6782z" fill="#2676a7"/>
   </g>
  </g>
  <g transform="translate(184.02 -25.835)" fill="none" stroke-linecap="round" stroke-linejoin="round">
   <rect x="255.65" y="71.213" width="3.3676" height="6.1354" opacity=".99" stroke="#2676a7" stroke-width=".94487" style="paint-order:normal"/>
   <path d="m255.66 80.386h1.754v6.1192h-1.7773 3.5547v-2.2359" stroke="#b8e9ff" stroke-width=".92899"/>
   <path d="m255.66 107.87h1.754v6.1192h-1.7773 3.5547v-2.2358" stroke="#feffff" stroke-width=".92899"/>
   <g stroke-width=".94487">
    <rect x="255.65" y="126.21" width="3.3676" height="6.1354" opacity=".99" stroke="#2676a7" style="paint-order:normal"/>
    <rect x="255.65" y="135.39" width="3.3676" height="6.1354" opacity=".99" stroke="#b8e9ff" style="paint-order:normal"/>
    <rect x="255.65" y="117.02" width="3.3676" height="6.1354" opacity=".99" stroke="#feffff" style="paint-order:normal"/>
   </g>
   <path d="m255.66 98.717h1.754v6.1192h-1.7773 3.5547v-2.2359" stroke="#2777a8" stroke-width=".92899"/>
   <path d="m255.66 144.56h1.754v6.1192h-1.7773 3.5547v-2.2359" stroke="#fcfeff" stroke-width=".92899"/>
   <rect x="255.65" y="89.544" width="3.3676" height="6.1354" opacity=".99" stroke="#feffff" stroke-width=".94487" style="paint-order:normal"/>
  </g>
  <g transform="translate(35.247 -61.399)">
   <path transform="matrix(.26458 0 0 .26458 3.339 2.559)" d="m1437.1 680.25v188.8h170.95v-188.8z" fill="#2676a7"/>
   <rect x="388.6" y="187.38" width="34.785" height="22.242" ry="0" fill="#fff"/>
   <g fill="#97d4eb">
    <rect x="393.4" y="191.53" width="7.7303" height="14.823"/>
    <circle cx="407.41" cy="195.55" r="4.6222"/>
    <path d="m408.67 206.74 5.9074-10.373 5.9728 10.345z"/>
    <rect x="388.32" y="211.72" width="34.948" height="4.2548" ry="0"/>
   </g>
   <path d="m394.73 213.84h22.367" fill="none" stroke="#2676a7" stroke-linecap="round" stroke-width=".94016"/>
   <rect x="388.32" y="217.4" width="34.948" height="4.2548" ry="0" fill="#97d4eb"/>
   <path d="m394.73 219.53h22.367" fill="none" stroke="#2676a7" stroke-linecap="round" stroke-width=".94016"/>
   <rect x="388.32" y="223.09" width="34.948" height="4.2548" ry="0" fill="#97d4eb"/>
   <path d="m394.73 225.21h22.367" fill="none" stroke="#2676a7" stroke-linecap="round" stroke-width=".94016"/>
  </g>
  <g transform="translate(101.76 -10.985)" fill="none" stroke-linecap="round" stroke-linejoin="round">
   <rect x="255.65" y="71.213" width="3.3676" height="6.1354" opacity=".99" stroke="#feffff" stroke-width=".94487" style="paint-order:normal"/>
   <path d="m255.66 80.386h1.754v6.1192h-1.7773 3.5547v-2.2359" stroke="#b8e9ff" stroke-width=".92899"/>
   <path d="m255.66 107.87h1.754v6.1192h-1.7773 3.5547v-2.2358" stroke="#feffff" stroke-width=".92899"/>
   <rect x="255.65" y="126.21" width="3.3676" height="6.1354" opacity=".99" stroke="#2676a7" stroke-width=".94487" style="paint-order:normal"/>
   <rect x="255.65" y="117.02" width="3.3676" height="6.1354" opacity=".99" stroke="#feffff" stroke-width=".94487" style="paint-order:normal"/>
   <path d="m255.66 98.717h1.754v6.1192h-1.7773 3.5547v-2.2359" stroke="#2777a8" stroke-width=".92899"/>
   <rect x="255.65" y="89.544" width="3.3676" height="6.1354" opacity=".99" stroke="#feffff" stroke-width=".94487" style="paint-order:normal"/>
  </g>
  <g transform="matrix(.78913 0 0 .78913 -34.689 118.74)">
   <path d="m106.68 15.176v39.041h66.231v-39.041z" fill="#2676a7"/>
   <rect x="111.48" y="20.137" width="56.546" height="29.395" ry="0" fill="#fff"/>
   <circle cx="139.75" cy="34.437" r="8.5999" fill="#97d4eb"/>
   <path d="m144.46 34.287-7.5039 4.2465v-8.6782z" fill="#2676a7"/>
  </g>
  <g transform="translate(7.5691 -45.973)">
   <path d="m273.35 20.221h13.932v13.932h-13.932z" fill="none" opacity=".99" stroke="#b8e9ff" stroke-linecap="round" stroke-linejoin="round" stroke-width="2.1167" style="paint-order:normal"/>
   <g>
    <circle cx="277.7" cy="27.047" r=".65481" fill="#b8e9ff" opacity=".99" stroke="#b8e9ff" stroke-linecap="round" stroke-linejoin="round" stroke-width="2.1167" style="paint-order:normal"/>
    <circle cx="282.7" cy="27.094" r=".65481" fill="#b8e9ff" opacity=".99" stroke="#b8e9ff" stroke-linecap="round" stroke-linejoin="round" stroke-width="2.1167" style="paint-order:normal"/>
    <rect x="269.84" y="16.804" width="7.0626" height="7.0626" fill="#2676a7" opacity=".99" style="paint-order:normal"/>
    <rect x="283.94" y="30.485" width="7.0626" height="7.0626" fill="#2676a7" opacity=".99" style="paint-order:normal"/>
   </g>
   <circle transform="translate(162.86 -192.08)" cx="117.22" cy="218.66" r="14.708" fill="none" stroke="#b8e9ff" stroke-width="2.1167" style="paint-order:normal"/>
  </g>
  <g transform="matrix(.78151 0 0 .78151 -47.427 -110.76)">
   <g transform="matrix(1.1548 0 0 1.1548 99.496 25.762)">
    <g fill="#2676a7" stroke="#feffff">
     <g stroke-linecap="round" stroke-linejoin="round">
      <rect x="249.22" y="158.63" width="8.808" height="12.862" ry="2.5395" stroke-width="1.6855"/>
      <rect x="244.22" y="167.69" width="7.684" height="7.4836" ry="2.0316" stroke-width="2"/>
      <rect transform="rotate(45.285)" x="284.59" y="-57.767" width="4.8595" height="4.7327" ry="1.6698" stroke-width="1.2648"/>
     </g>
     <path d="m243.04 163.26s1.7496-1.9216 5.6522-1.9216" stroke-width="1.265"/>
    </g>
    <g stroke="#feffff">
     <path d="m264.51 163.25s-2.6306-1.9869-5.9664-1.9869" fill="#414141" stroke-width="1.265"/>
     <rect transform="rotate(45.285)" x="301.82" y="-75.165" width="4.8595" height="4.7327" ry="1.6698" fill="#2676a7" stroke-linecap="round" stroke-linejoin="round" stroke-width="1.2648"/>
     <rect x="255.46" y="167.69" width="7.684" height="7.4836" ry="2.0316" fill="#2676a7" stroke-linecap="round" stroke-linejoin="round" stroke-width="2"/>
    </g>
    <g transform="matrix(.30133 0 0 .30133 235.34 128.1)">
     <g transform="translate(-8.7921,17.566)" fill="#01c5ab">
      <path d="m69.52-8.3299c-19.714 0.013506-37.184 12.631-43.298 31.271v-20.638h-0.0739c0.0039-0.062568 0.0063-0.12529 0.0072-0.18808-2.43e-4 -1.6033-0.95759-2.9029-2.1384-2.9027-1.1806 2.256e-4 -2.1376 1.2996-2.1378 2.9027 5.3e-5 0.062739 0.0016 0.12548 0.0047 0.18808h-0.07183v59.509h0.10284c-0.01903 0.18847-0.03488 0.37704-0.04754 0.5657 1.79e-4 15.634 21.374 28.308 47.739 28.308 26.365 1.4e-5 47.739-12.674 47.739-28.308-9e-3 -0.25578-0.0245-0.51147-0.0455-0.767h0.1323v-59.509h-0.0739c4e-3 -0.062568 6e-3 -0.12529 7e-3 -0.18808 5e-5 -1.6036-0.95738-2.9036-2.1384-2.9034-1.1808 2.295e-4 -2.1379 1.3001-2.1378 2.9034 5e-5 0.062739 2e-3 0.12546 5e-3 0.18808h-0.0718v21.533c-5.8896-18.986-23.525-31.944-43.502-31.965z" fill="#fff"/>
     </g>
     <path d="m34.613 50.687c-6.8628-1.17e-4 -12.426 7.9093-12.426 17.666-8.3e-5 9.7567 5.5633 17.666 12.426 17.666h52.434c6.8628 1.16e-4 12.426-7.9093 12.426-17.666 8.2e-5 -9.7567-5.5633-17.666-12.426-17.666z" fill="#2676a7" style="paint-order:normal"/>
     <ellipse cx="34.613" cy="68.353" rx="7.5642" ry="10.754" fill="#fff" style="paint-order:normal"/>
     <ellipse cx="87.048" cy="68.353" rx="7.5642" ry="10.754" fill="#fff" style="paint-order:normal"/>
    </g>
   </g>
  </g>
 </g>
</svg>
