<svg width="508mm" height="285.75mm" version="1.1" viewBox="0 0 508 285.75" xmlns="http://www.w3.org/2000/svg" xmlns:v="http://schemas.microsoft.com/visio/2003/SVGExtensions/" xmlns:xlink="http://www.w3.org/1999/xlink">
 <rect x="-.0073071" y="-1.522" width="511.44" height="290.25" fill="#037364"/>
 <g>
  <g transform="translate(115.46 -87.325)">
   <rect x="140.39" y="127.2" width="23.879" height="12.766" fill="#fff"/>
   <g fill="none" stroke="#019681" stroke-linecap="round">
    <path d="m143.79 130.13h17.284"/>
    <path d="m143.79 133.65h17.284"/>
    <path d="m143.79 137.16h17.284"/>
   </g>
  </g>
  <g transform="translate(153.64 -65.548)">
   <rect x="140.39" y="127.2" width="23.879" height="12.766" fill="#036252"/>
   <g fill="none" stroke="#01c5ab" stroke-linecap="round">
    <path d="m143.79 130.13h17.284"/>
    <path d="m143.79 133.65h17.284"/>
    <path d="m143.79 137.16h17.284"/>
   </g>
  </g>
  <g transform="translate(173.1 -45.904)">
   <rect x="140.39" y="127.2" width="23.879" height="12.766" fill="#01ad98"/>
   <g fill="none" stroke="#036252" stroke-linecap="round">
    <path d="m143.79 130.13h17.284"/>
    <path d="m143.79 133.65h17.284"/>
    <path d="m143.79 137.16h17.284"/>
   </g>
  </g>
  <g transform="translate(121.23 -22.098)">
   <rect x="140.39" y="127.2" width="23.879" height="12.766" fill="#036252"/>
   <g fill="none" stroke="#01c5ab" stroke-linecap="round">
    <path d="m143.79 130.13h17.284"/>
    <path d="m143.79 133.65h17.284"/>
    <path d="m143.79 137.16h17.284"/>
   </g>
  </g>
  <g transform="translate(138.52 -25.618)">
   <rect x="140.39" y="127.2" width="23.879" height="12.766" fill="#019681"/>
   <g fill="none" stroke="#036252" stroke-linecap="round">
    <path d="m143.79 130.13h17.284"/>
    <path d="m143.79 133.65h17.284"/>
    <path d="m143.79 137.16h17.284"/>
   </g>
  </g>
  <g transform="translate(155.8 -22.098)">
   <rect x="140.39" y="127.2" width="23.879" height="12.766" fill="#fff"/>
   <g fill="none" stroke="#019681" stroke-linecap="round">
    <path d="m143.79 130.13h17.284"/>
    <path d="m143.79 133.65h17.284"/>
    <path d="m143.79 137.16h17.284"/>
   </g>
  </g>
  <g transform="translate(179.82 -30.222)" fill="#3f4142">
   <rect x="140.39" y="127.2" width="23.879" height="12.766"/>
   <g stroke="#01c5ab" stroke-linecap="round">
    <path d="m143.79 130.13h17.284"/>
    <path d="m143.79 133.65h17.284"/>
    <path d="m143.79 137.16h17.284"/>
   </g>
  </g>
  <g transform="translate(142.96 -45.619)">
   <rect x="140.39" y="127.2" width="23.879" height="12.766" fill="#036252"/>
   <g fill="none" stroke="#01c5ab" stroke-linecap="round">
    <path d="m143.79 130.13h17.284"/>
    <path d="m143.79 133.65h17.284"/>
    <path d="m143.79 137.16h17.284"/>
   </g>
  </g>
  <g transform="translate(162.54 -37.252)">
   <rect x="140.39" y="127.2" width="23.879" height="12.766" fill="#01c5ab"/>
   <g fill="none" stroke="#fff" stroke-linecap="round">
    <path d="m143.79 130.13h17.284"/>
    <path d="m143.79 133.65h17.284"/>
    <path d="m143.79 137.16h17.284"/>
   </g>
  </g>
  <g transform="translate(42.542 -25.325)">
   <rect x="140.39" y="127.2" width="23.879" height="12.766" fill="#036252"/>
   <g fill="none" stroke="#01c5ab" stroke-linecap="round">
    <path d="m143.79 130.13h17.284"/>
    <path d="m143.79 133.65h17.284"/>
    <path d="m143.79 137.16h17.284"/>
   </g>
  </g>
  <g transform="translate(122.48 -39.169)">
   <rect x="140.39" y="127.2" width="23.879" height="12.766" fill="#fff"/>
   <g fill="none" stroke="#019681" stroke-linecap="round">
    <path d="m143.79 130.13h17.284"/>
    <path d="m143.79 133.65h17.284"/>
    <path d="m143.79 137.16h17.284"/>
   </g>
  </g>
  <g transform="translate(105.58 -51.122)">
   <rect x="140.39" y="127.2" width="23.879" height="12.766" fill="#01c5ab"/>
   <g fill="none" stroke="#fff" stroke-linecap="round">
    <path d="m143.79 130.13h17.284"/>
    <path d="m143.79 133.65h17.284"/>
    <path d="m143.79 137.16h17.284"/>
   </g>
  </g>
  <g transform="translate(129.88 -56.568)">
   <rect x="140.39" y="127.2" width="23.879" height="12.766" fill="#01ad98"/>
   <g fill="none" stroke="#036252" stroke-linecap="round">
    <path d="m143.79 130.13h17.284"/>
    <path d="m143.79 133.65h17.284"/>
    <path d="m143.79 137.16h17.284"/>
   </g>
  </g>
  <g transform="translate(79.311 -75.077)">
   <rect x="140.39" y="127.2" width="23.879" height="12.766" fill="#01ad98"/>
   <g fill="none" stroke="#036252" stroke-linecap="round">
    <path d="m143.79 130.13h17.284"/>
    <path d="m143.79 133.65h17.284"/>
    <path d="m143.79 137.16h17.284"/>
   </g>
  </g>
  <g transform="translate(105.56 -79.018)">
   <rect x="140.39" y="127.2" width="23.879" height="12.766" fill="#01ad98"/>
   <g fill="none" stroke="#036252" stroke-linecap="round">
    <path d="m143.79 130.13h17.284"/>
    <path d="m143.79 133.65h17.284"/>
    <path d="m143.79 137.16h17.284"/>
   </g>
  </g>
  <g transform="translate(146.48 -76.8)">
   <rect x="140.39" y="127.2" width="23.879" height="12.766" fill="#01ad98"/>
   <g fill="none" stroke="#036252" stroke-linecap="round">
    <path d="m143.79 130.13h17.284"/>
    <path d="m143.79 133.65h17.284"/>
    <path d="m143.79 137.16h17.284"/>
   </g>
  </g>
  <g transform="translate(88.502 -34.722)">
   <rect x="140.39" y="127.2" width="23.879" height="12.766" fill="#01ad98"/>
   <g fill="none" stroke="#036252" stroke-linecap="round">
    <path d="m143.79 130.13h17.284"/>
    <path d="m143.79 133.65h17.284"/>
    <path d="m143.79 137.16h17.284"/>
   </g>
  </g>
  <g transform="translate(72.472 -65.057)">
   <rect x="140.39" y="127.2" width="23.879" height="12.766" fill="#01c5ab"/>
   <g fill="none" stroke="#fff" stroke-linecap="round">
    <path d="m143.79 130.13h17.284"/>
    <path d="m143.79 133.65h17.284"/>
    <path d="m143.79 137.16h17.284"/>
   </g>
  </g>
  <g transform="translate(134.81 -82.991)">
   <rect x="140.39" y="127.2" width="23.879" height="12.766" fill="#01c5ab"/>
   <g fill="none" stroke="#fff" stroke-linecap="round">
    <path d="m143.79 130.13h17.284"/>
    <path d="m143.79 133.65h17.284"/>
    <path d="m143.79 137.16h17.284"/>
   </g>
  </g>
  <g transform="translate(157.95 -53.2)">
   <rect x="140.39" y="127.2" width="23.879" height="12.766" fill="#01c5ab"/>
   <g fill="none" stroke="#fff" stroke-linecap="round">
    <path d="m143.79 130.13h17.284"/>
    <path d="m143.79 133.65h17.284"/>
    <path d="m143.79 137.16h17.284"/>
   </g>
  </g>
  <g transform="translate(94.978 -84.395)" fill="#3f4142">
   <rect x="140.39" y="127.2" width="23.879" height="12.766"/>
   <g stroke="#01c5ab" stroke-linecap="round">
    <path d="m143.79 130.13h17.284"/>
    <path d="m143.79 133.65h17.284"/>
    <path d="m143.79 137.16h17.284"/>
   </g>
  </g>
  <g transform="translate(88.297 -58.152)" fill="#3f4142">
   <rect x="140.39" y="127.2" width="23.879" height="12.766"/>
   <g stroke="#01c5ab" stroke-linecap="round">
    <path d="m143.79 130.13h17.284"/>
    <path d="m143.79 133.65h17.284"/>
    <path d="m143.79 137.16h17.284"/>
   </g>
  </g>
  <g transform="translate(66.646 -49.832)">
   <rect x="140.39" y="127.2" width="23.879" height="12.766" fill="#01ad98"/>
   <g fill="none" stroke="#036252" stroke-linecap="round">
    <path d="m143.79 130.13h17.284"/>
    <path d="m143.79 133.65h17.284"/>
    <path d="m143.79 137.16h17.284"/>
   </g>
  </g>
  <g transform="translate(85.102 -41.162)">
   <rect x="140.39" y="127.2" width="23.879" height="12.766" fill="#019681"/>
   <g fill="none" stroke="#036252" stroke-linecap="round">
    <path d="m143.79 130.13h17.284"/>
    <path d="m143.79 133.65h17.284"/>
    <path d="m143.79 137.16h17.284"/>
   </g>
  </g>
  <g transform="translate(50.93 -40.665)">
   <rect x="140.39" y="127.2" width="23.879" height="12.766" fill="#fff"/>
   <g fill="none" stroke="#019681" stroke-linecap="round">
    <path d="m143.79 130.13h17.284"/>
    <path d="m143.79 133.65h17.284"/>
    <path d="m143.79 137.16h17.284"/>
   </g>
  </g>
  <g transform="translate(63.226 -31.641)">
   <rect x="140.39" y="127.2" width="23.879" height="12.766" fill="#01ad98"/>
   <g fill="none" stroke="#036252" stroke-linecap="round">
    <path d="m143.79 130.13h17.284"/>
    <path d="m143.79 133.65h17.284"/>
    <path d="m143.79 137.16h17.284"/>
   </g>
  </g>
  <g transform="translate(126 -70.35)">
   <rect x="140.39" y="127.2" width="23.879" height="12.766" fill="#036252"/>
   <g fill="none" stroke="#01c5ab" stroke-linecap="round">
    <path d="m143.79 130.13h17.284"/>
    <path d="m143.79 133.65h17.284"/>
    <path d="m143.79 137.16h17.284"/>
   </g>
  </g>
  <g transform="translate(105.32 -67.544)">
   <rect x="140.39" y="127.2" width="23.879" height="12.766" fill="#019681"/>
   <g fill="none" stroke="#036252" stroke-linecap="round">
    <path d="m143.79 130.13h17.284"/>
    <path d="m143.79 133.65h17.284"/>
    <path d="m143.79 137.16h17.284"/>
   </g>
  </g>
  <g transform="translate(-.3429 15.585)">
   <g transform="matrix(.79723 0 0 .79723 140.29 41.87)">
    <rect x="140.39" y="127.2" width="23.879" height="12.766" fill="#01c5ab"/>
    <g fill="none" stroke="#fff" stroke-linecap="round">
     <path d="m143.79 130.13h17.284"/>
     <path d="m143.79 133.65h17.284"/>
     <path d="m143.79 137.16h17.284"/>
    </g>
   </g>
   <g transform="matrix(.79723 0 0 .79723 81.805 41.87)" fill="#3f4142">
    <rect x="140.39" y="127.2" width="23.879" height="12.766"/>
    <g stroke="#01c5ab" stroke-linecap="round">
     <path d="m143.79 130.13h17.284"/>
     <path d="m143.79 133.65h17.284"/>
     <path d="m143.79 137.16h17.284"/>
    </g>
   </g>
   <g transform="matrix(.79723 0 0 .79723 198.77 41.87)">
    <rect x="140.39" y="127.2" width="23.879" height="12.766" fill="#fff"/>
    <g fill="none" stroke="#019681" stroke-linecap="round">
     <path d="m143.79 130.13h17.284"/>
     <path d="m143.79 133.65h17.284"/>
     <path d="m143.79 137.16h17.284"/>
    </g>
   </g>
  </g>
  <g transform="translate(-.3429 29.819)">
   <g transform="matrix(.79723 0 0 .79723 140.29 41.87)">
    <rect x="140.39" y="127.2" width="23.879" height="12.766" fill="#01c5ab"/>
    <g fill="none" stroke="#fff" stroke-linecap="round">
     <path d="m143.79 130.13h17.284"/>
     <path d="m143.79 133.65h17.284"/>
     <path d="m143.79 137.16h17.284"/>
    </g>
   </g>
   <g transform="matrix(.79723 0 0 .79723 81.805 41.87)" fill="#3f4142">
    <rect x="140.39" y="127.2" width="23.879" height="12.766"/>
    <g stroke="#01c5ab" stroke-linecap="round">
     <path d="m143.79 130.13h17.284"/>
     <path d="m143.79 133.65h17.284"/>
     <path d="m143.79 137.16h17.284"/>
    </g>
   </g>
   <g transform="matrix(.79723 0 0 .79723 198.77 41.87)">
    <rect x="140.39" y="127.2" width="23.879" height="12.766" fill="#fff"/>
    <g fill="none" stroke="#019681" stroke-linecap="round">
     <path d="m143.79 130.13h17.284"/>
     <path d="m143.79 133.65h17.284"/>
     <path d="m143.79 137.16h17.284"/>
    </g>
   </g>
  </g>
  <g transform="translate(-.3429 44.054)">
   <g transform="matrix(.79723 0 0 .79723 140.29 41.87)">
    <rect x="140.39" y="127.2" width="23.879" height="12.766" fill="#01c5ab"/>
    <g fill="none" stroke="#fff" stroke-linecap="round">
     <path d="m143.79 130.13h17.284"/>
     <path d="m143.79 133.65h17.284"/>
     <path d="m143.79 137.16h17.284"/>
    </g>
   </g>
   <g transform="matrix(.79723 0 0 .79723 81.805 41.87)" fill="#3f4142">
    <rect x="140.39" y="127.2" width="23.879" height="12.766"/>
    <g stroke="#01c5ab" stroke-linecap="round">
     <path d="m143.79 130.13h17.284"/>
     <path d="m143.79 133.65h17.284"/>
     <path d="m143.79 137.16h17.284"/>
    </g>
   </g>
   <g transform="matrix(.79723 0 0 .79723 198.77 41.87)">
    <rect x="140.39" y="127.2" width="23.879" height="12.766" fill="#fff"/>
    <g fill="none" stroke="#019681" stroke-linecap="round">
     <path d="m143.79 130.13h17.284"/>
     <path d="m143.79 133.65h17.284"/>
     <path d="m143.79 137.16h17.284"/>
    </g>
   </g>
  </g>
  <g transform="translate(97.468 -27.577)">
   <rect x="140.39" y="127.2" width="23.879" height="12.766" fill="#01c5ab"/>
   <g fill="none" stroke="#fff" stroke-linecap="round">
    <path d="m143.79 130.13h17.284"/>
    <path d="m143.79 133.65h17.284"/>
    <path d="m143.79 137.16h17.284"/>
   </g>
  </g>
 </g>
 <g>
  <g transform="matrix(1.1112 0 0 1.0743 109.12 105.38)">
   <path d="m49.383 24.873c-0.907-2.15-2.785-3.97-5.214-5.083-1.12-3.765-4.254-7.53-8.928-7.53-0.149 0-0.299 4e-3 -0.451 0.011-1.949-1.398-3.843-2.079-5.771-2.079-1.162 0-2.35 0.257-3.541 0.764-0.882-0.462-1.893-0.703-2.975-0.703-2.392 0-4.661 1.105-6.061 2.399-0.441-0.104-0.9-0.156-1.374-0.156-3.568 0-7.104 2.948-8.06 6.522-3.076 1.116-5.322 3.143-6.377 5.781-1.023 2.559-0.798 5.42 0.617 7.85 1.406 2.413 3.866 3.854 6.58 3.854 1.041 0 2.045-0.213 2.96-0.622 1.65 1.5 3.773 2.397 5.784 2.397 0.701 0 1.372-0.104 2.007-0.309 1.628 1.339 4.123 1.841 6.148 1.841 2.389 0 4.465-0.631 5.841-1.733 0.892 0.413 1.874 0.627 2.899 0.627h1e-3c2.563 0 5.212-1.366 6.659-3.265 0.807 0.331 1.656 0.502 2.515 0.502h1e-3c2.801-1e-3 5.402-1.829 6.626-4.658 0.934-2.159 0.974-4.375 0.114-6.41z" fill="#01c5ab"/>
   <g fill="#037364">
    <path d="m16.07 38.256v-8.804c0-1.093-0.889-1.981-1.981-1.981h-3.299v1.4h3.299c0.32 0 0.581 0.261 0.581 0.581v8.569c0.464 0.123 0.934 0.201 1.4 0.235z"/>
    <path d="m22.158 23.196h-4.432c-0.32 0-0.581-0.261-0.581-0.581v-10.539c-0.252 0.186-0.488 0.378-0.702 0.576-0.228-0.054-0.461-0.093-0.698-0.119v10.082c0 1.093 0.889 1.981 1.981 1.981h4.432c0.32 0 0.58 0.26 0.58 0.58v3.282h1.4v-3.282c1e-3 -1.092-0.888-1.98-1.98-1.98z"/>
    <path d="m40.803 28.794v-1.256h-1.401v1.256c0 0.32-0.26 0.581-0.58 0.581h-5.612v-10.041c0-1.092-0.888-1.981-1.981-1.981h-3.817v1.4h3.817c0.32 0 0.58 0.26 0.58 0.581v19.171c0.453 0.11 0.922 0.174 1.4 0.191v-7.92h5.611c1.094-1e-3 1.983-0.889 1.983-1.982z"/>
    <path d="m23.439 34.25c-1.72 0-3.12-1.4-3.12-3.12 0-1.721 1.4-3.121 3.12-3.121 1.721 0 3.12 1.4 3.12 3.121 0 1.72-1.4 3.12-3.12 3.12zm0-4.946c-1.006 0-1.825 0.819-1.825 1.826s0.819 1.826 1.825 1.826c1.007 0 1.825-0.819 1.825-1.826s-0.819-1.826-1.825-1.826z"/>
    <path d="m8.525 31.28c-1.721 0-3.12-1.4-3.12-3.121s1.4-3.12 3.12-3.12 3.12 1.4 3.12 3.12c0 1.721-1.399 3.121-3.12 3.121zm0-4.947c-1.007 0-1.825 0.819-1.825 1.826s0.819 1.826 1.825 1.826 1.825-0.819 1.825-1.826c1e-3 -1.007-0.818-1.826-1.825-1.826z"/>
    <path d="m40.114 28.301c-1.721 0-3.12-1.4-3.12-3.12 0-1.721 1.4-3.12 3.12-3.12s3.12 1.4 3.12 3.12c0 1.721-1.4 3.12-3.12 3.12zm0-4.945c-1.007 0-1.825 0.819-1.825 1.825s0.819 1.826 1.825 1.826 1.825-0.819 1.825-1.826-0.819-1.825-1.825-1.825z"/>
    <path d="m25.147 21.161c-1.721 0-3.12-1.4-3.12-3.12 0-1.721 1.4-3.12 3.12-3.12s3.12 1.4 3.12 3.12c1e-3 1.72-1.399 3.12-3.12 3.12zm0-4.946c-1.007 0-1.825 0.819-1.825 1.826 0 1.006 0.819 1.825 1.825 1.825s1.825-0.819 1.825-1.825c1e-3 -1.007-0.818-1.826-1.825-1.826z"/>
   </g>
  </g>
  <g transform="matrix(.45567 0 0 .45567 199.78 77.488)">
   <path d="m200.02 76.465h128.32v17.727h-128.32z" fill="#01ad98" opacity=".99" style="paint-order:normal"/>
   <path d="m240.24 137.32h47.89v29.369h-47.89z" fill="#01ad98" opacity=".99" style="paint-order:normal"/>
   <path d="m200.02 94.192 40.217 43.127h47.89l40.217-43.127z" fill="#01c5ab"/>
  </g>
  <g transform="matrix(.45567 0 0 .45567 141.31 77.488)">
   <path d="m200.02 76.465h128.32v17.727h-128.32z" fill="#01ad98" opacity=".99" style="paint-order:normal"/>
   <path d="m240.24 137.32h47.89v29.369h-47.89z" fill="#01ad98" opacity=".99" style="paint-order:normal"/>
   <path d="m200.02 94.192 40.217 43.127h47.89l40.217-43.127z" fill="#01c5ab"/>
  </g>
  <g transform="matrix(.45567 0 0 .45567 82.838 77.488)">
   <path d="m200.02 76.465h128.32v17.727h-128.32z" fill="#01ad98" opacity=".99" style="paint-order:normal"/>
   <path d="m240.24 137.32h47.89v29.369h-47.89z" fill="#01ad98" opacity=".99" style="paint-order:normal"/>
   <path d="m200.02 94.192 40.217 43.127h47.89l40.217-43.127z" fill="#01c5ab"/>
  </g>
  <g fill-opacity=".076142">
   <path d="m250.78 153.44h10.955v-41.053l-29.28-0.0585v8.0777l18.326 19.652z"/>
   <path d="m192.31 153.44h10.955v-41.053l-29.28-0.0585v8.0777l18.326 19.652z"/>
   <path d="m309.26 153.44h10.955v-41.053l-29.28-0.0585v8.0777l18.326 19.652z"/>
  </g>
  <g transform="matrix(.83741 0 0 .83741 115.72 77.329)">
   <path d="m37.442 21.038c0-6.267-5.087-11.346-11.361-11.346s-11.36 5.07-11.36 11.346c0 4.648 2.789 8.625 6.783 10.385-0.371 0.617-1.29 1.479-2.186 2.052-1.748 1.113-3.81 1.69-5.72 2.535-0.319 0.139-0.811 0.353-0.841 0.588-0.142 1.069-0.147 2.16-0.2 3.222 0.238 0.078 0.348 0.129 0.461 0.15 5.402 1.002 10.298-0.27 14.722-3.091 4.593-2.935 9.702-7.7 9.702-15.841z" fill="#fff"/>
   <path d="m26.183 13.374c-4.097 0-7.473 3.252-7.518 7.311-0.045 4.058 3.25 7.537 7.363 7.567s7.514-3.299 7.525-7.432c0.011-4.132-3.299-7.414-7.37-7.446z" fill="#414142"/>
   <path d="m28.041 18.412v-1.63h0.519v-1.064h-4.522v1.064h0.519v1.63l-2.675 5.341 0.809 1.358h7.235l0.802-1.341zm-2.113 1.315-2.143 4.273h-0.526l-0.285-0.272 2.675-5.077v-1.847h1.309v1.853l0.519 1.064h-1.555z" fill="#fff"/>
  </g>
  <g>
   <g transform="matrix(1.4415 0 0 1.4415 -30.59 -86.675)">
    <circle cx="202.76" cy="210.26" r="8.9335" fill="#01c5ab" opacity=".99" style="paint-order:normal"/>
    <g fill="#037364">
     <circle cx="199.6" cy="207.81" r="1.356" opacity=".99" style="paint-order:normal"/>
     <circle cx="205.78" cy="207.81" r="1.356" opacity=".99" style="paint-order:normal"/>
     <path d="m200.24 214.62 5.0936-0.0116" stroke="#037364" stroke-linecap="round" stroke-width="1.323"/>
    </g>
   </g>
   <g transform="matrix(1.4415 0 0 1.4415 27.884 -86.675)" fill="#019681">
    <g>
     <circle cx="202.76" cy="210.26" r="8.9335" fill="#fff" opacity=".99" style="paint-order:normal"/>
     <circle cx="199.6" cy="207.81" r="1.356" fill="#037364" opacity=".99" style="paint-order:normal"/>
     <circle cx="205.78" cy="207.81" r="1.356" fill="#037364" opacity=".99" style="paint-order:normal"/>
    </g>
    <path d="m200.29 213.94c1.2901 2.0296 3.769 1.9996 5.0936-0.0116" fill="none" stroke="#037364" stroke-linecap="round" stroke-width="1.3229"/>
   </g>
   <g transform="matrix(1.4415 0 0 1.4415 -89.299 -86.675)" fill="#3f4142">
    <g>
     <circle cx="202.76" cy="210.26" r="8.9335" fill="#3f4142" opacity=".99" style="paint-order:normal"/>
     <circle cx="199.6" cy="207.81" r="1.356" fill="#037364" opacity=".99" style="paint-order:normal"/>
     <circle cx="205.78" cy="207.81" r="1.356" fill="#037364" opacity=".99" style="paint-order:normal"/>
    </g>
    <path d="m200.29 215.43c1.2901-2.0296 3.769-1.9996 5.0936 0.0116" fill="none" stroke="#037364" stroke-linecap="round" stroke-width="1.3229"/>
   </g>
  </g>
  <g transform="matrix(1.6637 0 0 1.6637 424.27 83.271)">
   <path d="m-89.911-41.501c-0.3 0.1-0.5 0.2-0.8 0.3s-0.6 0.1-0.8 0.2c0.3-0.2 0.6-0.4 0.8-0.7s0.4-0.6 0.5-0.9c-0.3 0.1-0.6 0.3-0.9 0.4s-0.6 0.2-1 0.3c-0.2-0.3-0.5-0.5-0.9-0.7-0.3-0.2-0.7-0.2-1.2-0.2-0.8 0-1.5 0.3-2 0.8s-0.8 1.3-0.8 2.1c0 0.2 0 0.4 0.1 0.6-1.3-0.1-2.4-0.4-3.4-0.9-1-0.6-1.9-1.3-2.6-2.2-0.3 0.5-0.4 1-0.4 1.5 0 1.1 0.4 1.9 1.3 2.4-0.5 0-0.9-0.1-1.3-0.3 0 0.7 0.2 1.3 0.6 1.8s1 0.9 1.6 1c-0.1 0-0.2 0-0.3 0.1h-0.4c-0.1 0-0.3 0-0.5-0.1 0.2 0.6 0.5 1 1 1.4s1 0.6 1.7 0.6c-1 0.8-2.2 1.2-3.6 1.2h-0.7c0.6 0.4 1.3 0.7 2.1 0.9s1.5 0.3 2.3 0.3c1.3 0 2.5-0.2 3.5-0.7s1.9-1.1 2.6-1.9 1.2-1.7 1.6-2.6c0.3-1 0.5-1.9 0.5-2.9v-0.3c0.3-0.2 0.6-0.4 0.8-0.7s0.4-0.6 0.6-0.8z" fill="#fff"/>
  </g>
 </g>
 <g transform="matrix(1.3055 0 0 1.3055 -80.389 -80.353)">
  <path transform="scale(.26458)" d="m990.92 917.72-6.2109 44.084a84.979 79.36 0 0 1 25.16 14.285l38.871-43.865a122.03 118.04 0 0 0-57.82-14.504z" fill="#01ad98" opacity=".99" style="paint-order:normal"/>
  <path transform="scale(.26458)" d="m982.92 918.07a122.03 118.04 0 0 0-51.09 14.188l8.1738 25.365a84.979 79.36 0 0 1 14.189-1.2402 84.979 79.36 0 0 1 22.254 2.8906c1.9106-11.279 5.4198-34.286 6.4726-41.203z" fill="#019681" opacity=".99" style="paint-order:normal"/>
  <path transform="scale(.26458)" d="m1055.4 936.03-39.758 45.186a84.979 79.36 0 0 1 16.775 24.086l60.889-32.564a122.03 118.04 0 0 0-37.906-36.707z" fill="#01ad98" opacity=".99" style="paint-order:normal"/>
  <path transform="scale(.26458)" d="m925.09 936.26a122.03 118.04 0 0 0-36.254 34.229l8.9609 6.0293a84.979 79.36 0 0 1 34.596-17.35z" fill="#036657" opacity=".99" style="paint-order:normal"/>
  <path transform="scale(.26458)" d="m884.97 976.65a122.03 118.04 0 0 0-16.127 49.133h1.1289a84.979 79.36 0 0 1 21.834-43.754c-2.4688-1.9778-4.3616-3.4776-6.8359-5.3789z" fill="#414142" opacity=".99" style="paint-order:normal"/>
  <path transform="scale(.26458)" d="m1097.2 979.17-62.242 32.725a84.979 79.36 0 0 1 3.4179 13.889h73.478a122.03 118.04 0 0 0-14.654-46.613z" fill="#01c3ab" opacity=".99" style="paint-order:normal"/>
  <path d="m259.58 269.01 22.998-19.621-18.024 23.999z" fill="#fdfefe"/>
  <ellipse cx="261.98" cy="271.26" rx="3.35" ry="3.2406" fill="#fdfefe" opacity=".99" style="paint-order:normal"/>
 </g>
 <g transform="matrix(.40685 0 0 .40685 309.96 250.35)">
  <g fill="#fdfefe">
   <path d="m0.50914 5.9645 28.527-4.9908v48.547l-28.584-4.9908z"/>
   <path d="m33.629 9.0837a4.5371 4.5371 0 0 0-2.721 0.91981v7.2372a4.5371 4.5371 0 0 0 2.721 0.91685 4.5371 4.5371 0 0 0 4.5369-4.5369 4.5371 4.5371 0 0 0-4.5369-4.5369z" opacity=".99" style="paint-order:normal"/>
   <circle cx="45.2" cy="16.4" r="4.5371" opacity=".99" style="paint-order:normal"/>
   <path d="m30.908 20.823h8.3936v16.504s-1.4178 4.4237-8.3369 3.176z"/>
   <path d="m40.833 23.602h8.8473v9.698s-0.62385 3.1193-5.5012 3.573h-3.2894z"/>
  </g>
  <path d="m8.2222 16.57 13.278-0.73728-0.0068 3.4595-4.9908 0.18442-0.05671 14.504-3.2327-0.22686v-14.131l-4.9908 0.17953z" fill="#037364"/>
 </g>
 <g transform="matrix(.35278 0 0 .35278 193.33 249.89)" color-interpolation-filters="sRGB" fill="#fdfefe" fill-rule="evenodd" stroke-linecap="square" stroke-miterlimit="3" v:groupContext="foregroundPage" v:index="1" v:mID="0">
  <title>Page-1</title>
  <v:pageProperties v:drawingScale="1" v:drawingUnits="19" v:pageScale="1" v:shadowOffsetX="9" v:shadowOffsetY="-9"/>
  <g transform="translate(1.0528 -1.0528)" fill="#fdfefe" v:groupContext="group" v:mID="1">
   <title>Sheet.1</title>
   <g fill="#fdfefe">
    <g>
     <g transform="translate(9.7912 -7.475)" v:groupContext="shape" v:mID="2">
      <title>Sheet.2</title>
      <path class="st1" d="m6.74 54.15c0 1.9-1.48 3.37-3.37 3.37-1.9 0-3.37-1.47-3.37-3.37v-14.63c0-1.9 1.47-3.37 3.37-3.37 1.89 0 3.37 1.47 3.37 3.37z" fill="#fdfefe"/>
     </g>
     <g transform="translate(19.688 -3.4743)" v:groupContext="shape" v:mID="3">
      <title>Sheet.3</title>
      <path class="st1" d="m6.74 54.15c0 1.9-1.48 3.37-3.37 3.37-1.9 0-3.37-1.47-3.37-3.37v-22.42c0-1.9 1.47-3.37 3.37-3.37 1.89 0 3.37 1.47 3.37 3.37z" fill="#fdfefe"/>
     </g>
     <g transform="translate(0 -10.739)" v:groupContext="shape" v:mID="4">
      <title>Sheet.4</title>
      <path class="st1" d="m6.74 54.15c0 1.9-1.48 3.37-3.37 3.37-1.9 0-3.37-1.47-3.37-3.37v-7.89c0-1.9 1.47-3.37 3.37-3.37 1.89 0 3.37 1.47 3.37 3.37z" fill="#fdfefe"/>
     </g>
     <g transform="translate(29.584)" v:groupContext="shape" v:mID="5">
      <title>Sheet.5</title>
      <path class="st1" d="m6.74 54.15c0 1.9-1.48 3.37-3.37 3.37-1.9 0-3.37-1.47-3.37-3.37v-29.69c0-1.89 1.47-3.36 3.37-3.36 1.89 0 3.37 1.47 3.37 3.36z" fill="#fdfefe"/>
     </g>
    </g>
    <path class="st1" d="m47.059 52.677c-0.52 0-1.16-0.1-1.68-0.31l-4.21-1.37c-0.74-0.21-1.06-0.95-0.85-1.69 0.21-0.73 0.95-1.05 1.69-0.84l4.21 1.37c0.84 0.32 1.79 0.11 2.53-0.42 0.73-0.53 1.15-1.37 1.15-2.32v-27.26c0-1.27-0.84-2.43-2-2.74l-39.9-12.11c-0.84-0.32-1.79-0.1-2.52 0.42-0.74 0.53-1.16 1.37-1.16 2.32v18.74c0 0.74-0.63 1.37-1.37 1.37s-1.37-0.63-1.37-1.37v-18.74c0-1.79 0.84-3.37 2.21-4.53 1.47-1.05 3.26-1.37 4.95-0.84l39.9 12.11c2.32 0.73 4 2.84 4 5.37v27.26c0 1.79-0.84 3.48-2.31 4.53-1.06 0.74-2.11 1.05-3.27 1.05z"/>
   </g>
  </g>
 </g>
</svg>
