<?xml version="1.0" encoding="UTF-8" standalone="no"?>
<!-- Generator: Adobe Illustrator 19.1.0, SVG Export Plug-In . SVG Version: 6.00 Build 0)  -->

<svg
   xmlns:dc="http://purl.org/dc/elements/1.1/"
   xmlns:cc="http://creativecommons.org/ns#"
   xmlns:rdf="http://www.w3.org/1999/02/22-rdf-syntax-ns#"
   xmlns:svg="http://www.w3.org/2000/svg"
   xmlns="http://www.w3.org/2000/svg"
   xmlns:sodipodi="http://sodipodi.sourceforge.net/DTD/sodipodi-0.dtd"
   xmlns:inkscape="http://www.inkscape.org/namespaces/inkscape"
   version="1.1"
   id="Layer_1"
   x="0px"
   y="0px"
   width="50px"
   height="50px"
   viewBox="0 0 50 50"
   enable-background="new 0 0 50 50"
   xml:space="preserve"
   sodipodi:docname="analysis-services.svg"
   inkscape:version="0.92.2 (5c3e80d, 2017-08-06)"><metadata
     id="metadata15"><rdf:RDF><cc:Work
         rdf:about=""><dc:format>image/svg+xml</dc:format><dc:type
           rdf:resource="http://purl.org/dc/dcmitype/StillImage" /></cc:Work></rdf:RDF></metadata><defs
     id="defs13" /><sodipodi:namedview
     pagecolor="#ffffff"
     bordercolor="#666666"
     borderopacity="1"
     objecttolerance="10"
     gridtolerance="10"
     guidetolerance="10"
     inkscape:pageopacity="0"
     inkscape:pageshadow="2"
     inkscape:window-width="640"
     inkscape:window-height="480"
     id="namedview11"
     showgrid="false"
     inkscape:current-layer="Layer_1" /><g
     id="g871"
     transform="matrix(0.03355789,0,0,0.03355789,2.5919491,7.3768443)"><polygon
       id="polygon843"
       points="816.86,568.462 816.86,442.412 781.02,431.292 781.02,512.852 781.02,588.242 "
       style="fill:#5ab4da" /><polygon
       id="polygon845"
       points="1327.24,661.152 1327.24,242.212 781.02,242.212 781.02,364.562 816.86,375.682 816.86,333.662 1290.17,333.662 1290.17,624.072 846.52,624.072 781.02,659.912 781.02,661.152 "
       style="fill:#5ab4da" /><polygon
       id="polygon847"
       points="510.38,344.782 510.38,381.862 328.72,381.862 334.9,418.932 546.22,418.932 546.22,392.982 546.22,355.912 "
       style="fill:#5ab4da" /><polygon
       id="polygon849"
       points="270.639,418.935 264.46,381.861 37.074,381.861 37.074,91.449 510.384,91.449 510.384,278.054 546.222,289.176 546.222,0 0,0 0,418.935 "
       style="fill:#5ab4da" /><polygon
       id="polygon851"
       points="604.304,753.835 604.304,989.872 130.994,989.872 130.994,698.225 313.892,698.225 299.063,606.776 93.921,606.776 93.921,1025.711 640.142,1025.711 640.142,735.299 "
       style="fill:#5ab4da" /><polygon
       id="polygon853"
       points="363.32,606.772 378.15,698.222 574.65,698.222 640.14,662.382 640.14,606.772 "
       style="fill:#5ab4da" /><path
       id="path855"
       d="m 782.26,638.9 27.69,-14.83 6.91,-3.7 185.37,-98.87 c 8.65,9.89 19.77,18.54 33.37,22.25 6.18,2.47 13.59,2.47 19.77,2.47 a 69.694,69.694 0 0 0 66.73,-50.67 c 11.12,-37.07 -11.12,-75.38 -46.96,-86.5 -6.18,-1.24 -12.36,-2.48 -19.77,-2.48 a 69.336,69.336 0 0 0 -64.26,43.26 L 816.86,394.22 781.02,383.09 546.22,307.71 510.38,296.59 509.15,296.2 342.32,243.45 A 73.281,73.281 0 0 0 334.9,203.9 c -12.36,-23.48 -37.07,-37.07 -61.79,-37.07 -11.12,0 -22.24,2.47 -32.13,8.65 -33.37,18.54 -46.96,60.55 -28.42,93.92 12.35,22.25 34.6,35.84 58.08,37.08 l 12.36,76.612 6.18,35.84 29.65,187.84 13.6,91.45 12.36,81.56 c -19.78,7.42 -37.08,23.49 -43.26,45.73 -11.12,37.07 11.13,75.38 46.96,86.51 6.18,1.23 12.36,2.47 19.78,2.47 A 69.706,69.706 0 0 0 435,863.822 c 3.71,-13.59 3.71,-25.95 0,-38.31 l 170.54,-91.45 35.84,-19.77 139.64,-74.73 z m -2.47,-30.89 -139.65,74.15 -35.84,19.77 -184.13,98.86 c -8.65,-9.88 -19.77,-18.53 -33.37,-22.24 -4.94,-1.24 -9.88,-2.47 -14.83,-2.47 l -12.35,-77.86 -13.6,-91.45 -29.66,-187.84 -6.17,-35.84 -12.36,-81.56 q 3.7,-1.845 7.41,-3.71 c 12.36,-6.17 21.01,-16.06 27.19,-27.18 l 176.72,56.84 35.84,11.13 1.23,0.39 233.57,74.99 35.84,11.12 169.3,54.38 c 0,6.18 1.24,11.12 2.47,17.3 l -170.54,90.8 -1.23,0.65 -34.61,19.09 z"
       inkscape:connector-curvature="0"
       style="fill:#5ab4da" /></g></svg>