<?xml version="1.0" encoding="UTF-8" standalone="no"?>
<svg
   xmlns:dc="http://purl.org/dc/elements/1.1/"
   xmlns:cc="http://creativecommons.org/ns#"
   xmlns:rdf="http://www.w3.org/1999/02/22-rdf-syntax-ns#"
   xmlns:svg="http://www.w3.org/2000/svg"
   xmlns="http://www.w3.org/2000/svg"
   version="1.1"
   data-type="301"
   id="FxSymbol0-0e9"
   focusable="false"
   role="presentation"
   class=""
   data-islogo="true"
   viewBox="0 0 18 18">
  <metadata
     id="metadata35">
    <rdf:RDF>
      <cc:Work
         rdf:about="">
        <dc:format>image/svg+xml</dc:format>
        <dc:type
           rdf:resource="http://purl.org/dc/dcmitype/StillImage" />
        <dc:title></dc:title>
      </cc:Work>
    </rdf:RDF>
  </metadata>
  <defs
     id="defs33" />
  <g
     id="g28">
    <title
       id="title2" />
    <defs
       id="defs22">
      <linearGradient
         gradientUnits="userSpaceOnUse"
         y2="14.46"
         x2="8.36"
         y1="11.35"
         x1="8.36"
         id="18bda8d9-ed36-4286-bd77-98cb70547890">
        <stop
           id="stop4"
           stop-color="#c69aeb"
           offset="0" />
        <stop
           id="stop6"
           stop-color="#6f4bb2"
           offset="1" />
      </linearGradient>
      <linearGradient
         gradientUnits="userSpaceOnUse"
         y2="1.18"
         x2="9"
         y1="16.82"
         x1="9"
         id="80ad5814-27aa-4fca-985e-61e63ee62793">
        <stop
           id="stop9"
           stop-color="#198ab3"
           offset="0" />
        <stop
           id="stop11"
           stop-color="#1f9dc4"
           offset=".09" />
        <stop
           id="stop13"
           stop-color="#28b5d9"
           offset=".24" />
        <stop
           id="stop15"
           stop-color="#2dc6e9"
           offset=".4" />
        <stop
           id="stop17"
           stop-color="#31d1f2"
           offset=".57" />
        <stop
           id="stop19"
           stop-color="#32d4f5"
           offset=".78" />
      </linearGradient>
    </defs>
    <path
       id="path24"
       fill="url(#80ad5814-27aa-4fca-985e-61e63ee62793)"
       d="M14.18 5.89a4.85 4.85 0 0 0-4.95-4.71 5 5 0 0 0-4.75 3.29A4.61 4.61 0 0 0 .5 9a4.67 4.67 0 0 0 4.79 4.5 3 3 0 0 0 .42 0h1.2a1.47 1.47 0 0 1-.11-.56 1.51 1.51 0 0 1 .2-.73H5.29A3.41 3.41 0 0 1 1.77 9a3.33 3.33 0 0 1 2.91-3.27l.76-.12.25-.73a3.73 3.73 0 0 1 3.54-2.43 3.6 3.6 0 0 1 3.68 3.45V7l1.09.15a2.59 2.59 0 0 1 2.26 2.49 2.63 2.63 0 0 1-2.62 2.54h-1.23A3.92 3.92 0 0 0 8.54 9a.64.64 0 1 0 0 1.27 2.65 2.65 0 0 1 0 5.29.64.64 0 1 0 0 1.27 3.92 3.92 0 0 0 3.87-3.34h1.05a.64.64 0 0 0 .2 0 3.91 3.91 0 0 0 3.84-3.85 3.86 3.86 0 0 0-3.32-3.75z" />
    <rect
       id="rect26"
       fill="url(#18bda8d9-ed36-4286-bd77-98cb70547890)"
       rx="1.54"
       height="3.12"
       width="3.12"
       y="11.35"
       x="6.8" />
  </g>
</svg>
