<?xml version="1.0" encoding="UTF-8" standalone="no"?>
<!-- Generator: Adobe Illustrator 17.1.0, SVG Export Plug-In . SVG Version: 6.00 Build 0)  -->

<svg
   xmlns:dc="http://purl.org/dc/elements/1.1/"
   xmlns:cc="http://creativecommons.org/ns#"
   xmlns:rdf="http://www.w3.org/1999/02/22-rdf-syntax-ns#"
   xmlns:svg="http://www.w3.org/2000/svg"
   xmlns="http://www.w3.org/2000/svg"
   xmlns:sodipodi="http://sodipodi.sourceforge.net/DTD/sodipodi-0.dtd"
   xmlns:inkscape="http://www.inkscape.org/namespaces/inkscape"
   version="1.1"
   id="Layer_1"
   x="0px"
   y="0px"
   width="50px"
   height="50px"
   viewBox="0 0 50 50"
   enable-background="new 0 0 50 50"
   xml:space="preserve"
   sodipodi:docname="data-factory.svg"
   inkscape:export-filename="C:\Users\user\OneDrive\Personal\01. MarczakIO\images\tags\data-factory.png"
   inkscape:export-xdpi="1920"
   inkscape:export-ydpi="1920"
   inkscape:version="0.92.2 (5c3e80d, 2017-08-06)"><metadata
     id="metadata17"><rdf:RDF><cc:Work
         rdf:about=""><dc:format>image/svg+xml</dc:format><dc:type
           rdf:resource="http://purl.org/dc/dcmitype/StillImage" /></cc:Work></rdf:RDF></metadata><defs
     id="defs15" /><sodipodi:namedview
     pagecolor="#ffffff"
     bordercolor="#666666"
     borderopacity="1"
     objecttolerance="10"
     gridtolerance="10"
     guidetolerance="10"
     inkscape:pageopacity="0"
     inkscape:pageshadow="2"
     inkscape:window-width="640"
     inkscape:window-height="480"
     id="namedview13"
     showgrid="false"
     inkscape:current-layer="Layer_1" /><path
     fill="#59B4D9"
     d="M49.9,29.5L49.9,29.5V17.4L36.2,29.3h-0.3V17.4L22.2,29.3l0,0V4.4c0-2.1-4.7-4.2-10.9-4.2  C5.1,0.2,0,2.2,0,4.4V50h50L49.9,29.5z M11.3,6.4c-4.5,0-8.1-1.1-8.1-2.3s3.6-2.3,8.1-2.3s8.1,1,8.1,2.3C19.3,5.3,15.7,6.4,11.3,6.4  z M34.9,41.9h-5.5v-5.5h5.5V41.9z M25.2,41.9h-5.5v-5.5h5.5V41.9z M39.2,41.9v-5.5h5.5v5.5H39.2z"
     id="path2" /><rect
     x="0"
     y="4.1"
     fill="#3999C6"
     width="11.1"
     height="45.9"
     id="rect4" /><path
     fill="#FFFFFF"
     d="M22.1,4.1c0,2.2-5,4-11.1,4S0,6.3,0,4.1c0-2.2,5-4,11.1-4S22.1,1.8,22.1,4.1"
     id="path6" /><path
     fill="#7FBA00"
     d="M19.9,3.8c0,1.5-3.9,2.6-8.8,2.6S2.3,5.3,2.3,3.8c0-1.5,3.9-2.6,8.8-2.6S19.9,2.4,19.9,3.8"
     id="path8" /><path
     fill="#B8D432"
     d="M18,5.4c1.2-0.4,1.8-1,1.8-1.6c0-1.5-3.9-2.6-8.8-2.6c-4.9,0-8.8,1.2-8.8,2.6C2.3,4.4,3,5,4.1,5.4  c1.6-0.6,4.1-1,7-1C13.9,4.4,16.4,4.8,18,5.4"
     id="path10" /></svg>